{
.appVersion = "1361";
DisplayStrings = (

glyphs = (
{
color = 4;
glyphname = A;
lastChange = "2022-07-29 03:12:30 +0000";
layers = (
{
anchors = (
{
name = bottom;
position = "{636, 0}";
},
{
name = ogonek;
position = "{1146, 10}";
},
{
name = top;
position = "{953, 1477}";
}
);
background = {
paths = (
{
closed = 1;
nodes = (
"1112 -19 OFFCURVE",
"1185 -3 OFFCURVE",
"1245 34 CURVE",
"1251 136 OFFCURVE",
"1253 230 OFFCURVE",
"1025 1366 CURVE",
"692 1158 LINE {name = hr00;}",
"873 333 LINE",
"792 61 LINE",
"840 10 OFFCURVE",
"938 -21 OFFCURVE",
"1041 -20 CURVE SMOOTH"
);
},
{
closed = 1;
nodes = (
"515 -24 OFFCURVE",
"524 272 OFFCURVE",
"555 517 CURVE SMOOTH",
"589 783 OFFCURVE",
"611 1095 OFFCURVE",
"613 1167 CURVE",
"361 1187 LINE",
"183 292 LINE",
"51 303 LINE",
"6 140 LINE",
"44 41 OFFCURVE",
"154 -18 OFFCURVE",
"266 -20 CURVE SMOOTH"
);
},
{
closed = 1;
nodes = (
"1027 420 LINE",
"1012 674 LINE",
"918 664 OFFCURVE",
"524 633 OFFCURVE",
"437 617 CURVE",
"419 453 LINE",
"492 440 OFFCURVE",
"690 427 OFFCURVE",
"800 420 CURVE"
);
},
{
closed = 1;
nodes = (
"1025 1366 LINE",
"775 1442 OFFCURVE",
"521 1505 OFFCURVE",
"255 1549 CURVE",
"172 1474 OFFCURVE",
"130 1319 OFFCURVE",
"127 1216 CURVE",
"248 1170 OFFCURVE",
"536 1145 OFFCURVE",
"715 1129 CURVE"
);
}
);
};
layerId = "ED69ACE7-BE83-49AD-8DAF-057B7A1FF3CB";
paths = (
{
closed = 1;
nodes = (
"985 1440 OFFCURVE",
"731 1505 OFFCURVE",
"472 1549 CURVE",
"379 1474 OFFCURVE",
"316 1319 OFFCURVE",
"298 1216 CURVE",
"344 1197 OFFCURVE",
"429 1180 OFFCURVE",
"521 1167 CURVE",
"224 292 LINE",
"94 303 LINE",
"26 140 LINE",
"50 42 OFFCURVE",
"151 -18 OFFCURVE",
"263 -20 CURVE SMOOTH",
"512 -24 OFFCURVE",
"562 272 OFFCURVE",
"628 516 CURVE SMOOTH",
"692 756 OFFCURVE",
"755 1055 OFFCURVE",
"772 1138 CURVE",
"802 1136 OFFCURVE",
"830 1133 OFFCURVE",
"857 1131 CURVE",
"897 656 LINE",
"789 646 OFFCURVE",
"564 624 OFFCURVE",
"523 617 CURVE",
"482 453 LINE",
"534 444 OFFCURVE",
"626 435 OFFCURVE",
"859 420 CURVE",
"913 420 LINE",
"920 333 LINE",
"801 61 LINE",
"842 10 OFFCURVE",
"936 -21 OFFCURVE",
"1038 -20 CURVE SMOOTH",
"1109 -19 OFFCURVE",
"1185 -3 OFFCURVE",
"1250 34 CURVE",
"1271 136 OFFCURVE",
"1284 244 OFFCURVE",
"1217 1366 CURVE"
);
}
);
userData = {
com.typemytype.robofont.guides = (
{
angle = 90;
isGlobal = 0;
x = 617;
y = 0;
}
);
};
width = 1272;
}
);
leftKerningGroup = KO_A;
rightKerningGroup = KO_A;
unicode = 0041;
userData = {
KernOnName = A;
};
},
{
color = 4;
glyphname = AE;
lastChange = "2022-07-29 03:12:30 +0000";
layers = (
{
anchors = (
{
name = bottom;
position = "{872, 0}";
},
{
name = top;
position = "{1125, 1529}";
}
);
layerId = "ED69ACE7-BE83-49AD-8DAF-057B7A1FF3CB";
paths = (
{
closed = 1;
nodes = (
"1602 -20 OFFCURVE",
"1719 93 OFFCURVE",
"1719 347 CURVE SMOOTH",
"1719 399 OFFCURVE",
"1714 444 OFFCURVE",
"1707 474 CURVE",
"1529 489 LINE",
"1421 299 LINE",
"1136 319 LINE",
"1198 664 LINE",
"1297 604 OFFCURVE",
"1431 581 OFFCURVE",
"1560 581 CURVE SMOOTH",
"1582 581 OFFCURVE",
"1600 582 OFFCURVE",
"1622 584 CURVE",
"1656 616 OFFCURVE",
"1703 734 OFFCURVE",
"1703 828 CURVE SMOOTH",
"1703 866 OFFCURVE",
"1696 900 OFFCURVE",
"1681 930 CURVE",
"1526 899 OFFCURVE",
"1430 874 OFFCURVE",
"1217 851 CURVE",
"1245 1174 LINE",
"1416 1123 OFFCURVE",
"1562 1089 OFFCURVE",
"1676 1075 CURVE",
"1764 1136 OFFCURVE",
"1823 1265 OFFCURVE",
"1823 1387 CURVE SMOOTH",
"1823 1457 OFFCURVE",
"1802 1519 OFFCURVE",
"1754 1549 CURVE",
"1372 1455 LINE",
"1039 1529 LINE",
"947 1471 OFFCURVE",
"851 1354 OFFCURVE",
"838 1265 CURVE",
"865 1155 LINE",
"913 541 LINE",
"789 191 LINE",
"800 144 OFFCURVE",
"813 107 OFFCURVE",
"845 68 CURVE",
"977 22 OFFCURVE",
"1278 -20 OFFCURVE",
"1424 -20 CURVE SMOOTH"
);
},
{
closed = 1;
nodes = (
"512 -24 OFFCURVE",
"562 271 OFFCURVE",
"628 517 CURVE SMOOTH",
"701 790 OFFCURVE",
"768 1115 OFFCURVE",
"777 1167 CURVE",
"528 1187 LINE",
"224 292 LINE",
"94 303 LINE",
"26 140 LINE",
"50 42 OFFCURVE",
"151 -18 OFFCURVE",
"263 -20 CURVE SMOOTH"
);
},
{
closed = 1;
nodes = (
"1086 420 LINE",
"1107 674 LINE",
"1011 664 OFFCURVE",
"613 633 OFFCURVE",
"524 617 CURVE",
"483 453 LINE",
"546 441 OFFCURVE",
"733 428 OFFCURVE",
"859 420 CURVE"
);
},
{
closed = 1;
nodes = (
"1217 1366 LINE",
"956 1409 LINE",
"472 1549 LINE",
"378 1473 OFFCURVE",
"314 1308 OFFCURVE",
"296 1206 CURVE",
"411 1160 OFFCURVE",
"740 1131 OFFCURVE",
"913 1119 CURVE"
);
}
);
width = 1744;
}
);
leftKerningGroup = KO_A;
rightKerningGroup = KO_E;
unicode = 00C6;
},
{
color = 4;
glyphname = B;
lastChange = "2022-07-29 03:12:30 +0000";
layers = (
{
anchors = (
{
name = bottom;
position = "{650, 0}";
},
{
name = top;
position = "{864, 1529}";
}
);
background = {
paths = (
{
closed = 1;
nodes = (
"856 -23 OFFCURVE",
"892 -21 OFFCURVE",
"928 -17 CURVE",
"1137 59 OFFCURVE",
"1281 276 OFFCURVE",
"1281 497 CURVE SMOOTH",
"1281 535 OFFCURVE",
"1277 573 OFFCURVE",
"1268 611 CURVE",
"1221 670 OFFCURVE",
"963 695 OFFCURVE",
"893 697 CURVE",
"726 640 LINE",
"734 612 LINE",
"881 538 LINE",
"887 492 OFFCURVE",
"890 457 OFFCURVE",
"890 427 CURVE SMOOTH",
"890 363 OFFCURVE",
"877 317 OFFCURVE",
"858 222 CURVE",
"731 230 OFFCURVE",
"574 277 OFFCURVE",
"457 344 CURVE",
"478 594 OFFCURVE",
"535 836 OFFCURVE",
"606 1075 CURVE",
"456 969 LINE {name = hr00;}",
"427 983 LINE",
"522 1480 LINE",
"472 1514 OFFCURVE",
"414 1529 OFFCURVE",
"357 1529 CURVE SMOOTH",
"248 1529 OFFCURVE",
"140 1474 OFFCURVE",
"80 1393 CURVE SMOOTH",
"79 1391 OFFCURVE",
"79 1387 OFFCURVE",
"79 1381 CURVE SMOOTH",
"79 1268 OFFCURVE",
"158 476 OFFCURVE",
"211 370 CURVE",
"183 278 OFFCURVE",
"171 237 OFFCURVE",
"151 163 CURVE SMOOTH",
"146 146 OFFCURVE",
"144 133 OFFCURVE",
"144 123 CURVE SMOOTH",
"144 34 OFFCURVE",
"593 -23 OFFCURVE",
"819 -23 CURVE SMOOTH"
);
},
{
closed = 1;
nodes = (
"892 489 OFFCURVE",
"851 700 OFFCURVE",
"851 728 CURVE SMOOTH",
"851 730 OFFCURVE",
"852 731 OFFCURVE",
"852 731 CURVE",
"858 734 OFFCURVE",
"450 750 OFFCURVE",
"453 750 CURVE",
"453 750 OFFCURVE",
"453 750 OFFCURVE",
"453 749 CURVE SMOOTH",
"453 737 OFFCURVE",
"419 587 OFFCURVE",
"419 587 CURVE",
"419 587 OFFCURVE",
"892 489 OFFCURVE",
"892 489 CURVE"
);
},
{
closed = 1;
nodes = (
"1079 737 LINE SMOOTH",
"1126 954 OFFCURVE",
"1167 1215 OFFCURVE",
"1171 1404 CURVE",
"1050 1506 OFFCURVE",
"889 1548 OFFCURVE",
"813 1548 CURVE SMOOTH",
"755 1548 OFFCURVE",
"704 1536 OFFCURVE",
"683 1531 CURVE",
"347 699 LINE",
"507 673 LINE",
"544 758 OFFCURVE",
"676 1036 OFFCURVE",
"732 1151 CURVE",
"779 1143 LINE",
"778 1056 OFFCURVE",
"766 832 OFFCURVE",
"754 689 CURVE SMOOTH",
"754 685 OFFCURVE",
"753 682 OFFCURVE",
"753 678 CURVE",
"1062 659 LINE"
);
}
);
};
layerId = "ED69ACE7-BE83-49AD-8DAF-057B7A1FF3CB";
paths = (
{
closed = 1;
nodes = (
"1341 630 OFFCURVE",
"1264 658 OFFCURVE",
"1164 685 CURVE",
"1182 737 LINE SMOOTH",
"1261 962 OFFCURVE",
"1337 1215 OFFCURVE",
"1368 1404 CURVE",
"1257 1509 OFFCURVE",
"1102 1548 OFFCURVE",
"1030 1548 CURVE SMOOTH",
"988 1548 OFFCURVE",
"945 1542 OFFCURVE",
"897 1531 CURVE",
"592 969 LINE {name = hr00;}",
"565 983 LINE",
"730 1480 LINE",
"684 1514 OFFCURVE",
"627 1529 OFFCURVE",
"571 1529 CURVE SMOOTH",
"463 1529 OFFCURVE",
"346 1474 OFFCURVE",
"275 1393 CURVE",
"256 1260 OFFCURVE",
"226 477 OFFCURVE",
"263 370 CURVE",
"191 210 OFFCURVE",
"161 136 OFFCURVE",
"161 119 CURVE SMOOTH",
"161 33 OFFCURVE",
"591 -23 OFFCURVE",
"816 -23 CURVE SMOOTH",
"853 -23 OFFCURVE",
"889 -21 OFFCURVE",
"925 -17 CURVE",
"1158 63 OFFCURVE",
"1355 313 OFFCURVE",
"1355 570 CURVE SMOOTH",
"1355 584 OFFCURVE",
"1355 597 OFFCURVE",
"1353 611 CURVE"
);
},
{
closed = 1;
nodes = (
"927 1065 OFFCURVE",
"893 890 OFFCURVE",
"862 737 CURVE",
"796 740 OFFCURVE",
"707 744 OFFCURVE",
"645 746 CURVE",
"713 860 OFFCURVE",
"890 1146 OFFCURVE",
"893 1151 CURVE",
"939 1143 LINE"
);
},
{
closed = 1;
nodes = (
"763 230 OFFCURVE",
"613 278 OFFCURVE",
"505 344 CURVE",
"523 424 OFFCURVE",
"540 487 OFFCURVE",
"565 573 CURVE",
"956 490 LINE",
"954 464 OFFCURVE",
"951 430 OFFCURVE",
"950 426 CURVE SMOOTH",
"942 369 OFFCURVE",
"925 328 OFFCURVE",
"890 222 CURVE"
);
}
);
width = 1308;
}
);
leftKerningGroup = KO_B;
rightKerningGroup = KO_B;
unicode = 0042;
userData = {
KernOnName = B;
};
},
{
color = 4;
glyphname = C;
lastChange = "2022-07-29 03:12:30 +0000";
layers = (
{
anchors = (
{
name = bottom;
position = "{506, 0}";
},
{
name = top;
position = "{761, 1535}";
}
);
layerId = "ED69ACE7-BE83-49AD-8DAF-057B7A1FF3CB";
paths = (
{
closed = 1;
nodes = (
"702 6 OFFCURVE",
"931 188 OFFCURVE",
"1016 305 CURVE",
"964 472 LINE",
"766 402 OFFCURVE",
"597 332 OFFCURVE",
"514 320 CURVE",
"565 516 OFFCURVE",
"664 974 OFFCURVE",
"674 1170 CURVE",
"701 1192 LINE {name = hr00;}",
"788 1104 OFFCURVE",
"868 1050 OFFCURVE",
"957 1010 CURVE",
"1015 1037 OFFCURVE",
"1169 1227 OFFCURVE",
"1151 1481 CURVE",
"832 1459 LINE",
"775 1491 OFFCURVE",
"645 1537 OFFCURVE",
"586 1549 CURVE",
"461 1505 OFFCURVE",
"302 1380 OFFCURVE",
"263 1286 CURVE",
"256 1235 OFFCURVE",
"252 1190 OFFCURVE",
"253 1171 CURVE SMOOTH",
"259 1054 OFFCURVE",
"247 874 OFFCURVE",
"228 615 CURVE SMOOTH",
"213 413 OFFCURVE",
"211 394 OFFCURVE",
"193 192 CURVE",
"193 157 OFFCURVE",
"210 126 OFFCURVE",
"247 94 CURVE SMOOTH",
"299 49 OFFCURVE",
"392 -20 OFFCURVE",
"463 -20 CURVE"
);
}
);
width = 1011;
}
);
leftKerningGroup = KO_C;
rightKerningGroup = KO_C;
unicode = 0043;
userData = {
KernOnName = C;
};
},
{
color = 4;
glyphname = D;
lastChange = "2022-07-29 03:12:30 +0000";
layers = (
{
anchors = (
{
name = bottom;
position = "{667, 0}";
},
{
name = center;
position = "{773, 765}";
},
{
name = top;
position = "{880, 1529}";
}
);
layerId = "ED69ACE7-BE83-49AD-8DAF-057B7A1FF3CB";
paths = (
{
closed = 1;
nodes = (
"885 -6 OFFCURVE",
"1159 114 OFFCURVE",
"1192 191 CURVE SMOOTH",
"1250 324 OFFCURVE",
"1404 940 OFFCURVE",
"1412 1182 CURVE SMOOTH",
"1413 1198 OFFCURVE",
"1412 1224 OFFCURVE",
"1412 1226 CURVE",
"1333 1333 OFFCURVE",
"1191 1434 OFFCURVE",
"1085 1489 CURVE",
"381 1549 LINE",
"268 1478 OFFCURVE",
"226 1347 OFFCURVE",
"200 1226 CURVE",
"456 1204 LINE",
"752 1182 LINE",
"995 1129 LINE",
"990 1013 OFFCURVE",
"967 808 OFFCURVE",
"936 584 CURVE SMOOTH",
"920 466 OFFCURVE",
"885 276 OFFCURVE",
"875 228 CURVE",
"562 200 LINE",
"581 137 OFFCURVE",
"653 37 OFFCURVE",
"751 -21 CURVE {name = hr02;}"
);
},
{
closed = 1;
nodes = (
"398 -13 OFFCURVE",
"490 102 OFFCURVE",
"562 200 CURVE",
"760 55 LINE",
"1010 55 OFFCURVE",
"1140 217 OFFCURVE",
"1140 528 CURVE SMOOTH",
"1140 565 OFFCURVE",
"1138 602 OFFCURVE",
"1132 625 CURVE",
"1017 639 LINE",
"931 299 LINE",
"631 394 LINE",
"379 437 LINE",
"332 437 LINE SMOOTH",
"298 437 OFFCURVE",
"261 433 OFFCURVE",
"232 423 CURVE",
"126 299 LINE {name = hr01;}",
"119 186 OFFCURVE",
"207 20 OFFCURVE",
"284 -20 CURVE"
);
},
{
closed = 1;
nodes = (
"811 1449 LINE",
"767 1478 OFFCURVE",
"779 1489 OFFCURVE",
"716 1489 CURVE SMOOTH",
"567 1489 OFFCURVE",
"430 1456 OFFCURVE",
"385 1399 CURVE",
"392 1189 OFFCURVE",
"345 871 OFFCURVE",
"367 373 CURVE",
"602 332 LINE"
);
}
);
width = 1334;
}
);
leftKerningGroup = KO_D;
rightKerningGroup = KO_D;
unicode = 0044;
userData = {
KernOnName = D;
};
},
{
glyphname = Eth;
lastChange = "2022-05-20 00:37:12 +0000";
layers = (
{
layerId = "ED69ACE7-BE83-49AD-8DAF-057B7A1FF3CB";
paths = (
{
closed = 1;
nodes = (
"884 -7 OFFCURVE",
"1144 115 OFFCURVE",
"1166 190 CURVE SMOOTH",
"1205 324 OFFCURVE",
"1254 841 OFFCURVE",
"1254 996 CURVE SMOOTH",
"1254 1133 OFFCURVE",
"1249 1165 OFFCURVE",
"1242 1226 CURVE",
"1146 1334 OFFCURVE",
"991 1435 OFFCURVE",
"877 1489 CURVE",
"165 1549 LINE",
"62 1478 OFFCURVE",
"39 1346 OFFCURVE",
"30 1226 CURVE",
"288 1204 LINE",
"587 1182 LINE",
"838 1129 LINE",
"850 1002 OFFCURVE",
"855 782 OFFCURVE",
"855 586 CURVE SMOOTH",
"855 466 OFFCURVE",
"849 302 OFFCURVE",
"843 228 CURVE",
"534 200 LINE",
"564 134 OFFCURVE",
"652 35 OFFCURVE",
"755 -21 CURVE {name = hr02;}"
);
},
{
closed = 1;
nodes = (
"404 -13 OFFCURVE",
"482 111 OFFCURVE",
"534 200 CURVE",
"754 55 LINE",
"956 55 OFFCURVE",
"1078 181 OFFCURVE",
"1078 369 CURVE SMOOTH",
"1078 476 OFFCURVE",
"1063 579 OFFCURVE",
"1046 625 CURVE",
"928 639 LINE",
"890 299 LINE",
"577 394 LINE",
"318 437 LINE",
"271 437 LINE SMOOTH",
"237 437 OFFCURVE",
"201 433 OFFCURVE",
"174 423 CURVE",
"85 299 LINE {name = hr01;}",
"94 186 OFFCURVE",
"204 20 OFFCURVE",
"288 -20 CURVE"
);
},
{
closed = 1;
nodes = (
"403 637 OFFCURVE",
"647 649 OFFCURVE",
"717 655 CURVE",
"762 719 OFFCURVE",
"774 845 OFFCURVE",
"733 922 CURVE",
"334 884 LINE",
"75 834 LINE",
"60 766 OFFCURVE",
"65 714 OFFCURVE",
"89 649 CURVE"
);
},
{
closed = 1;
nodes = (
"609 1449 LINE",
"561 1478 OFFCURVE",
"571 1489 OFFCURVE",
"508 1489 CURVE SMOOTH",
"359 1489 OFFCURVE",
"227 1456 OFFCURVE",
"190 1399 CURVE",
"226 1189 OFFCURVE",
"224 871 OFFCURVE",
"315 373 CURVE",
"557 332 LINE"
);
}
);
width = 1334;
}
);
leftKerningGroup = KO_Eth;
rightKerningGroup = KO_D;
unicode = 00D0;
},
{
color = 4;
glyphname = E;
lastChange = "2022-07-29 03:12:30 +0000";
layers = (
{
anchors = (
{
name = bottom;
position = "{560, 0}";
},
{
name = ogonek;
position = "{1005, 10}";
},
{
name = top;
position = "{774, 1529}";
},
{
name = topleft;
position = "{239, 1529}";
}
);
layerId = "ED69ACE7-BE83-49AD-8DAF-057B7A1FF3CB";
paths = (
{
closed = 1;
nodes = (
"911 8 OFFCURVE",
"1009 88 OFFCURVE",
"1077 193 CURVE",
"1089 285 OFFCURVE",
"1090 419 OFFCURVE",
"1077 474 CURVE",
"900 489 LINE",
"791 299 LINE",
"506 309 LINE",
"569 664 LINE",
"668 604 OFFCURVE",
"802 581 OFFCURVE",
"931 581 CURVE SMOOTH",
"952 581 OFFCURVE",
"971 582 OFFCURVE",
"992 584 CURVE",
"1026 616 OFFCURVE",
"1073 732 OFFCURVE",
"1073 827 CURVE SMOOTH",
"1073 862 OFFCURVE",
"1067 901 OFFCURVE",
"1051 930 CURVE",
"897 899 OFFCURVE",
"800 874 OFFCURVE",
"587 851 CURVE",
"593 1171 LINE",
"796 1113 OFFCURVE",
"930 1073 OFFCURVE",
"1047 1062 CURVE",
"1131 1120 OFFCURVE",
"1193 1265 OFFCURVE",
"1193 1387 CURVE SMOOTH",
"1193 1457 OFFCURVE",
"1173 1519 OFFCURVE",
"1125 1549 CURVE",
"700 1455 LINE {name = hr00;}",
"377 1528 LINE",
"286 1470 OFFCURVE",
"190 1354 OFFCURVE",
"177 1265 CURVE",
"339 681 LINE",
"122 264 LINE",
"122 192 OFFCURVE",
"146 128 OFFCURVE",
"187 68 CURVE",
"325 30 OFFCURVE",
"619 -15 OFFCURVE",
"795 -20 CURVE"
);
}
);
width = 1104;
}
);
leftKerningGroup = KO_E;
rightKerningGroup = KO_E;
unicode = 0045;
userData = {
KernOnName = E;
};
},
{
color = 4;
glyphname = Eopen;
lastChange = "2022-07-29 03:13:11 +0000";
layers = (
{
layerId = "ED69ACE7-BE83-49AD-8DAF-057B7A1FF3CB";
paths = (
{
closed = 1;
nodes = (
"776 -16 OFFCURVE",
"934 76 OFFCURVE",
"1034 196 CURVE",
"1036 201 OFFCURVE",
"1049 243 OFFCURVE",
"1049 277 CURVE SMOOTH",
"1049 321 OFFCURVE",
"1031 351 OFFCURVE",
"999 382 CURVE",
"868 321 OFFCURVE",
"722 262 OFFCURVE",
"579 260 CURVE SMOOTH",
"544 260 OFFCURVE",
"503 265 OFFCURVE",
"472 272 CURVE",
"454 320 OFFCURVE",
"449 412 OFFCURVE",
"449 466 CURVE",
"516 555 OFFCURVE",
"636 602 OFFCURVE",
"726 640 CURVE SMOOTH",
"785 665 OFFCURVE",
"794 640 OFFCURVE",
"771 740 CURVE",
"702 758 OFFCURVE",
"643 782 OFFCURVE",
"568 783 CURVE",
"358 758 OFFCURVE",
"115 634 OFFCURVE",
"102 533 CURVE",
"69 294 OFFCURVE",
"135 139 OFFCURVE",
"266 57 CURVE SMOOTH {name = hr02;}",
"340 11 OFFCURVE",
"474 -16 OFFCURVE",
"570 -16 CURVE SMOOTH"
);
},
{
closed = 1;
nodes = (
"941 485 OFFCURVE",
"1062 668 OFFCURVE",
"996 805 CURVE",
"909 841 LINE",
"752 795 LINE {name = hr01;}",
"629 666 LINE",
"660 625 OFFCURVE",
"627 654 OFFCURVE",
"658 622 CURVE",
"689 547 OFFCURVE",
"777 478 OFFCURVE",
"846 464 CURVE"
);
},
{
closed = 1;
nodes = (
"804 799 OFFCURVE",
"660 1028 OFFCURVE",
"617 1108 CURVE",
"623 1131 LINE",
"850 1211 LINE",
"880 1195 LINE",
"882 1012 LINE",
"957 985 OFFCURVE",
"1031 979 OFFCURVE",
"1115 1013 CURVE",
"1163 1117 OFFCURVE",
"1237 1239 OFFCURVE",
"1189 1349 CURVE",
"1144 1412 OFFCURVE",
"1030 1462 OFFCURVE",
"933 1493 CURVE",
"872 1515 OFFCURVE",
"816 1529 OFFCURVE",
"793 1529 CURVE SMOOTH",
"704 1529 OFFCURVE",
"418 1425 OFFCURVE",
"316 1333 CURVE",
"281 1254 OFFCURVE",
"263 1168 OFFCURVE",
"269 1061 CURVE",
"417 854 OFFCURVE",
"707 755 OFFCURVE",
"718 750 CURVE",
"883 713 LINE"
);
}
);
width = 1090;
}
);
leftMetricsKey = "=|B";
rightKerningGroup = KO_Eopen;
rightMetricsKey = E;
unicode = 0190;
},
{
color = 4;
glyphname = F;
lastChange = "2022-07-29 03:12:30 +0000";
layers = (
{
anchors = (
{
name = bottom;
position = "{538, 0}";
},
{
name = top;
position = "{751, 1529}";
}
);
layerId = "ED69ACE7-BE83-49AD-8DAF-057B7A1FF3CB";
paths = (
{
closed = 1;
nodes = (
"766 1137 OFFCURVE",
"922 1098 OFFCURVE",
"1071 1075 CURVE",
"1153 1126 OFFCURVE",
"1214 1260 OFFCURVE",
"1214 1389 CURVE SMOOTH",
"1214 1458 OFFCURVE",
"1195 1522 OFFCURVE",
"1147 1549 CURVE",
"778 1447 LINE",
"343 1541 LINE",
"271 1478 OFFCURVE",
"211 1357 OFFCURVE",
"199 1275 CURVE",
"197 1228 OFFCURVE",
"204 1226 OFFCURVE",
"373 311 CURVE",
"140 311 LINE",
"56 174 LINE",
"84 98 OFFCURVE",
"178 -20 OFFCURVE",
"302 -20 CURVE SMOOTH",
"422 -20 OFFCURVE",
"621 65 OFFCURVE",
"651 194 CURVE SMOOTH",
"686 348 OFFCURVE",
"662 488 OFFCURVE",
"633 627 CURVE",
"638 632 LINE",
"722 580 OFFCURVE",
"827 547 OFFCURVE",
"934 547 CURVE SMOOTH",
"959 547 OFFCURVE",
"984 548 OFFCURVE",
"1009 552 CURVE",
"1040 581 OFFCURVE",
"1091 694 OFFCURVE",
"1091 797 CURVE SMOOTH",
"1091 838 OFFCURVE",
"1083 876 OFFCURVE",
"1068 904 CURVE",
"875 866 OFFCURVE",
"834 855 OFFCURVE",
"648 828 CURVE",
"618 1181 LINE"
);
}
);
width = 1075;
}
);
leftKerningGroup = KO_F;
rightKerningGroup = KO_F;
unicode = 0046;
userData = {
KernOnName = F;
};
},
{
color = 4;
glyphname = G;
lastChange = "2022-07-29 03:12:30 +0000";
layers = (
{
anchors = (
{
name = bottom;
position = "{586, 0}";
},
{
name = top;
position = "{801, 1529}";
}
);
layerId = "ED69ACE7-BE83-49AD-8DAF-057B7A1FF3CB";
paths = (
{
closed = 1;
nodes = (
"438 -18 OFFCURVE",
"451 -20 OFFCURVE",
"465 1 CURVE",
"514 320 LINE",
"565 516 OFFCURVE",
"664 974 OFFCURVE",
"674 1170 CURVE",
"701 1192 LINE {name = hr01;}",
"787 1104 OFFCURVE",
"957 1029 OFFCURVE",
"1047 1010 CURVE",
"1105 1037 OFFCURVE",
"1259 1227 OFFCURVE",
"1241 1481 CURVE",
"894 1450 LINE",
"837 1482 OFFCURVE",
"644 1540 OFFCURVE",
"586 1549 CURVE",
"461 1505 OFFCURVE",
"302 1380 OFFCURVE",
"263 1286 CURVE",
"261 1271 OFFCURVE",
"258 1199 OFFCURVE",
"257 1171 CURVE SMOOTH",
"249 935 OFFCURVE",
"243 827 OFFCURVE",
"228 617 CURVE SMOOTH",
"214 425 OFFCURVE",
"214 426 OFFCURVE",
"193 192 CURVE",
"194 154 OFFCURVE",
"207 130 OFFCURVE",
"249 93 CURVE SMOOTH",
"289 58 OFFCURVE",
"361 2 OFFCURVE",
"425 -15 CURVE"
);
},
{
closed = 1;
nodes = (
"571 -20 OFFCURVE",
"734 223 OFFCURVE",
"805 347 CURVE",
"828 336 LINE",
"798 217 OFFCURVE",
"770 135 OFFCURVE",
"752 48 CURVE {name = hr02;}",
"795 -2 OFFCURVE",
"880 -20 OFFCURVE",
"963 -20 CURVE SMOOTH",
"1019 -20 OFFCURVE",
"1084 2 OFFCURVE",
"1117 23 CURVE",
"1120 499 LINE",
"1248 720 LINE",
"1191 804 OFFCURVE",
"1112 842 OFFCURVE",
"989 842 CURVE SMOOTH",
"912 842 OFFCURVE",
"842 827 OFFCURVE",
"817 815 CURVE",
"806 723 OFFCURVE",
"811 610 OFFCURVE",
"834 497 CURVE",
"748 432 OFFCURVE",
"560 280 OFFCURVE",
"511 282 CURVE",
"256 346 LINE",
"237 210 OFFCURVE",
"191 173 OFFCURVE",
"275 95 CURVE SMOOTH",
"324 49 OFFCURVE",
"371 -20 OFFCURVE",
"444 -20 CURVE SMOOTH"
);
}
);
width = 1161;
}
);
leftKerningGroup = KO_C;
rightKerningGroup = KO_G;
unicode = 0047;
userData = {
KernOnName = G;
};
},
{
color = 4;
glyphname = H;
lastChange = "2022-07-29 03:12:30 +0000";
layers = (
{
anchors = (
{
name = bottom;
position = "{686, 0}";
},
{
name = center;
position = "{692, 765}";
},
{
name = top;
position = "{719, 1529}";
},
{
name = topleft;
position = "{71, 1529}";
}
);
layerId = "ED69ACE7-BE83-49AD-8DAF-057B7A1FF3CB";
paths = (
{
closed = 1;
nodes = (
"1171 -20 OFFCURVE",
"1278 98 OFFCURVE",
"1313 177 CURVE",
"1283 319 LINE",
"1147 316 LINE",
"1266 1490 LINE",
"1220 1519 OFFCURVE",
"1160 1530 OFFCURVE",
"1098 1530 CURVE SMOOTH",
"945 1530 OFFCURVE",
"815 1454 OFFCURVE",
"776 1400 CURVE",
"792 1244 OFFCURVE",
"827 1030 OFFCURVE",
"865 844 CURVE",
"779 835 OFFCURVE",
"629 815 OFFCURVE",
"533 800 CURVE",
"332 801 LINE",
"303 652 LINE",
"508 609 LINE {name = hr00;}",
"581 599 OFFCURVE",
"690 591 OFFCURVE",
"857 581 CURVE",
"836 471 OFFCURVE",
"806 332 OFFCURVE",
"806 220 CURVE SMOOTH",
"806 70 OFFCURVE",
"902 -20 OFFCURVE",
"1040 -20 CURVE SMOOTH"
);
},
{
closed = 1;
nodes = (
"459 -20 OFFCURVE",
"512 -9 OFFCURVE",
"556 19 CURVE",
"552 207 OFFCURVE",
"538 444 OFFCURVE",
"510 607 CURVE",
"616 1489 LINE",
"569 1518 OFFCURVE",
"513 1529 OFFCURVE",
"451 1529 CURVE SMOOTH",
"306 1529 OFFCURVE",
"170 1459 OFFCURVE",
"128 1399 CURVE",
"157 1190 OFFCURVE",
"188 868 OFFCURVE",
"251 656 CURVE",
"197 515 OFFCURVE",
"150 258 OFFCURVE",
"133 62 CURVE",
"184 12 OFFCURVE",
"269 -20 OFFCURVE",
"388 -20 CURVE SMOOTH"
);
}
);
userData = {
com.typemytype.robofont.guides = (
{
angle = 0;
isGlobal = 0;
x = 0;
y = 1696;
},
{
angle = 90;
isGlobal = 0;
x = 653;
y = 0;
}
);
};
width = 1333;
}
);
leftKerningGroup = KO_H;
rightKerningGroup = KO_H;
unicode = 0048;
userData = {
KernOnName = H;
};
},
{
glyphname = Hbar;
layers = (
{
components = (
{
name = H;
}
);
layerId = "ED69ACE7-BE83-49AD-8DAF-057B7A1FF3CB";
paths = (
{
closed = 1;
nodes = (
"345 981 OFFCURVE",
"1239 1003 OFFCURVE",
"1309 1009 CURVE",
"1354 1097 OFFCURVE",
"1376 1204 OFFCURVE",
"1328 1280 CURVE",
"296 1198 LINE",
"17 1148 LINE",
"-2 1083 OFFCURVE",
"7 1058 OFFCURVE",
"31 993 CURVE {name = hr00;}"
);
}
);
width = 1348;
}
);
rightKerningGroup = KO_Hbar;
unicode = 0126;
},
{
color = 4;
glyphname = I;
lastChange = "2022-07-29 03:12:30 +0000";
layers = (
{
anchors = (
{
name = bottom;
position = "{333, 0}";
},
{
name = ogonek;
position = "{601, 10}";
},
{
name = top;
position = "{556, 1529}";
},
{
name = topleft;
position = "{234, 1529}";
}
);
layerId = "ED69ACE7-BE83-49AD-8DAF-057B7A1FF3CB";
paths = (
{
closed = 1;
nodes = (
"456 -20 OFFCURVE",
"513 -10 OFFCURVE",
"560 19 CURVE",
"576 205 OFFCURVE",
"581 415 OFFCURVE",
"570 583 CURVE",
"775 1489 LINE",
"731 1518 OFFCURVE",
"677 1529 OFFCURVE",
"614 1529 CURVE SMOOTH",
"466 1529 OFFCURVE",
"325 1457 OFFCURVE",
"279 1399 CURVE",
"285 1184 OFFCURVE",
"282 868 OFFCURVE",
"322 656 CURVE {name = hr00;}",
"253 513 OFFCURVE",
"180 255 OFFCURVE",
"142 62 CURVE",
"188 12 OFFCURVE",
"269 -20 OFFCURVE",
"388 -20 CURVE SMOOTH"
);
}
);
width = 666;
}
);
leftKerningGroup = KO_H;
rightKerningGroup = KO_I;
unicode = 0049;
userData = {
KernOnName = I;
};
},
{
color = 4;
glyphname = Istroke;
lastChange = "2022-07-29 03:12:30 +0000";
layers = (
{
anchors = (
{
name = bottom;
position = "{333, 0}";
},
{
name = ogonek;
position = "{601, 10}";
},
{
name = top;
position = "{547, 1529}";
},
{
name = topleft;
position = "{234, 1529}";
}
);
layerId = "ED69ACE7-BE83-49AD-8DAF-057B7A1FF3CB";
paths = (
{
closed = 1;
nodes = (
"453 637 OFFCURVE",
"698 649 OFFCURVE",
"769 655 CURVE",
"822 718 OFFCURVE",
"853 845 OFFCURVE",
"823 922 CURVE",
"418 884 LINE",
"151 834 LINE",
"126 763 OFFCURVE",
"126 709 OFFCURVE",
"140 649 CURVE"
);
},
{
closed = 1;
nodes = (
"459 -20 OFFCURVE",
"514 -9 OFFCURVE",
"561 19 CURVE",
"577 208 OFFCURVE",
"574 420 OFFCURVE",
"593 752 CURVE",
"774 1489 LINE",
"730 1518 OFFCURVE",
"678 1529 OFFCURVE",
"614 1529 CURVE SMOOTH",
"465 1529 OFFCURVE",
"323 1456 OFFCURVE",
"278 1399 CURVE",
"285 1189 OFFCURVE",
"296 917 OFFCURVE",
"337 700 CURVE {name = hr00;}",
"268 557 OFFCURVE",
"179 257 OFFCURVE",
"142 62 CURVE",
"188 12 OFFCURVE",
"270 -20 OFFCURVE",
"389 -20 CURVE SMOOTH"
);
}
);
width = 666;
}
);
rightKerningGroup = KO_Istroke;
unicode = 0197;
},
{
color = 4;
glyphname = J;
lastChange = "2022-07-29 03:12:30 +0000";
layers = (
{
anchors = (
{
name = bottom;
position = "{500, 0}";
},
{
name = top;
position = "{714, 1529}";
}
);
layerId = "ED69ACE7-BE83-49AD-8DAF-057B7A1FF3CB";
paths = (
{
closed = 1;
nodes = (
"479 -160 OFFCURVE",
"496 -159 OFFCURVE",
"509 -157 CURVE",
"693 -97 OFFCURVE",
"840 50 OFFCURVE",
"906 216 CURVE",
"830 818 LINE",
"951 1191 LINE",
"607 1164 LINE {name = hr01;}",
"543 726 LINE",
"517 79 LINE",
"473 95 OFFCURVE",
"294 216 OFFCURVE",
"192 276 CURVE",
"129 232 OFFCURVE",
"46 54 OFFCURVE",
"43 -26 CURVE SMOOTH",
"43 -26 OFFCURVE",
"43 -35 OFFCURVE",
"43 -40 CURVE",
"84 -98 OFFCURVE",
"298 -160 OFFCURVE",
"464 -160 CURVE SMOOTH"
);
},
{
closed = 1;
nodes = (
"446 960 LINE",
"476 1176 LINE",
"659 1153 LINE",
"944 1153 LINE",
"960 1139 OFFCURVE",
"996 1133 OFFCURVE",
"1030 1133 CURVE SMOOTH",
"1063 1133 OFFCURVE",
"1097 1139 OFFCURVE",
"1118 1150 CURVE",
"1135 1183 OFFCURVE",
"1152 1244 OFFCURVE",
"1152 1311 CURVE SMOOTH",
"1152 1409 OFFCURVE",
"1120 1504 OFFCURVE",
"1064 1549 CURVE",
"963 1545 OFFCURVE",
"870 1451 OFFCURVE",
"823 1395 CURVE",
"741 1454 OFFCURVE",
"552 1529 OFFCURVE",
"441 1529 CURVE SMOOTH",
"291 1529 OFFCURVE",
"183 1402 OFFCURVE",
"183 1228 CURVE SMOOTH {name = hr02;}",
"183 1107 OFFCURVE",
"231 979 OFFCURVE",
"276 924 CURVE"
);
}
);
width = 999;
}
);
leftKerningGroup = KO_J;
rightKerningGroup = KO_J;
unicode = 004A;
userData = {
KernOnName = J;
};
},
{
color = 4;
glyphname = K;
lastChange = "2022-07-29 03:12:30 +0000";
layers = (
{
anchors = (
{
name = bottom;
position = "{662, 0}";
},
{
name = top;
position = "{876, 1529}";
}
);
layerId = "ED69ACE7-BE83-49AD-8DAF-057B7A1FF3CB";
paths = (
{
closed = 1;
nodes = (
"452 -20 OFFCURVE",
"521 -11 OFFCURVE",
"570 19 CURVE",
"586 204 OFFCURVE",
"582 413 OFFCURVE",
"570 583 CURVE",
"775 1489 LINE",
"731 1518 OFFCURVE",
"677 1529 OFFCURVE",
"614 1529 CURVE SMOOTH",
"466 1529 OFFCURVE",
"325 1457 OFFCURVE",
"279 1399 CURVE",
"285 1184 OFFCURVE",
"282 868 OFFCURVE",
"322 656 CURVE",
"253 513 OFFCURVE",
"170 256 OFFCURVE",
"132 62 CURVE {name = hr02;}",
"178 12 OFFCURVE",
"269 -20 OFFCURVE",
"388 -20 CURVE SMOOTH"
);
},
{
closed = 1;
nodes = (
"938 691 LINE",
"843 681 OFFCURVE",
"625 663 OFFCURVE",
"534 647 CURVE",
"501 489 LINE",
"562 477 OFFCURVE",
"746 463 OFFCURVE",
"857 456 CURVE",
"996 454 LINE"
);
},
{
closed = 1;
nodes = (
"1124 -19 OFFCURVE",
"1190 9 OFFCURVE",
"1239 68 CURVE SMOOTH",
"1294 134 OFFCURVE",
"1358 245 OFFCURVE",
"1373 350 CURVE",
"1270 452 LINE",
"1222 416 OFFCURVE",
"1170 382 OFFCURVE",
"1123 366 CURVE",
"1058 439 OFFCURVE",
"998 596 OFFCURVE",
"966 680 CURVE",
"767 532 LINE",
"767 484 OFFCURVE",
"767 313 OFFCURVE",
"794 199 CURVE SMOOTH",
"814 113 OFFCURVE",
"853 27 OFFCURVE",
"929 2 CURVE SMOOTH",
"970 -12 OFFCURVE",
"1013 -19 OFFCURVE",
"1048 -19 CURVE SMOOTH"
);
},
{
closed = 1;
nodes = (
"902 571 OFFCURVE",
"1347 1079 OFFCURVE",
"1421 1372 CURVE",
"1335 1504 OFFCURVE",
"1143 1549 OFFCURVE",
"1059 1549 CURVE {name = hr01;}",
"957 1505 OFFCURVE",
"881 1375 OFFCURVE",
"845 1233 CURVE",
"979 1183 LINE",
"927 1038 OFFCURVE",
"730 712 OFFCURVE",
"643 594 CURVE",
"769 544 LINE",
"791 472 LINE"
);
}
);
width = 1324;
}
);
leftKerningGroup = KO_K;
rightKerningGroup = KO_K;
unicode = 004B;
userData = {
KernOnName = K;
};
},
{
color = 4;
glyphname = L;
lastChange = "2022-07-29 03:12:30 +0000";
layers = (
{
anchors = (
{
name = bottom;
position = "{546, 0}";
},
{
name = center;
position = "{652, 765}";
},
{
name = top;
position = "{759, 1529}";
},
{
name = topright;
position = "{916, 1182}";
}
);
layerId = "ED69ACE7-BE83-49AD-8DAF-057B7A1FF3CB";
paths = (
{
closed = 1;
nodes = (
"346 -13 OFFCURVE",
"434 60 OFFCURVE",
"499 150 CURVE",
"586 72 OFFCURVE",
"711 -20 OFFCURVE",
"833 -20 CURVE SMOOTH",
"1027 -20 OFFCURVE",
"1148 191 OFFCURVE",
"1148 528 CURVE SMOOTH",
"1148 565 OFFCURVE",
"1146 602 OFFCURVE",
"1140 625 CURVE",
"960 649 LINE",
"824 360 LINE",
"578 408 LINE",
"324 437 LINE",
"315 437 OFFCURVE",
"286 437 OFFCURVE",
"277 437 CURVE SMOOTH",
"243 437 OFFCURVE",
"206 433 OFFCURVE",
"177 423 CURVE",
"71 299 LINE {name = hr00;}",
"64 186 OFFCURVE",
"151 20 OFFCURVE",
"229 -20 CURVE"
);
},
{
closed = 1;
nodes = (
"822 1489 LINE",
"778 1518 OFFCURVE",
"728 1529 OFFCURVE",
"666 1529 CURVE SMOOTH",
"518 1529 OFFCURVE",
"375 1456 OFFCURVE",
"330 1399 CURVE",
"337 1189 OFFCURVE",
"290 871 OFFCURVE",
"312 373 CURVE",
"547 332 LINE"
);
}
);
userData = {
com.typemytype.robofont.guides = (
{
angle = 90;
isGlobal = 0;
x = 406;
y = 0;
}
);
};
width = 1117;
}
);
leftKerningGroup = KO_L;
rightKerningGroup = KO_L;
unicode = 004C;
userData = {
KernOnName = L;
};
},
{
glyphname = Lslash;
lastChange = "2022-05-20 05:00:42 +0000";
layers = (
{
anchors = (
{
name = bottom;
position = "{571, 0}";
},
{
name = center;
position = "{571, 765}";
},
{
name = top;
position = "{571, 1529}";
},
{
name = topright;
position = "{780, 1529}";
}
);
layerId = "ED69ACE7-BE83-49AD-8DAF-057B7A1FF3CB";
paths = (
{
closed = 1;
nodes = (
"374 -13 OFFCURVE",
"452 61 OFFCURVE",
"504 150 CURVE",
"602 72 OFFCURVE",
"739 -20 OFFCURVE",
"862 -20 CURVE SMOOTH",
"1064 -20 OFFCURVE",
"1111 181 OFFCURVE",
"1111 369 CURVE SMOOTH",
"1111 476 OFFCURVE",
"1096 579 OFFCURVE",
"1079 625 CURVE",
"895 649 LINE",
"800 360 LINE",
"547 408 LINE",
"288 437 LINE",
"279 437 OFFCURVE",
"250 437 OFFCURVE",
"241 437 CURVE SMOOTH",
"207 437 OFFCURVE",
"171 433 OFFCURVE",
"144 423 CURVE",
"55 299 LINE {name = hr00;}",
"64 186 OFFCURVE",
"174 20 OFFCURVE",
"258 -20 CURVE"
);
},
{
closed = 1;
nodes = (
"891 866 LINE",
"906 958 OFFCURVE",
"899 1083 OFFCURVE",
"851 1112 CURVE",
"61 713 LINE {name = hr00;}",
"67 651 OFFCURVE",
"92 566 OFFCURVE",
"135 542 CURVE"
);
},
{
closed = 1;
nodes = (
"639 1489 LINE",
"591 1518 OFFCURVE",
"541 1529 OFFCURVE",
"478 1529 CURVE SMOOTH",
"329 1529 OFFCURVE",
"197 1456 OFFCURVE",
"160 1399 CURVE",
"196 1189 OFFCURVE",
"194 871 OFFCURVE",
"285 373 CURVE",
"527 332 LINE"
);
}
);
width = 1142;
}
);
leftKerningGroup = KO_Lslash;
rightKerningGroup = KO_Lslash;
unicode = 0141;
},
{
color = 4;
glyphname = M;
lastChange = "2022-07-29 03:12:30 +0000";
layers = (
{
anchors = (
{
name = bottom;
position = "{927, -20}";
},
{
name = top;
position = "{1144, 1529}";
}
);
layerId = "ED69ACE7-BE83-49AD-8DAF-057B7A1FF3CB";
paths = (
{
closed = 1;
nodes = (
"484 -20 OFFCURVE",
"562 103 OFFCURVE",
"580 248 CURVE",
"611 507 OFFCURVE",
"611 1068 OFFCURVE",
"604 1168 CURVE",
"624 1175 LINE",
"788 286 LINE",
"747 235 OFFCURVE",
"722 104 OFFCURVE",
"716 62 CURVE {name = hr02;}",
"771 10 OFFCURVE",
"872 -19 OFFCURVE",
"967 -19 CURVE SMOOTH",
"1040 -19 OFFCURVE",
"1116 -3 OFFCURVE",
"1173 35 CURVE",
"1169 143 OFFCURVE",
"1169 231 OFFCURVE",
"1139 323 CURVE",
"1452 1174 LINE",
"1471 1171 LINE",
"1427 916 OFFCURVE",
"1368 396 OFFCURVE",
"1361 193 CURVE SMOOTH",
"1361 187 OFFCURVE",
"1360 175 OFFCURVE",
"1360 175 CURVE SMOOTH",
"1359 45 OFFCURVE",
"1455 -20 OFFCURVE",
"1572 -20 CURVE SMOOTH {name = hr03;}",
"1743 -20 OFFCURVE",
"1827 136 OFFCURVE",
"1853 168 CURVE",
"1844 334 LINE",
"1654 307 LINE",
"1767 645 OFFCURVE",
"1852 1121 OFFCURVE",
"1884 1299 CURVE",
"1811 1391 OFFCURVE",
"1529 1534 OFFCURVE",
"1424 1549 CURVE",
"1281 1496 OFFCURVE",
"1195 1365 OFFCURVE",
"1167 1247 CURVE",
"1189 1233 OFFCURVE",
"1210 1222 OFFCURVE",
"1258 1200 CURVE",
"1228 1110 OFFCURVE",
"1177 955 OFFCURVE",
"1121 777 CURVE",
"1064 557 LINE",
"1056 556 LINE",
"995 1346 LINE",
"871 1452 OFFCURVE",
"588 1537 OFFCURVE",
"497 1549 CURVE",
"352 1480 OFFCURVE",
"293 1354 OFFCURVE",
"265 1226 CURVE",
"427 1175 LINE",
"236 305 LINE",
"180 9 LINE {name = hr01;}",
"216 -9 OFFCURVE",
"259 -20 OFFCURVE",
"311 -20 CURVE SMOOTH"
);
},
{
closed = 1;
nodes = (
"407 -22 OFFCURVE",
"479 40 OFFCURVE",
"531 133 CURVE SMOOTH",
"592 242 OFFCURVE",
"506 294 OFFCURVE",
"542 426 CURVE",
"263 294 LINE",
"125 305 LINE",
"57 142 LINE",
"81 44 OFFCURVE",
"180 -18 OFFCURVE",
"292 -20 CURVE SMOOTH"
);
}
);
width = 1859;
}
);
leftKerningGroup = KO_M;
rightKerningGroup = KO_M;
unicode = 004D;
userData = {
KernOnName = M;
};
},
{
color = 4;
glyphname = N;
lastChange = "2022-07-29 03:12:30 +0000";
layers = (
{
anchors = (
{
name = bottom;
position = "{686, 0}";
},
{
name = top;
position = "{900, 1529}";
}
);
layerId = "ED69ACE7-BE83-49AD-8DAF-057B7A1FF3CB";
paths = (
{
closed = 1;
nodes = (
"1164 -21 OFFCURVE",
"1276 24 OFFCURVE",
"1335 131 CURVE",
"1331 228 OFFCURVE",
"1301 282 OFFCURVE",
"1257 348 CURVE",
"1502 1486 LINE",
"1465 1514 OFFCURVE",
"1393 1529 OFFCURVE",
"1340 1529 CURVE SMOOTH",
"1235 1529 OFFCURVE",
"1115 1483 OFFCURVE",
"1082 1430 CURVE",
"1062 1280 OFFCURVE",
"1081 674 OFFCURVE",
"1090 395 CURVE",
"1085 391 LINE",
"836 1385 LINE {name = hr01;}",
"702 1491 OFFCURVE",
"497 1537 OFFCURVE",
"404 1549 CURVE",
"259 1477 OFFCURVE",
"216 1346 OFFCURVE",
"200 1226 CURVE",
"246 1194 OFFCURVE",
"308 1179 OFFCURVE",
"366 1175 CURVE",
"250 296 LINE",
"141 305 LINE",
"87 142 LINE",
"119 47 OFFCURVE",
"220 -20 OFFCURVE",
"343 -20 CURVE SMOOTH",
"495 -20 OFFCURVE",
"569 78 OFFCURVE",
"586 199 CURVE SMOOTH",
"590 226 OFFCURVE",
"592 258 OFFCURVE",
"592 300 CURVE SMOOTH",
"592 582 OFFCURVE",
"529 1075 OFFCURVE",
"515 1168 CURVE",
"520 1170 LINE",
"828 245 LINE",
"803 205 OFFCURVE",
"779 116 OFFCURVE",
"777 60 CURVE SMOOTH",
"777 60 OFFCURVE",
"777 52 OFFCURVE",
"777 49 CURVE {name = hr02;}",
"829 2 OFFCURVE",
"957 -21 OFFCURVE",
"1046 -21 CURVE SMOOTH"
);
}
);
userData = {
com.typemytype.robofont.guides = (
{
angle = 0;
isGlobal = 0;
x = 0;
y = -21;
},
{
angle = 0;
isGlobal = 0;
x = 0;
y = 1204;
},
{
angle = 90;
isGlobal = 0;
x = 1322;
y = 0;
},
{
angle = 90;
isGlobal = 0;
x = 698;
y = 0;
}
);
};
width = 1371;
}
);
leftKerningGroup = KO_N;
rightKerningGroup = KO_N;
unicode = 004E;
userData = {
KernOnName = N;
};
},
{
color = 4;
glyphname = Eng;
lastChange = "2022-07-29 03:12:30 +0000";
layers = (
{
layerId = "ED69ACE7-BE83-49AD-8DAF-057B7A1FF3CB";
paths = (
{
closed = 1;
nodes = (
"1132 -21 OFFCURVE",
"1212 2 OFFCURVE",
"1273 55 CURVE",
"1261 348 LINE",
"1500 1486 LINE",
"1463 1514 OFFCURVE",
"1393 1529 OFFCURVE",
"1340 1529 CURVE SMOOTH",
"1235 1529 OFFCURVE",
"1115 1483 OFFCURVE",
"1082 1430 CURVE",
"1062 1280 OFFCURVE",
"1066 563 OFFCURVE",
"1073 305 CURVE",
"1069 301 LINE",
"836 1385 LINE {name = hr01;}",
"702 1491 OFFCURVE",
"497 1537 OFFCURVE",
"404 1549 CURVE",
"259 1477 OFFCURVE",
"216 1346 OFFCURVE",
"200 1226 CURVE",
"246 1194 OFFCURVE",
"308 1179 OFFCURVE",
"366 1175 CURVE",
"250 296 LINE",
"141 305 LINE",
"87 142 LINE",
"119 47 OFFCURVE",
"220 -20 OFFCURVE",
"343 -20 CURVE SMOOTH",
"495 -20 OFFCURVE",
"569 78 OFFCURVE",
"586 199 CURVE SMOOTH",
"590 226 OFFCURVE",
"592 258 OFFCURVE",
"592 300 CURVE SMOOTH",
"592 582 OFFCURVE",
"529 1075 OFFCURVE",
"515 1168 CURVE",
"520 1170 LINE",
"828 245 LINE",
"906 -5 LINE {name = hr02;}",
"952 -15 OFFCURVE",
"1005 -21 OFFCURVE",
"1046 -21 CURVE SMOOTH"
);
},
{
closed = 1;
nodes = (
"857 -436 OFFCURVE",
"871 -435 OFFCURVE",
"886 -433 CURVE",
"1071 -372 OFFCURVE",
"1216 -226 OFFCURVE",
"1283 -60 CURVE",
"1232 542 LINE",
"1113 507 LINE",
"1086 214 LINE",
"1011 477 LINE",
"915 450 LINE",
"902 -132 LINE",
"810 -132 OFFCURVE",
"615 -106 OFFCURVE",
"520 -84 CURVE",
"491 -152 OFFCURVE",
"480 -184 OFFCURVE",
"472 -238 CURVE SMOOTH",
"469 -256 OFFCURVE",
"468 -271 OFFCURVE",
"468 -276 CURVE",
"504 -334 OFFCURVE",
"694 -436 OFFCURVE",
"842 -436 CURVE SMOOTH"
);
}
);
width = 1371;
}
);
leftKerningGroup = KO_N;
unicode = 014A;
},
{
color = 4;
glyphname = Nhookleft;
lastChange = "2022-07-29 03:12:30 +0000";
layers = (
{
anchors = (
{
name = bottom;
position = "{686, 0}";
},
{
name = top;
position = "{899, 1529}";
}
);
layerId = "ED69ACE7-BE83-49AD-8DAF-057B7A1FF3CB";
paths = (
{
closed = 1;
nodes = (
"1465 1514 OFFCURVE",
"1391 1529 OFFCURVE",
"1339 1529 CURVE SMOOTH",
"1234 1529 OFFCURVE",
"1114 1483 OFFCURVE",
"1082 1430 CURVE",
"1061 1282 OFFCURVE",
"1080 658 OFFCURVE",
"1089 395 CURVE",
"1084 391 LINE",
"835 1385 LINE",
"701 1491 OFFCURVE",
"496 1537 OFFCURVE",
"403 1549 CURVE",
"258 1477 OFFCURVE",
"216 1344 OFFCURVE",
"199 1226 CURVE",
"234 1202 OFFCURVE",
"278 1187 OFFCURVE",
"323 1180 CURVE",
"266 471 LINE",
"100 -134 LINE",
"45 -126 OFFCURVE",
"-15 -116 OFFCURVE",
"-52 -113 CURVE",
"-79 -173 OFFCURVE",
"-85 -206 OFFCURVE",
"-90 -281 CURVE",
"-62 -327 OFFCURVE",
"45 -416 OFFCURVE",
"161 -438 CURVE",
"282 -438 OFFCURVE",
"435 -310 OFFCURVE",
"451 -254 CURVE",
"496 -56 OFFCURVE",
"465 293 OFFCURVE",
"458 373 CURVE",
"454 371 LINE",
"461 393 LINE",
"474 428 LINE SMOOTH",
"523 559 OFFCURVE",
"580 775 OFFCURVE",
"613 903 CURVE",
"826 245 LINE",
"802 205 OFFCURVE",
"778 116 OFFCURVE",
"776 61 CURVE SMOOTH",
"776 57 OFFCURVE",
"775 53 OFFCURVE",
"777 49 CURVE",
"829 2 OFFCURVE",
"955 -21 OFFCURVE",
"1045 -21 CURVE SMOOTH",
"1163 -21 OFFCURVE",
"1275 24 OFFCURVE",
"1333 131 CURVE",
"1330 228 OFFCURVE",
"1300 281 OFFCURVE",
"1256 348 CURVE",
"1502 1486 LINE"
);
}
);
width = 1371;
}
);
leftKerningGroup = KO_N;
rightKerningGroup = KO_N;
unicode = 019D;
},
{
color = 4;
glyphname = O;
lastChange = "2022-07-29 03:12:30 +0000";
layers = (
{
anchors = (
{
name = bottom;
position = "{642, 0}";
},
{
name = center;
position = "{750, 765}";
},
{
name = ogonek;
position = "{992, 10}";
},
{
name = top;
position = "{857, 1529}";
},
{
name = topleft;
position = "{231, 1529}";
},
{
name = topright;
position = "{1384, 1529}";
}
);
layerId = "ED69ACE7-BE83-49AD-8DAF-057B7A1FF3CB";
paths = (
{
closed = 1;
nodes = (
"766 -14 OFFCURVE",
"830 9 OFFCURVE",
"933 58 CURVE SMOOTH",
"1004 92 OFFCURVE",
"1100 131 OFFCURVE",
"1125 191 CURVE SMOOTH",
"1178 319 OFFCURVE",
"1342 957 OFFCURVE",
"1353 1268 CURVE SMOOTH",
"1354 1286 OFFCURVE",
"1354 1319 OFFCURVE",
"1354 1321 CURVE",
"1275 1436 OFFCURVE",
"940 1549 OFFCURVE",
"841 1549 CURVE SMOOTH {name = hr00;}",
"772 1549 OFFCURVE",
"408 1434 OFFCURVE",
"322 1337 CURVE SMOOTH",
"261 1268 OFFCURVE",
"202 711 OFFCURVE",
"202 205 CURVE SMOOTH",
"202 185 OFFCURVE",
"202 166 OFFCURVE",
"202 147 CURVE",
"280 67 OFFCURVE",
"546 -12 OFFCURVE",
"693 -21 CURVE"
);
},
{
closed = 1;
nodes = (
"695 251 OFFCURVE",
"602 294 OFFCURVE",
"543 331 CURVE",
"549 444 OFFCURVE",
"567 599 OFFCURVE",
"593 787 CURVE SMOOTH",
"614 935 OFFCURVE",
"634 1063 OFFCURVE",
"658 1174 CURVE",
"731 1209 LINE",
"930 1118 LINE",
"925 993 OFFCURVE",
"901 763 OFFCURVE",
"876 589 CURVE SMOOTH",
"857 456 OFFCURVE",
"842 359 OFFCURVE",
"822 280 CURVE",
"755 238 LINE"
);
}
);
userData = {
com.typemytype.robofont.guides = (
{
angle = 90;
isGlobal = 0;
x = 643;
y = 0;
}
);
};
width = 1283;
}
);
leftKerningGroup = KO_O;
rightKerningGroup = KO_O;
unicode = 004F;
userData = {
KernOnName = O;
};
},
{
color = 4;
glyphname = Oopen;
lastChange = "2022-07-29 03:12:30 +0000";
layers = (
{
anchors = (
{
name = bottom;
position = "{505, 0}";
},
{
name = top;
position = "{720, 1529}";
}
);
layerId = "ED69ACE7-BE83-49AD-8DAF-057B7A1FF3CB";
paths = (
{
closed = 1;
nodes = (
"614 -20 OFFCURVE",
"726 49 OFFCURVE",
"792 95 CURVE SMOOTH",
"843 131 OFFCURVE",
"864 162 OFFCURVE",
"872 192 CURVE",
"904 359 OFFCURVE",
"922 452 OFFCURVE",
"955 613 CURVE SMOOTH",
"1002 841 OFFCURVE",
"1048 1055 OFFCURVE",
"1086 1171 CURVE SMOOTH",
"1097 1205 OFFCURVE",
"1105 1262 OFFCURVE",
"1108 1286 CURVE",
"1097 1378 OFFCURVE",
"974 1504 OFFCURVE",
"859 1549 CURVE",
"799 1538 OFFCURVE",
"653 1490 OFFCURVE",
"587 1459 CURVE",
"275 1481 LINE",
"185 1224 OFFCURVE",
"287 1037 OFFCURVE",
"338 1010 CURVE",
"434 1048 OFFCURVE",
"531 1103 OFFCURVE",
"644 1192 CURVE {name = hr00;}",
"665 1170 LINE",
"622 986 OFFCURVE",
"591 534 OFFCURVE",
"587 320 CURVE",
"508 332 OFFCURVE",
"346 407 OFFCURVE",
"180 472 CURVE",
"81 305 LINE",
"133 188 OFFCURVE",
"311 6 OFFCURVE",
"544 -20 CURVE"
);
}
);
width = 1011;
}
);
leftMetricsKey = "=|C";
rightMetricsKey = "=|C";
unicode = 0186;
},
{
glyphname = Oslash;
lastChange = "2022-05-20 02:41:27 +0000";
layers = (
{
anchors = (
{
name = bottom;
position = "{646, 0}";
},
{
name = center;
position = "{646, 765}";
},
{
name = ogonek;
position = "{1162, 10}";
},
{
name = top;
position = "{646, 1529}";
},
{
name = topleft;
position = "{20, 1529}";
},
{
name = topright;
position = "{1173, 1529}";
}
);
layerId = "ED69ACE7-BE83-49AD-8DAF-057B7A1FF3CB";
paths = (
{
closed = 1;
nodes = (
"771 -14 OFFCURVE",
"837 11 OFFCURVE",
"929 58 CURVE SMOOTH",
"991 90 OFFCURVE",
"1086 132 OFFCURVE",
"1101 190 CURVE SMOOTH",
"1139 325 OFFCURVE",
"1189 841 OFFCURVE",
"1189 1060 CURVE SMOOTH",
"1189 1183 OFFCURVE",
"1182 1240 OFFCURVE",
"1173 1321 CURVE",
"1078 1436 OFFCURVE",
"726 1549 OFFCURVE",
"628 1549 CURVE SMOOTH {name = hr00;}",
"559 1549 OFFCURVE",
"213 1435 OFFCURVE",
"138 1337 CURVE SMOOTH",
"101 1288 OFFCURVE",
"102 1154 OFFCURVE",
"102 1081 CURVE SMOOTH",
"102 879 OFFCURVE",
"148 386 OFFCURVE",
"185 147 CURVE",
"274 67 OFFCURVE",
"551 -12 OFFCURVE",
"699 -21 CURVE"
);
},
{
closed = 1;
nodes = (
"556 150 LINE",
"375 346 LINE",
"178 -190 LINE",
"227 -271 OFFCURVE",
"304 -253 OFFCURVE",
"383 -257 CURVE"
);
},
{
closed = 1;
nodes = (
"655 253 OFFCURVE",
"555 299 OFFCURVE",
"500 331 CURVE",
"490 444 OFFCURVE",
"486 612 OFFCURVE",
"486 786 CURVE SMOOTH",
"486 935 OFFCURVE",
"490 1085 OFFCURVE",
"497 1174 CURVE",
"566 1209 LINE",
"777 1118 LINE",
"789 991 OFFCURVE",
"797 782 OFFCURVE",
"797 586 CURVE SMOOTH",
"797 466 OFFCURVE",
"794 354 OFFCURVE",
"786 280 CURVE",
"725 238 LINE"
);
},
{
closed = 1;
nodes = (
"1187 1655 LINE",
"1137 1757 OFFCURVE",
"1079 1789 OFFCURVE",
"980 1817 CURVE",
"766 1358 LINE",
"931 1159 LINE {name = hr00;}"
);
}
);
width = 1297;
}
);
leftKerningGroup = KO_Q;
rightKerningGroup = KO_Oslash;
unicode = 00D8;
},
{
color = 4;
glyphname = OE;
lastChange = "2022-07-29 03:12:30 +0000";
layers = (
{
layerId = "ED69ACE7-BE83-49AD-8DAF-057B7A1FF3CB";
paths = (
{
closed = 1;
nodes = (
"774 -14 OFFCURVE",
"838 9 OFFCURVE",
"942 58 CURVE SMOOTH",
"1008 89 OFFCURVE",
"1101 132 OFFCURVE",
"1125 189 CURVE SMOOTH",
"1182 325 OFFCURVE",
"1343 962 OFFCURVE",
"1354 1268 CURVE SMOOTH",
"1355 1286 OFFCURVE",
"1355 1319 OFFCURVE",
"1355 1321 CURVE",
"1275 1436 OFFCURVE",
"948 1549 OFFCURVE",
"848 1549 CURVE SMOOTH",
"779 1549 OFFCURVE",
"407 1436 OFFCURVE",
"320 1335 CURVE SMOOTH",
"260 1266 OFFCURVE",
"194 661 OFFCURVE",
"194 194 CURVE SMOOTH",
"194 177 OFFCURVE",
"194 161 OFFCURVE",
"194 147 CURVE",
"272 67 OFFCURVE",
"554 -12 OFFCURVE",
"701 -21 CURVE {name = hr02;}"
);
},
{
closed = 1;
nodes = (
"763 238 LINE",
"690 254 OFFCURVE",
"594 302 OFFCURVE",
"548 331 CURVE",
"553 444 OFFCURVE",
"570 592 OFFCURVE",
"597 788 CURVE SMOOTH",
"617 931 OFFCURVE",
"641 1078 OFFCURVE",
"663 1174 CURVE",
"739 1209 LINE",
"940 1118 LINE",
"935 994 OFFCURVE",
"911 765 OFFCURVE",
"886 588 CURVE SMOOTH",
"869 465 OFFCURVE",
"840 294 OFFCURVE",
"823 228 CURVE"
);
},
{
closed = 1;
nodes = (
"1668 -19 OFFCURVE",
"1773 111 OFFCURVE",
"1773 345 CURVE SMOOTH",
"1773 395 OFFCURVE",
"1768 442 OFFCURVE",
"1760 475 CURVE",
"1582 490 LINE",
"1474 300 LINE",
"1134 322 LINE",
"862 272 LINE",
"861 197 OFFCURVE",
"838 163 OFFCURVE",
"879 104 CURVE",
"1068 25 OFFCURVE",
"1268 -19 OFFCURVE",
"1478 -19 CURVE SMOOTH"
);
},
{
closed = 1;
nodes = (
"1635 581 OFFCURVE",
"1655 582 OFFCURVE",
"1676 584 CURVE",
"1710 616 OFFCURVE",
"1757 733 OFFCURVE",
"1757 828 CURVE SMOOTH",
"1757 857 OFFCURVE",
"1753 895 OFFCURVE",
"1735 930 CURVE",
"1587 900 OFFCURVE",
"1471 876 OFFCURVE",
"1276 854 CURVE",
"1250 654 LINE {name = hr01;}",
"1346 601 OFFCURVE",
"1495 581 OFFCURVE",
"1615 581 CURVE SMOOTH"
);
},
{
closed = 1;
nodes = (
"1817 1135 OFFCURVE",
"1877 1264 OFFCURVE",
"1877 1388 CURVE SMOOTH",
"1877 1459 OFFCURVE",
"1856 1519 OFFCURVE",
"1808 1549 CURVE",
"1426 1455 LINE",
"949 1366 LINE",
"1320 1168 LINE",
"1486 1119 OFFCURVE",
"1621 1088 OFFCURVE",
"1730 1075 CURVE"
);
}
);
width = 1797;
}
);
rightKerningGroup = KO_OE;
unicode = 0152;
},
{
color = 4;
glyphname = P;
lastChange = "2022-07-29 03:12:30 +0000";
layers = (
{
anchors = (
{
name = bottom;
position = "{632, 0}";
},
{
name = top;
position = "{846, 1529}";
}
);
layerId = "ED69ACE7-BE83-49AD-8DAF-057B7A1FF3CB";
paths = (
{
closed = 1;
nodes = (
"990 392 OFFCURVE",
"1145 520 OFFCURVE",
"1195 570 CURVE",
"1313 803 OFFCURVE",
"1402 1187 OFFCURVE",
"1415 1404 CURVE",
"1310 1506 OFFCURVE",
"1153 1549 OFFCURVE",
"1078 1548 CURVE SMOOTH",
"1020 1547 OFFCURVE",
"967 1537 OFFCURVE",
"945 1531 CURVE",
"433 699 LINE",
"513 663 LINE",
"507 642 OFFCURVE",
"495 487 OFFCURVE",
"495 487 CURVE",
"504 486 LINE",
"496 479 LINE",
"592 438 OFFCURVE",
"830 390 OFFCURVE",
"910 391 CURVE"
);
},
{
closed = 1;
nodes = (
"561 -21 OFFCURVE",
"722 68 OFFCURVE",
"771 145 CURVE",
"760 269 LINE",
"555 282 LINE",
"541 522 LINE",
"291 496 LINE",
"263 431 OFFCURVE",
"211 155 OFFCURVE",
"211 128 CURVE SMOOTH",
"211 56 OFFCURVE",
"284 -21 OFFCURVE",
"403 -21 CURVE SMOOTH"
);
},
{
closed = 1;
nodes = (
"569 594 OFFCURVE",
"544 749 OFFCURVE",
"648 988 CURVE",
"599 969 LINE",
"573 983 LINE",
"737 1480 LINE",
"690 1515 OFFCURVE",
"633 1530 OFFCURVE",
"574 1529 CURVE SMOOTH",
"467 1527 OFFCURVE",
"353 1473 OFFCURVE",
"283 1393 CURVE",
"269 1354 OFFCURVE",
"247 602 OFFCURVE",
"287 488 CURVE",
"513 344 LINE {name = hr00;}"
);
},
{
closed = 1;
nodes = (
"854 543 OFFCURVE",
"657 674 OFFCURVE",
"602 695 CURVE",
"660 791 OFFCURVE",
"848 1034 OFFCURVE",
"942 1151 CURVE",
"987 1143 LINE",
"982 980 OFFCURVE",
"933 791 OFFCURVE",
"885 640 CURVE SMOOTH"
);
}
);
width = 1264;
}
);
leftKerningGroup = KO_P;
rightKerningGroup = KO_P;
unicode = 0050;
userData = {
KernOnName = P;
};
},
{
color = 4;
glyphname = Thorn;
lastChange = "2022-07-29 03:12:30 +0000";
layers = (
{
layerId = "ED69ACE7-BE83-49AD-8DAF-057B7A1FF3CB";
paths = (
{
closed = 1;
nodes = (
"1286 1337 OFFCURVE",
"1130 1380 OFFCURVE",
"1054 1379 CURVE SMOOTH",
"997 1378 OFFCURVE",
"943 1368 OFFCURVE",
"922 1362 CURVE",
"648 991 LINE",
"610 1003 LINE",
"738 1480 LINE",
"686 1516 OFFCURVE",
"630 1529 OFFCURVE",
"574 1529 CURVE SMOOTH",
"470 1529 OFFCURVE",
"353 1473 OFFCURVE",
"283 1393 CURVE",
"269 1356 OFFCURVE",
"250 670 OFFCURVE",
"283 508 CURVE",
"234 371 OFFCURVE",
"191 212 OFFCURVE",
"162 62 CURVE",
"208 12 OFFCURVE",
"289 -20 OFFCURVE",
"408 -20 CURVE SMOOTH",
"476 -20 OFFCURVE",
"533 -10 OFFCURVE",
"580 19 CURVE",
"589 122 OFFCURVE",
"584 236 OFFCURVE",
"576 365 CURVE",
"687 304 OFFCURVE",
"826 221 OFFCURVE",
"887 222 CURVE SMOOTH",
"967 223 OFFCURVE",
"1125 352 OFFCURVE",
"1173 401 CURVE",
"1288 630 OFFCURVE",
"1378 1015 OFFCURVE",
"1392 1235 CURVE"
);
},
{
closed = 1;
nodes = (
"780 540 OFFCURVE",
"648 660 OFFCURVE",
"605 714 CURVE",
"689 814 OFFCURVE",
"854 943 OFFCURVE",
"921 1000 CURVE",
"966 992 LINE",
"961 828 OFFCURVE",
"912 642 OFFCURVE",
"864 487 CURVE"
);
}
);
width = 1264;
}
);
leftKerningGroup = KO_R;
rightKerningGroup = KO_Thorn;
unicode = 00DE;
},
{
color = 4;
glyphname = Q;
lastChange = "2022-07-29 03:12:30 +0000";
layers = (
{
layerId = "ED69ACE7-BE83-49AD-8DAF-057B7A1FF3CB";
paths = (
{
closed = 1;
nodes = (
"779 23 OFFCURVE",
"839 11 OFFCURVE",
"937 58 CURVE SMOOTH",
"998 87 OFFCURVE",
"1104 132 OFFCURVE",
"1128 190 CURVE SMOOTH",
"1186 331 OFFCURVE",
"1346 967 OFFCURVE",
"1357 1269 CURVE SMOOTH",
"1358 1286 OFFCURVE",
"1357 1319 OFFCURVE",
"1357 1321 CURVE",
"1279 1436 OFFCURVE",
"941 1549 OFFCURVE",
"844 1549 CURVE SMOOTH",
"776 1549 OFFCURVE",
"411 1434 OFFCURVE",
"325 1337 CURVE SMOOTH",
"264 1269 OFFCURVE",
"205 714 OFFCURVE",
"205 197 CURVE SMOOTH",
"205 179 OFFCURVE",
"205 163 OFFCURVE",
"205 147 CURVE",
"283 67 OFFCURVE",
"562 25 OFFCURVE",
"709 16 CURVE"
);
},
{
closed = 1;
nodes = (
"990 -442 OFFCURVE",
"1000 -436 OFFCURVE",
"1008 -424 CURVE",
"1098 -367 OFFCURVE",
"1192 -176 OFFCURVE",
"1167 -76 CURVE",
"1056 -90 OFFCURVE",
"784 -111 OFFCURVE",
"610 -123 CURVE",
"610 -94 LINE",
"614 -82 OFFCURVE",
"899 23 OFFCURVE",
"1022 99 CURVE",
"963 273 LINE {name = hr00;}",
"411 -69 LINE",
"363 -20 LINE",
"315 -27 OFFCURVE",
"273 -45 OFFCURVE",
"211 -77 CURVE",
"185 -213 OFFCURVE",
"215 -357 OFFCURVE",
"296 -410 CURVE",
"368 -405 OFFCURVE",
"423 -367 OFFCURVE",
"468 -318 CURVE",
"638 -386 OFFCURVE",
"878 -434 OFFCURVE",
"978 -446 CURVE"
);
},
{
closed = 1;
nodes = (
"698 251 OFFCURVE",
"605 294 OFFCURVE",
"546 331 CURVE",
"552 444 OFFCURVE",
"571 612 OFFCURVE",
"596 787 CURVE SMOOTH",
"617 935 OFFCURVE",
"641 1079 OFFCURVE",
"661 1174 CURVE",
"735 1209 LINE",
"933 1118 LINE",
"928 994 OFFCURVE",
"906 777 OFFCURVE",
"879 587 CURVE SMOOTH",
"861 462 OFFCURVE",
"845 360 OFFCURVE",
"825 280 CURVE",
"759 238 LINE"
);
}
);
width = 1291;
}
);
leftKerningGroup = KO_Q;
rightKerningGroup = KO_Q;
unicode = 0051;
},
{
color = 4;
glyphname = R;
lastChange = "2022-07-29 03:12:30 +0000";
layers = (
{
anchors = (
{
name = bottom;
position = "{682, 0}";
},
{
name = top;
position = "{895, 1529}";
}
);
layerId = "ED69ACE7-BE83-49AD-8DAF-057B7A1FF3CB";
paths = (
{
closed = 1;
nodes = (
"455 -19 OFFCURVE",
"517 -4 OFFCURVE",
"567 27 CURVE",
"573 158 OFFCURVE",
"569 403 OFFCURVE",
"542 501 CURVE",
"806 465 LINE",
"801 344 OFFCURVE",
"795 53 OFFCURVE",
"948 2 CURVE SMOOTH",
"992 -13 OFFCURVE",
"1029 -20 OFFCURVE",
"1067 -20 CURVE SMOOTH",
"1142 -20 OFFCURVE",
"1209 9 OFFCURVE",
"1260 69 CURVE SMOOTH",
"1316 134 OFFCURVE",
"1385 245 OFFCURVE",
"1404 350 CURVE",
"1303 452 LINE",
"1251 414 OFFCURVE",
"1202 382 OFFCURVE",
"1154 366 CURVE",
"1107 422 OFFCURVE",
"1077 486 OFFCURVE",
"1048 558 CURVE",
"1117 610 OFFCURVE",
"1174 663 OFFCURVE",
"1224 723 CURVE",
"1326 954 OFFCURVE",
"1392 1219 OFFCURVE",
"1415 1404 CURVE",
"1311 1505 OFFCURVE",
"1153 1549 OFFCURVE",
"1078 1548 CURVE SMOOTH",
"1019 1547 OFFCURVE",
"967 1537 OFFCURVE",
"945 1531 CURVE",
"599 969 LINE",
"572 983 LINE",
"736 1480 LINE",
"604 1579 OFFCURVE",
"392 1517 OFFCURVE",
"282 1393 CURVE",
"268 1355 OFFCURVE",
"231 484 OFFCURVE",
"271 370 CURVE",
"230 291 OFFCURVE",
"201 228 OFFCURVE",
"146 69 CURVE",
"188 11 OFFCURVE",
"289 -22 OFFCURVE",
"393 -20 CURVE SMOOTH"
);
},
{
closed = 1;
nodes = (
"649 775 OFFCURVE",
"852 1038 OFFCURVE",
"941 1151 CURVE",
"987 1143 LINE",
"984 1046 OFFCURVE",
"948 850 OFFCURVE",
"903 694 CURVE",
"583 672 LINE"
);
}
);
width = 1364;
}
);
leftKerningGroup = KO_R;
rightKerningGroup = KO_R;
unicode = 0052;
userData = {
KernOnName = R;
};
},
{
color = 4;
glyphname = S;
lastChange = "2022-07-29 03:12:30 +0000";
layers = (
{
anchors = (
{
name = bottom;
position = "{525, 0}";
},
{
name = top;
position = "{739, 1529}";
}
);
layerId = "ED69ACE7-BE83-49AD-8DAF-057B7A1FF3CB";
paths = (
{
closed = 1;
nodes = (
"774 24 OFFCURVE",
"860 88 OFFCURVE",
"952 168 CURVE",
"986 246 OFFCURVE",
"1062 431 OFFCURVE",
"1067 528 CURVE",
"973 700 OFFCURVE",
"654 937 OFFCURVE",
"558 998 CURVE",
"625 1208 LINE",
"638 1208 LINE",
"739 1092 OFFCURVE",
"902 1010 OFFCURVE",
"994 990 CURVE",
"1053 1017 OFFCURVE",
"1217 1201 OFFCURVE",
"1190 1455 CURVE",
"867 1440 LINE",
"828 1461 OFFCURVE",
"721 1527 OFFCURVE",
"653 1549 CURVE",
"491 1484 OFFCURVE",
"359 1396 OFFCURVE",
"243 1244 CURVE",
"239 1129 OFFCURVE",
"211 870 OFFCURVE",
"222 779 CURVE",
"273 663 OFFCURVE",
"599 490 OFFCURVE",
"722 454 CURVE",
"731 394 OFFCURVE",
"709 320 OFFCURVE",
"691 268 CURVE",
"628 243 LINE {name = hr00;}",
"511 331 OFFCURVE",
"367 410 OFFCURVE",
"206 422 CURVE",
"187 387 OFFCURVE",
"82 247 OFFCURVE",
"174 37 CURVE",
"164 36 OFFCURVE",
"674 -22 OFFCURVE",
"664 -20 CURVE"
);
}
);
width = 1050;
}
);
leftKerningGroup = KO_S;
rightKerningGroup = KO_S;
unicode = 0053;
userData = {
KernOnName = S;
};
},
{
color = 4;
glyphname = Saltillo;
lastChange = "2022-07-29 03:12:30 +0000";
layers = (
{
anchors = (
{
name = bottom;
position = "{333, 0}";
},
{
name = ogonek;
position = "{600, 10}";
},
{
name = top;
position = "{547, 1529}";
},
{
name = topleft;
position = "{234, 1529}";
}
);
layerId = "ED69ACE7-BE83-49AD-8DAF-057B7A1FF3CB";
paths = (
{
closed = 1;
nodes = (
"492 536 OFFCURVE",
"529 547 OFFCURVE",
"560 575 CURVE",
"631 838 OFFCURVE",
"726 1222 OFFCURVE",
"775 1489 CURVE",
"731 1518 OFFCURVE",
"675 1529 OFFCURVE",
"614 1529 CURVE SMOOTH",
"468 1529 OFFCURVE",
"323 1457 OFFCURVE",
"277 1399 CURVE",
"282 1289 OFFCURVE",
"314 704 OFFCURVE",
"298 618 CURVE",
"324 568 OFFCURVE",
"375 536 OFFCURVE",
"449 536 CURVE SMOOTH"
);
}
);
width = 648;
}
);
leftMetricsKey = I;
rightMetricsKey = "=|";
unicode = A78B;
},
{
color = 4;
glyphname = Germandbls;
lastChange = "2022-07-29 03:12:30 +0000";
layers = (
{
layerId = "ED69ACE7-BE83-49AD-8DAF-057B7A1FF3CB";
paths = (
{
closed = 1;
nodes = (
"464 0 LINE",
"629 1297 LINE",
"648 1311 LINE",
"712 1265 OFFCURVE",
"794 1212 OFFCURVE",
"851 1187 CURVE",
"633 654 LINE",
"857 635 LINE",
"1004 815 OFFCURVE",
"1254 1168 OFFCURVE",
"1315 1380 CURVE",
"1153 1518 OFFCURVE",
"870 1601 OFFCURVE",
"710 1613 CURVE",
"532 1564 OFFCURVE",
"371 1437 OFFCURVE",
"246 1295 CURVE",
"214 1122 OFFCURVE",
"175 377 OFFCURVE",
"181 0 CURVE"
);
},
{
closed = 1;
nodes = (
"965 20 OFFCURVE",
"1082 98 OFFCURVE",
"1163 167 CURVE",
"1214 243 OFFCURVE",
"1308 406 OFFCURVE",
"1322 486 CURVE",
"1269 582 OFFCURVE",
"1038 761 OFFCURVE",
"952 814 CURVE",
"633 654 LINE {name = hr00;}",
"682 577 OFFCURVE",
"891 474 OFFCURVE",
"978 432 CURVE",
"965 381 OFFCURVE",
"931 294 OFFCURVE",
"901 234 CURVE",
"877 227 LINE",
"828 304 OFFCURVE",
"796 375 OFFCURVE",
"676 391 CURVE",
"653 360 OFFCURVE",
"527 236 OFFCURVE",
"585 54 CURVE",
"658 35 OFFCURVE",
"836 -18 OFFCURVE",
"848 -21 CURVE"
);
}
);
width = 1200;
}
);
leftKerningGroup = KO_Germandbls;
unicode = 1E9E;
},
{
color = 4;
glyphname = Schwa;
lastChange = "2022-07-29 03:12:30 +0000";
layers = (
{
anchors = (
{
name = bottom;
position = "{645, 0}";
},
{
name = bottomleft;
position = "{118, 0}";
},
{
name = bottomright;
position = "{1271, 0}";
},
{
name = center;
position = "{752, 764}";
},
{
name = ogonek;
position = "{342, 1519}";
},
{
name = top;
position = "{859, 1529}";
}
);
layerId = "ED69ACE7-BE83-49AD-8DAF-057B7A1FF3CB";
paths = (
{
closed = 1;
nodes = (
"729 -20 OFFCURVE",
"1091 93 OFFCURVE",
"1180 193 CURVE SMOOTH",
"1241 262 OFFCURVE",
"1300 820 OFFCURVE",
"1300 1324 CURVE SMOOTH",
"1300 1344 OFFCURVE",
"1300 1363 OFFCURVE",
"1299 1382 CURVE",
"1222 1462 OFFCURVE",
"955 1541 OFFCURVE",
"809 1550 CURVE",
"740 1544 OFFCURVE",
"668 1519 OFFCURVE",
"568 1471 CURVE SMOOTH",
"508 1442 OFFCURVE",
"401 1397 OFFCURVE",
"378 1341 CURVE SMOOTH",
"354 1282 OFFCURVE",
"320 1167 OFFCURVE",
"282 1016 CURVE",
"636 1016 LINE",
"650 1109 OFFCURVE",
"668 1199 OFFCURVE",
"680 1249 CURVE",
"747 1291 LINE",
"817 1275 OFFCURVE",
"908 1230 OFFCURVE",
"959 1198 CURVE",
"953 1085 OFFCURVE",
"932 909 OFFCURVE",
"909 744 CURVE SMOOTH",
"888 594 OFFCURVE",
"865 453 OFFCURVE",
"843 355 CURVE",
"770 320 LINE",
"571 411 LINE",
"576 504 OFFCURVE",
"581 564 OFFCURVE",
"593 697 CURVE",
"215 697 LINE",
"184 562 OFFCURVE",
"155 428 OFFCURVE",
"148 229 CURVE SMOOTH",
"148 221 OFFCURVE",
"147 210 OFFCURVE",
"147 208 CURVE",
"226 93 OFFCURVE",
"563 -20 OFFCURVE",
"660 -20 CURVE SMOOTH {name = hr00;}"
);
},
{
closed = 1;
nodes = (
"483 592 OFFCURVE",
"624 614 OFFCURVE",
"940 634 CURVE",
"951 796 LINE",
"799 848 OFFCURVE",
"595 868 OFFCURVE",
"404 868 CURVE SMOOTH",
"375 868 OFFCURVE",
"345 867 OFFCURVE",
"315 866 CURVE",
"277 843 OFFCURVE",
"214 758 OFFCURVE",
"214 670 CURVE SMOOTH",
"214 638 OFFCURVE",
"223 598 OFFCURVE",
"256 565 CURVE"
);
}
);
width = 1291;
}
);
leftKerningGroup = KO_Schwa;
rightKerningGroup = KO_Schwa;
unicode = 018F;
},
{
color = 4;
glyphname = T;
lastChange = "2022-07-29 03:12:30 +0000";
layers = (
{
anchors = (
{
name = bottom;
position = "{728, -21}";
},
{
name = center;
position = "{715, 765}";
},
{
name = top;
position = "{827, 1529}";
}
);
layerId = "ED69ACE7-BE83-49AD-8DAF-057B7A1FF3CB";
paths = (
{
closed = 1;
nodes = (
"1351 1174 OFFCURVE",
"1403 1480 OFFCURVE",
"1280 1549 CURVE",
"917 1438 LINE",
"493 1549 LINE",
"397 1540 OFFCURVE",
"271 1479 OFFCURVE",
"188 1393 CURVE",
"114 1288 OFFCURVE",
"136 1069 OFFCURVE",
"155 967 CURVE",
"230 933 OFFCURVE",
"305 939 OFFCURVE",
"388 966 CURVE",
"468 1247 LINE",
"575 1219 LINE",
"545 580 LINE",
"543 580 LINE",
"510 469 OFFCURVE",
"444 326 OFFCURVE",
"444 217 CURVE SMOOTH",
"444 68 OFFCURVE",
"613 -21 OFFCURVE",
"750 -21 CURVE SMOOTH",
"882 -21 OFFCURVE",
"1062 189 OFFCURVE",
"1096 283 CURVE",
"1037 415 LINE",
"802 314 LINE",
"832 584 LINE",
"970 1145 LINE",
"1037 1110 OFFCURVE",
"1148 1084 OFFCURVE",
"1206 1084 CURVE"
);
}
);
userData = {
com.typemytype.robofont.guides = (
{
angle = 90;
isGlobal = 0;
x = 585;
y = 0;
}
);
};
width = 1103;
}
);
leftKerningGroup = KO_T;
rightKerningGroup = KO_T;
unicode = 0054;
userData = {
KernOnName = T;
};
},
{
glyphname = Tbar;
lastChange = "2022-05-20 00:37:12 +0000";
layers = (
{
layerId = "ED69ACE7-BE83-49AD-8DAF-057B7A1FF3CB";
paths = (
{
closed = 1;
nodes = (
"300 1247 LINE",
"589 1174 LINE",
"775 1162 LINE",
"841 1119 OFFCURVE",
"993 1084 OFFCURVE",
"1061 1084 CURVE",
"1193 1174 OFFCURVE",
"1202 1480 OFFCURVE",
"1070 1549 CURVE",
"722 1438 LINE",
"283 1549 LINE",
"188 1540 OFFCURVE",
"70 1480 OFFCURVE",
"-1 1393 CURVE",
"-60 1288 OFFCURVE",
"-8 1070 OFFCURVE",
"26 967 CURVE",
"105 933 OFFCURVE",
"180 939 OFFCURVE",
"259 966 CURVE"
);
},
{
closed = 1;
nodes = (
"899 -21 OFFCURVE",
"1050 189 OFFCURVE",
"1071 283 CURVE",
"993 415 LINE",
"773 314 LINE",
"754 598 LINE {name = hr04;}",
"487 580 LINE {name = hr05;}",
"466 455 OFFCURVE",
"417 344 OFFCURVE",
"427 227 CURVE SMOOTH",
"441 72 OFFCURVE",
"627 -21 OFFCURVE",
"768 -21 CURVE SMOOTH"
);
},
{
closed = 1;
nodes = (
"988 677 OFFCURVE",
"1025 790 OFFCURVE",
"1002 886 CURVE",
"308 837 LINE",
"262 759 OFFCURVE",
"240 698 OFFCURVE",
"252 585 CURVE {name = hr01;}",
"629 571 OFFCURVE",
"850 564 OFFCURVE",
"934 571 CURVE"
);
},
{
closed = 1;
nodes = (
"754 580 LINE {name = hr02;}",
"820 1204 LINE",
"720 1255 OFFCURVE",
"638 1318 OFFCURVE",
"427 1245 CURVE {name = hr03;}",
"489 579 LINE"
);
}
);
width = 1103;
}
);
unicode = 0166;
},
{
color = 4;
glyphname = U;
lastChange = "2022-07-29 03:12:30 +0000";
layers = (
{
anchors = (
{
name = bottom;
position = "{636, 0}";
},
{
name = ogonek;
position = "{1081, 10}";
},
{
name = top;
position = "{851, 1529}";
},
{
name = topright;
position = "{1467, 1529}";
}
);
layerId = "ED69ACE7-BE83-49AD-8DAF-057B7A1FF3CB";
paths = (
{
closed = 1;
nodes = (
"771 -14 OFFCURVE",
"843 12 OFFCURVE",
"939 58 CURVE SMOOTH",
"1004 89 OFFCURVE",
"1114 132 OFFCURVE",
"1138 190 CURVE SMOOTH",
"1197 332 OFFCURVE",
"1353 953 OFFCURVE",
"1363 1236 CURVE SMOOTH",
"1364 1251 OFFCURVE",
"1364 1251 OFFCURVE",
"1364 1257 CURVE SMOOTH",
"1364 1287 OFFCURVE",
"1365 1322 OFFCURVE",
"1365 1409 CURVE",
"1258 1475 OFFCURVE",
"1114 1539 OFFCURVE",
"1047 1549 CURVE",
"904 1496 OFFCURVE",
"818 1365 OFFCURVE",
"790 1247 CURVE",
"947 1201 LINE",
"942 1073 OFFCURVE",
"906 748 OFFCURVE",
"883 589 CURVE SMOOTH",
"868 483 OFFCURVE",
"838 295 OFFCURVE",
"820 228 CURVE",
"726 240 OFFCURVE",
"645 271 OFFCURVE",
"582 311 CURVE",
"587 424 OFFCURVE",
"608 600 OFFCURVE",
"634 786 CURVE SMOOTH",
"689 1174 LINE",
"738 1345 LINE",
"738 1346 LINE {name = hr00;}",
"616 1450 OFFCURVE",
"492 1537 OFFCURVE",
"399 1549 CURVE",
"251 1479 OFFCURVE",
"194 1348 OFFCURVE",
"167 1226 CURVE",
"300 1179 LINE",
"299 1172 OFFCURVE",
"231 559 OFFCURVE",
"231 195 CURVE SMOOTH",
"231 177 OFFCURVE",
"231 161 OFFCURVE",
"231 147 CURVE",
"307 68 OFFCURVE",
"549 -12 OFFCURVE",
"697 -21 CURVE"
);
}
);
width = 1272;
}
);
leftKerningGroup = KO_U;
rightKerningGroup = KO_U;
unicode = 0055;
userData = {
KernOnName = U;
};
},
{
glyphname = Ubar;
lastChange = "2022-07-28 04:39:10 +0000";
layers = (
{
anchors = (
{
name = bottom;
position = "{638, 0}";
},
{
name = ogonek;
position = "{1147, 10}";
},
{
name = top;
position = "{638, 1529}";
},
{
name = topright;
position = "{1254, 1529}";
}
);
layerId = "ED69ACE7-BE83-49AD-8DAF-057B7A1FF3CB";
paths = (
{
closed = 1;
nodes = (
"279 674 OFFCURVE",
"1211 681 OFFCURVE",
"1273 687 CURVE",
"1312 776 OFFCURVE",
"1339 870 OFFCURVE",
"1322 950 CURVE",
"44 896 LINE",
"10 831 OFFCURVE",
"-6 780 OFFCURVE",
"3 686 CURVE {name = hr00;}"
);
},
{
closed = 1;
nodes = (
"774 -14 OFFCURVE",
"840 11 OFFCURVE",
"933 58 CURVE SMOOTH",
"995 90 OFFCURVE",
"1097 132 OFFCURVE",
"1113 190 CURVE SMOOTH",
"1151 325 OFFCURVE",
"1201 841 OFFCURVE",
"1201 1060 CURVE SMOOTH",
"1201 1149 OFFCURVE",
"1196 1203 OFFCURVE",
"1190 1257 CURVE SMOOTH",
"1184 1306 OFFCURVE",
"1181 1326 OFFCURVE",
"1170 1409 CURVE",
"1049 1477 OFFCURVE",
"900 1539 OFFCURVE",
"832 1549 CURVE",
"697 1496 OFFCURVE",
"628 1367 OFFCURVE",
"617 1247 CURVE",
"781 1201 LINE",
"793 1073 OFFCURVE",
"802 781 OFFCURVE",
"802 586 CURVE SMOOTH",
"802 466 OFFCURVE",
"798 302 OFFCURVE",
"790 228 CURVE",
"679 242 OFFCURVE",
"595 279 OFFCURVE",
"540 311 CURVE",
"529 424 OFFCURVE",
"525 612 OFFCURVE",
"525 786 CURVE SMOOTH",
"526 1174 LINE",
"551 1345 LINE",
"551 1346 LINE {name = hr00;}",
"412 1452 OFFCURVE",
"278 1537 OFFCURVE",
"184 1549 CURVE",
"44 1478 OFFCURVE",
"6 1346 OFFCURVE",
"-3 1226 CURVE",
"137 1179 LINE",
"135 1143 OFFCURVE",
"135 1108 OFFCURVE",
"135 1081 CURVE SMOOTH",
"135 879 OFFCURVE",
"175 386 OFFCURVE",
"212 147 CURVE",
"301 67 OFFCURVE",
"553 -12 OFFCURVE",
"702 -21 CURVE"
);
}
);
width = 1272;
}
);
widthMetricsKey = U;
rightMetricsKey = T;
unicode = 0244;
},
{
color = 4;
glyphname = V;
lastChange = "2022-07-29 03:12:30 +0000";
layers = (
{
layerId = "ED69ACE7-BE83-49AD-8DAF-057B7A1FF3CB";
paths = (
{
closed = 1;
nodes = (
"739 -22 OFFCURVE",
"838 1 OFFCURVE",
"893 41 CURVE",
"890 137 OFFCURVE",
"879 202 OFFCURVE",
"863 259 CURVE",
"1353 1127 LINE",
"1364 1279 OFFCURVE",
"1319 1461 OFFCURVE",
"1220 1551 CURVE",
"1074 1533 OFFCURVE",
"887 1457 OFFCURVE",
"806 1302 CURVE",
"844 1192 OFFCURVE",
"903 1143 OFFCURVE",
"965 1082 CURVE",
"693 343 LINE",
"712 671 OFFCURVE",
"631 1410 OFFCURVE",
"608 1472 CURVE {name = hr00;}",
"562 1512 OFFCURVE",
"500 1529 OFFCURVE",
"438 1529 CURVE SMOOTH",
"304 1529 OFFCURVE",
"166 1441 OFFCURVE",
"129 1287 CURVE",
"273 1065 LINE",
"430 282 LINE",
"402 227 OFFCURVE",
"368 149 OFFCURVE",
"347 46 CURVE",
"393 3 OFFCURVE",
"512 -22 OFFCURVE",
"627 -22 CURVE SMOOTH"
);
}
);
width = 1211;
}
);
leftKerningGroup = KO_V;
rightKerningGroup = KO_V;
unicode = 0056;
userData = {
KernOnName = V;
};
},
{
color = 4;
glyphname = Vturned;
lastChange = "2022-07-29 03:12:30 +0000";
layers = (
{
layerId = "ED69ACE7-BE83-49AD-8DAF-057B7A1FF3CB";
paths = (
{
closed = 1;
nodes = (
"351 -4 OFFCURVE",
"537 73 OFFCURVE",
"620 227 CURVE",
"581 337 OFFCURVE",
"520 389 OFFCURVE",
"460 447 CURVE",
"731 1186 LINE",
"712 850 OFFCURVE",
"795 114 OFFCURVE",
"816 57 CURVE {name = hr00;}",
"860 20 OFFCURVE",
"918 0 OFFCURVE",
"986 0 CURVE SMOOTH",
"1117 0 OFFCURVE",
"1258 85 OFFCURVE",
"1295 242 CURVE",
"1152 464 LINE",
"995 1247 LINE",
"1027 1312 OFFCURVE",
"1057 1383 OFFCURVE",
"1079 1483 CURVE",
"1031 1526 OFFCURVE",
"914 1551 OFFCURVE",
"797 1551 CURVE SMOOTH",
"695 1551 OFFCURVE",
"591 1531 OFFCURVE",
"531 1488 CURVE",
"534 1399 OFFCURVE",
"545 1328 OFFCURVE",
"561 1270 CURVE",
"71 402 LINE",
"61 250 OFFCURVE",
"105 69 OFFCURVE",
"204 -22 CURVE"
);
}
);
width = 1211;
}
);
unicode = 0245;
},
{
color = 4;
glyphname = W;
lastChange = "2022-07-29 03:12:30 +0000";
layers = (
{
anchors = (
{
name = bottom;
position = "{920, 0}";
},
{
name = top;
position = "{1133, 1529}";
}
);
layerId = "ED69ACE7-BE83-49AD-8DAF-057B7A1FF3CB";
paths = (
{
closed = 1;
nodes = (
"833 163 OFFCURVE",
"822 220 OFFCURVE",
"805 272 CURVE",
"1008 790 LINE",
"1081 298 LINE",
"1045 239 OFFCURVE",
"1010 173 OFFCURVE",
"986 80 CURVE",
"1074 -18 OFFCURVE",
"1422 -26 OFFCURVE",
"1559 76 CURVE",
"1556 162 OFFCURVE",
"1543 222 OFFCURVE",
"1529 269 CURVE",
"1957 1165 LINE",
"1973 1317 OFFCURVE",
"1933 1460 OFFCURVE",
"1837 1550 CURVE",
"1696 1533 OFFCURVE",
"1485 1437 OFFCURVE",
"1396 1280 CURVE {name = hr00;}",
"1432 1169 OFFCURVE",
"1506 1118 OFFCURVE",
"1569 1056 CURVE",
"1374 373 LINE",
"1357 373 LINE",
"1380 659 OFFCURVE",
"1289 1070 OFFCURVE",
"1287 1135 CURVE",
"1287 1135 OFFCURVE",
"1287 1136 OFFCURVE",
"1288 1137 CURVE",
"1305 1290 OFFCURVE",
"1271 1470 OFFCURVE",
"1197 1547 CURVE",
"1050 1529 OFFCURVE",
"871 1440 OFFCURVE",
"756 1286 CURVE",
"790 1175 OFFCURVE",
"839 1118 OFFCURVE",
"896 1060 CURVE",
"641 373 LINE",
"634 373 LINE",
"657 672 OFFCURVE",
"644 1421 OFFCURVE",
"625 1480 CURVE",
"624 1480 LINE",
"588 1531 OFFCURVE",
"534 1552 OFFCURVE",
"470 1550 CURVE SMOOTH",
"344 1547 OFFCURVE",
"180 1430 OFFCURVE",
"116 1327 CURVE",
"257 1097 LINE",
"259 1086 LINE",
"354 291 LINE",
"320 236 OFFCURVE",
"286 167 OFFCURVE",
"263 80 CURVE",
"351 -18 OFFCURVE",
"698 -26 OFFCURVE",
"836 76 CURVE"
);
}
);
width = 1839;
}
);
leftKerningGroup = KO_W;
rightKerningGroup = KO_W;
unicode = 0057;
},
{
color = 4;
glyphname = X;
lastChange = "2022-07-29 03:12:30 +0000";
layers = (
{
anchors = (
{
name = bottom;
position = "{667, 0}";
},
{
name = top;
position = "{881, 1529}";
}
);
layerId = "ED69ACE7-BE83-49AD-8DAF-057B7A1FF3CB";
paths = (
{
closed = 1;
nodes = (
"1058 -20 OFFCURVE",
"1140 16 OFFCURVE",
"1191 90 CURVE SMOOTH",
"1255 181 OFFCURVE",
"1304 286 OFFCURVE",
"1340 405 CURVE",
"1220 505 LINE",
"1061 379 LINE",
"882 786 LINE",
"1089 1126 LINE",
"1176 940 LINE",
"1288 964 OFFCURVE",
"1378 1013 OFFCURVE",
"1450 1097 CURVE",
"1469 1259 OFFCURVE",
"1392 1430 OFFCURVE",
"1296 1529 CURVE",
"1173 1523 OFFCURVE",
"1052 1463 OFFCURVE",
"996 1408 CURVE SMOOTH",
"965 1377 OFFCURVE",
"894 1183 OFFCURVE",
"827 936 CURVE",
"835 1043 OFFCURVE",
"836 1200 OFFCURVE",
"784 1361 CURVE SMOOTH",
"748 1474 OFFCURVE",
"679 1527 OFFCURVE",
"564 1527 CURVE SMOOTH",
"526 1527 OFFCURVE",
"474 1521 OFFCURVE",
"414 1505 CURVE",
"305 1450 OFFCURVE",
"215 1267 OFFCURVE",
"182 1157 CURVE",
"300 1023 LINE",
"468 1120 LINE",
"603 746 LINE",
"435 433 LINE",
"314 575 LINE",
"223 544 OFFCURVE",
"151 499 OFFCURVE",
"85 421 CURVE",
"85 253 OFFCURVE",
"167 -19 OFFCURVE",
"285 -19 CURVE SMOOTH {name = hr03;}",
"394 -19 OFFCURVE",
"490 125 OFFCURVE",
"563 271 CURVE SMOOTH",
"618 379 OFFCURVE",
"686 558 OFFCURVE",
"688 562 CURVE",
"694 560 LINE {name = hr01;}",
"688 440 OFFCURVE",
"697 238 OFFCURVE",
"761 83 CURVE SMOOTH",
"790 13 OFFCURVE",
"871 -20 OFFCURVE",
"951 -20 CURVE SMOOTH {name = hr02;}"
);
}
);
width = 1316;
}
);
leftKerningGroup = KO_X;
rightKerningGroup = KO_X;
unicode = 0058;
userData = {
KernOnName = X;
};
},
{
color = 4;
glyphname = Y;
lastChange = "2022-07-29 03:12:30 +0000";
layers = (
{
anchors = (
{
name = bottom;
position = "{1127, 561}";
},
{
name = top;
position = "{797, 1529}";
},
{
name = topleft;
position = "{233, 1529}";
}
);
layerId = "ED69ACE7-BE83-49AD-8DAF-057B7A1FF3CB";
paths = (
{
closed = 1;
nodes = (
"697 -20 OFFCURVE",
"749 -7 OFFCURVE",
"789 7 CURVE",
"761 498 LINE",
"908 574 LINE",
"1075 737 OFFCURVE",
"1252 1024 OFFCURVE",
"1327 1165 CURVE",
"1343 1317 OFFCURVE",
"1312 1459 OFFCURVE",
"1216 1549 CURVE",
"1076 1532 OFFCURVE",
"882 1465 OFFCURVE",
"793 1308 CURVE",
"826 1206 OFFCURVE",
"866 1146 OFFCURVE",
"933 1078 CURVE",
"719 640 LINE",
"674 640 LINE",
"658 1480 LINE",
"611 1517 OFFCURVE",
"549 1530 OFFCURVE",
"478 1529 CURVE SMOOTH",
"373 1527 OFFCURVE",
"242 1495 OFFCURVE",
"177 1269 CURVE {name = hr00;}",
"277 1131 LINE",
"348 621 LINE",
"481 505 LINE",
"458 420 OFFCURVE",
"391 186 OFFCURVE",
"391 107 CURVE SMOOTH",
"391 -23 OFFCURVE",
"537 -20 OFFCURVE",
"670 -20 CURVE SMOOTH"
);
}
);
width = 1168;
}
);
leftKerningGroup = KO_Y;
rightKerningGroup = KO_Y;
unicode = 0059;
userData = {
KernOnName = Y;
};
},
{
color = 4;
glyphname = Z;
lastChange = "2022-07-29 03:12:30 +0000";
layers = (
{
anchors = (
{
name = bottom;
position = "{541, 0}";
},
{
name = center;
position = "{710, 765}";
},
{
name = top;
position = "{925, 1529}";
}
);
layerId = "ED69ACE7-BE83-49AD-8DAF-057B7A1FF3CB";
paths = (
{
closed = 1;
nodes = (
"333 -20 OFFCURVE",
"443 123 OFFCURVE",
"491 249 CURVE",
"519 226 OFFCURVE",
"585 191 OFFCURVE",
"599 419 CURVE {name = hr00;}",
"768 609 OFFCURVE",
"1085 1012 OFFCURVE",
"1168 1120 CURVE",
"1290 1116 LINE",
"1386 1274 OFFCURVE",
"1393 1512 OFFCURVE",
"1247 1549 CURVE",
"1168 1531 OFFCURVE",
"1107 1496 OFFCURVE",
"1025 1423 CURVE",
"885 1477 OFFCURVE",
"716 1529 OFFCURVE",
"573 1549 CURVE",
"531 1551 OFFCURVE",
"293 1465 OFFCURVE",
"254 1351 CURVE",
"200 1186 OFFCURVE",
"241 928 OFFCURVE",
"304 847 CURVE",
"495 887 LINE",
"582 1190 LINE",
"814 1154 LINE",
"353 469 LINE",
"318 490 OFFCURVE",
"274 503 OFFCURVE",
"240 511 CURVE",
"199 491 OFFCURVE",
"135 439 OFFCURVE",
"83 381 CURVE",
"55 256 OFFCURVE",
"113 42 OFFCURVE",
"203 -20 CURVE"
);
},
{
closed = 1;
nodes = (
"1103 -20 OFFCURVE",
"1224 191 OFFCURVE",
"1224 530 CURVE SMOOTH",
"1224 572 OFFCURVE",
"1221 604 OFFCURVE",
"1217 625 CURVE",
"1035 649 LINE",
"900 360 LINE",
"587 421 LINE",
"417 282 LINE",
"526 163 OFFCURVE",
"736 -20 OFFCURVE",
"909 -20 CURVE SMOOTH"
);
}
);
width = 1208;
}
);
leftKerningGroup = KO_Z;
rightKerningGroup = KO_Z;
unicode = 005A;
userData = {
KernOnName = Z;
};
},
{
color = 4;
glyphname = a;
lastChange = "2022-07-29 03:12:30 +0000";
layers = (
{
anchors = (
{
name = bottom;
position = "{601, 0}";
},
{
name = ogonek;
position = "{1172, 10}";
},
{
name = top;
position = "{766, 1182}";
}
);
layerId = "ED69ACE7-BE83-49AD-8DAF-057B7A1FF3CB";
paths = (
{
closed = 1;
nodes = (
"1029 -19 OFFCURVE",
"1147 117 OFFCURVE",
"1240 278 CURVE",
"1172 399 LINE",
"986 307 LINE {name = hr01;}",
"1116 537 OFFCURVE",
"1261 997 OFFCURVE",
"1263 1060 CURVE",
"1204 1144 OFFCURVE",
"1124 1181 OFFCURVE",
"1003 1181 CURVE SMOOTH {name = hr02;}",
"927 1181 OFFCURVE",
"854 1167 OFFCURVE",
"831 1153 CURVE",
"826 1121 OFFCURVE",
"819 1025 OFFCURVE",
"805 907 CURVE",
"757 1013 OFFCURVE",
"697 1128 OFFCURVE",
"600 1203 CURVE {name = hr03;}",
"561 1198 OFFCURVE",
"355 1161 OFFCURVE",
"210 1004 CURVE",
"187 977 OFFCURVE",
"177 962 OFFCURVE",
"177 942 CURVE SMOOTH",
"177 940 OFFCURVE",
"176 928 OFFCURVE",
"182 895 CURVE SMOOTH",
"193 829 OFFCURVE",
"197 750 OFFCURVE",
"197 658 CURVE SMOOTH",
"197 190 OFFCURVE",
"150 467 OFFCURVE",
"150 140 CURVE SMOOTH",
"150 90 OFFCURVE",
"225 64 OFFCURVE",
"267 30 CURVE SMOOTH",
"300 4 OFFCURVE",
"334 -22 OFFCURVE",
"371 -20 CURVE SMOOTH",
"389 -19 OFFCURVE",
"408 -12 OFFCURVE",
"430 4 CURVE",
"536 86 OFFCURVE",
"685 358 OFFCURVE",
"759 496 CURVE",
"773 489 LINE",
"745 393 OFFCURVE",
"730 340 OFFCURVE",
"702 221 CURVE SMOOTH",
"681 131 OFFCURVE",
"706 112 OFFCURVE",
"732 79 CURVE SMOOTH {name = hr04;}",
"779 20 OFFCURVE",
"850 -22 OFFCURVE",
"912 -21 CURVE SMOOTH"
);
},
{
closed = 1;
nodes = (
"480 352 LINE",
"521 473 OFFCURVE",
"551 591 OFFCURVE",
"565 712 CURVE",
"580 819 LINE",
"641 804 OFFCURVE",
"710 793 OFFCURVE",
"787 773 CURVE",
"776 697 OFFCURVE",
"786 748 OFFCURVE",
"773 693 CURVE",
"731 623 OFFCURVE",
"592 412 OFFCURVE",
"508 338 CURVE"
);
}
);
userData = {
com.typemytype.robofont.guides = (
{
angle = 0;
isGlobal = 0;
x = 0;
y = 1448;
},
{
angle = 0;
isGlobal = 0;
x = 0;
y = 1185;
}
);
};
width = 1201;
}
);
leftKerningGroup = KO_a;
rightKerningGroup = KO_a;
unicode = 0061;
userData = {
KernOnName = a;
};
},
{
color = 4;
glyphname = ae;
lastChange = "2022-07-29 03:12:30 +0000";
layers = (
{
anchors = (
{
name = bottom;
position = "{767, 0}";
},
{
name = top;
position = "{932, 1182}";
}
);
layerId = "ED69ACE7-BE83-49AD-8DAF-057B7A1FF3CB";
paths = (
{
closed = 1;
nodes = (
"463 -20 OFFCURVE",
"661 324 OFFCURVE",
"752 496 CURVE",
"767 492 LINE",
"767 413 OFFCURVE",
"744 313 OFFCURVE",
"726 228 CURVE SMOOTH",
"718 191 OFFCURVE",
"722 171 OFFCURVE",
"813 82 CURVE SMOOTH",
"873 23 OFFCURVE",
"908 -20 OFFCURVE",
"953 -20 CURVE SMOOTH",
"1131 -20 OFFCURVE",
"1414 192 OFFCURVE",
"1509 299 CURVE",
"1443 438 LINE",
"1309 378 OFFCURVE",
"1167 297 OFFCURVE",
"1096 284 CURVE",
"1067 284 LINE",
"1284 467 OFFCURVE",
"1546 719 OFFCURVE",
"1579 769 CURVE SMOOTH {name = hr00;}",
"1605 809 OFFCURVE",
"1624 896 OFFCURVE",
"1624 968 CURVE SMOOTH",
"1624 1018 OFFCURVE",
"1612 1032 OFFCURVE",
"1596 1038 CURVE SMOOTH",
"1536 1061 OFFCURVE",
"1492 1075 OFFCURVE",
"1432 1110 CURVE SMOOTH",
"1361 1151 OFFCURVE",
"1286 1224 OFFCURVE",
"1233 1224 CURVE SMOOTH",
"1158 1224 OFFCURVE",
"1028 1164 OFFCURVE",
"961 1128 CURVE SMOOTH",
"844 1066 OFFCURVE",
"822 965 OFFCURVE",
"798 907 CURVE",
"757 995 OFFCURVE",
"681 1143 OFFCURVE",
"604 1203 CURVE",
"547 1196 OFFCURVE",
"347 1151 OFFCURVE",
"213 1006 CURVE SMOOTH",
"183 974 OFFCURVE",
"177 958 OFFCURVE",
"177 935 CURVE SMOOTH",
"177 933 OFFCURVE",
"178 912 OFFCURVE",
"181 894 CURVE SMOOTH",
"190 834 OFFCURVE",
"193 775 OFFCURVE",
"193 700 CURVE SMOOTH",
"193 193 OFFCURVE",
"136 537 OFFCURVE",
"136 139 CURVE SMOOTH",
"136 90 OFFCURVE",
"209 64 OFFCURVE",
"251 30 CURVE SMOOTH",
"287 1 OFFCURVE",
"318 -20 OFFCURVE",
"354 -20 CURVE SMOOTH"
);
},
{
closed = 1;
nodes = (
"469 352 LINE",
"511 470 OFFCURVE",
"544 586 OFFCURVE",
"562 712 CURVE SMOOTH",
"577 819 LINE",
"644 812 OFFCURVE",
"690 797 OFFCURVE",
"780 773 CURVE",
"773 720 LINE SMOOTH",
"772 711 OFFCURVE",
"772 717 OFFCURVE",
"767 693 CURVE",
"721 618 OFFCURVE",
"581 411 OFFCURVE",
"497 338 CURVE"
);
},
{
closed = 1;
nodes = (
"1068 419 OFFCURVE",
"1068 417 OFFCURVE",
"1069 421 CURVE SMOOTH",
"1095 515 OFFCURVE",
"1144 795 OFFCURVE",
"1152 851 CURVE",
"1243 821 OFFCURVE",
"1300 803 OFFCURVE",
"1338 794 CURVE",
"1261 658 OFFCURVE",
"1125 489 OFFCURVE",
"1068 417 CURVE"
);
}
);
width = 1533;
}
);
leftKerningGroup = KO_g;
rightKerningGroup = KO_e;
unicode = 00E6;
},
{
color = 4;
glyphname = b;
lastChange = "2022-07-29 03:12:30 +0000";
layers = (
{
anchors = (
{
name = bottom;
position = "{533, 0}";
},
{
name = top;
position = "{993, 1182}";
}
);
layerId = "ED69ACE7-BE83-49AD-8DAF-057B7A1FF3CB";
paths = (
{
closed = 1;
nodes = (
"716 -19 OFFCURVE",
"832 -9 OFFCURVE",
"881 23 CURVE",
"998 258 OFFCURVE",
"1161 724 OFFCURVE",
"1213 1038 CURVE",
"1107 1140 OFFCURVE",
"949 1183 OFFCURVE",
"875 1182 CURVE SMOOTH",
"816 1181 OFFCURVE",
"784 1171 OFFCURVE",
"762 1165 CURVE",
"449 517 LINE",
"436 523 LINE",
"198 370 LINE",
"198 369 OFFCURVE",
"197 369 OFFCURVE",
"197 368 CURVE",
"199 368 LINE",
"162 275 OFFCURVE",
"146 234 OFFCURVE",
"119 163 CURVE SMOOTH {name = hr00;}",
"97 104 OFFCURVE",
"107 97 OFFCURVE",
"141 77 CURVE SMOOTH",
"261 7 OFFCURVE",
"487 -22 OFFCURVE",
"637 -20 CURVE SMOOTH"
);
},
{
closed = 1;
nodes = (
"619 218 OFFCURVE",
"511 253 OFFCURVE",
"462 300 CURVE",
"504 376 OFFCURVE",
"729 737 OFFCURVE",
"758 785 CURVE",
"784 777 LINE",
"765 655 OFFCURVE",
"702 373 OFFCURVE",
"664 215 CURVE"
);
},
{
closed = 1;
nodes = (
"480 360 LINE",
"447 516 LINE",
"439 518 LINE",
"535 880 OFFCURVE",
"640 1228 OFFCURVE",
"705 1566 CURVE",
"668 1600 OFFCURVE",
"618 1613 OFFCURVE",
"560 1613 CURVE SMOOTH",
"439 1613 OFFCURVE",
"295 1548 OFFCURVE",
"217 1466 CURVE",
"201 1427 OFFCURVE",
"161 489 OFFCURVE",
"198 370 CURVE",
"198 369 OFFCURVE",
"197 369 OFFCURVE",
"197 368 CURVE",
"481 352 LINE"
);
}
);
width = 1113;
}
);
leftKerningGroup = KO_b;
rightKerningGroup = KO_b;
unicode = 0062;
userData = {
KernOnName = b;
};
},
{
color = 4;
glyphname = c;
lastChange = "2022-07-29 03:12:30 +0000";
layers = (
{
anchors = (
{
name = bottom;
position = "{451, 0}";
},
{
name = top;
position = "{617, 1182}";
}
);
layerId = "ED69ACE7-BE83-49AD-8DAF-057B7A1FF3CB";
paths = (
{
closed = 1;
nodes = (
"580 -20 OFFCURVE",
"856 204 OFFCURVE",
"915 290 CURVE",
"835 443 LINE",
"713 382 OFFCURVE",
"543 304 OFFCURVE",
"495 284 CURVE",
"478 300 LINE",
"539 475 OFFCURVE",
"581 740 OFFCURVE",
"587 889 CURVE",
"636 807 OFFCURVE",
"691 693 OFFCURVE",
"785 633 CURVE",
"838 648 OFFCURVE",
"1028 828 OFFCURVE",
"1026 1059 CURVE",
"846 1107 LINE",
"799 1130 OFFCURVE",
"690 1204 OFFCURVE",
"630 1204 CURVE SMOOTH",
"566 1204 OFFCURVE",
"437 1143 OFFCURVE",
"378 1111 CURVE SMOOTH",
"326 1082 OFFCURVE",
"175 983 OFFCURVE",
"175 923 CURVE SMOOTH",
"175 911 OFFCURVE",
"178 895 OFFCURVE",
"183 869 CURVE SMOOTH",
"191 830 OFFCURVE",
"194 772 OFFCURVE",
"194 708 CURVE SMOOTH {name = hr00;}",
"194 212 OFFCURVE",
"82 227 OFFCURVE",
"185 127 CURVE SMOOTH",
"222 91 OFFCURVE",
"342 -20 OFFCURVE",
"423 -20 CURVE SMOOTH"
);
}
);
userData = {
com.typemytype.robofont.guides = (
{
angle = 0;
isGlobal = 0;
x = 0;
y = 962;
}
);
};
width = 902;
}
);
leftKerningGroup = KO_c;
rightKerningGroup = KO_c;
unicode = 0063;
userData = {
KernOnName = c;
};
},
{
glyphname = d;
lastChange = "2022-07-29 02:44:06 +0000";
layers = (
{
anchors = (
{
name = bottom;
position = "{601, 0}";
},
{
name = center;
position = "{601, 591}";
},
{
name = top;
position = "{305, 1182}";
},
{
name = topright;
position = "{1181, 1182}";
}
);
layerId = "ED69ACE7-BE83-49AD-8DAF-057B7A1FF3CB";
paths = (
{
closed = 1;
nodes = (
"393 -19 OFFCURVE",
"411 -11 OFFCURVE",
"430 5 CURVE SMOOTH",
"525 87 OFFCURVE",
"639 356 OFFCURVE",
"692 497 CURVE",
"697 495 LINE",
"691 403 OFFCURVE",
"686 322 OFFCURVE",
"678 221 CURVE SMOOTH",
"670 132 OFFCURVE",
"705 107 OFFCURVE",
"730 80 CURVE SMOOTH",
"786 21 OFFCURVE",
"865 -21 OFFCURVE",
"927 -20 CURVE SMOOTH",
"1043 -18 OFFCURVE",
"1140 119 OFFCURVE",
"1207 279 CURVE",
"1119 400 LINE",
"948 308 LINE {name = hr00;}",
"1035 599 OFFCURVE",
"1078 1463 OFFCURVE",
"1069 1524 CURVE",
"998 1590 OFFCURVE",
"895 1613 OFFCURVE",
"803 1613 CURVE SMOOTH",
"707 1613 OFFCURVE",
"623 1587 OFFCURVE",
"600 1559 CURVE",
"603 1519 OFFCURVE",
"661 1108 OFFCURVE",
"678 910 CURVE",
"673 908 LINE",
"611 1011 OFFCURVE",
"540 1130 OFFCURVE",
"432 1204 CURVE",
"393 1199 OFFCURVE",
"192 1162 OFFCURVE",
"71 1005 CURVE SMOOTH",
"52 980 OFFCURVE",
"46 966 OFFCURVE",
"46 950 CURVE SMOOTH",
"46 937 OFFCURVE",
"50 922 OFFCURVE",
"58 895 CURVE SMOOTH",
"134 634 OFFCURVE",
"127 372 OFFCURVE",
"131 147 CURVE SMOOTH",
"132 94 OFFCURVE",
"214 66 OFFCURVE",
"264 31 CURVE SMOOTH",
"303 3 OFFCURVE",
"339 -22 OFFCURVE",
"375 -20 CURVE SMOOTH"
);
},
{
closed = 1;
nodes = (
"431 353 LINE",
"455 474 OFFCURVE",
"469 591 OFFCURVE",
"467 713 CURVE SMOOTH",
"465 820 LINE",
"529 805 OFFCURVE",
"596 794 OFFCURVE",
"676 774 CURVE",
"677 690 OFFCURVE",
"678 734 OFFCURVE",
"675 694 CURVE",
"643 624 OFFCURVE",
"535 412 OFFCURVE",
"461 339 CURVE"
);
}
);
userData = {
com.typemytype.robofont.guides = (
{
angle = 0;
isGlobal = 0;
x = 0;
y = 1929;
},
{
angle = 90;
isGlobal = 0;
x = 380;
y = 0;
}
);
};
width = 1201;
}
);
leftKerningGroup = KO_d;
rightKerningGroup = KO_d;
unicode = 0064;
userData = {
KernOnName = d;
};
},
{
glyphname = eth;
lastChange = "2022-05-20 00:37:12 +0000";
layers = (
{
layerId = "ED69ACE7-BE83-49AD-8DAF-057B7A1FF3CB";
paths = (
{
closed = 1;
nodes = (
"627 -13 OFFCURVE",
"687 9 OFFCURVE",
"772 52 CURVE SMOOTH",
"829 81 OFFCURVE",
"911 130 OFFCURVE",
"936 160 CURVE",
"970 284 OFFCURVE",
"1013 560 OFFCURVE",
"1013 759 CURVE",
"996 824 LINE",
"908 929 OFFCURVE",
"653 998 OFFCURVE",
"486 1014 CURVE {name = hr00;}",
"384 1000 OFFCURVE",
"139 910 OFFCURVE",
"80 836 CURVE",
"67 752 OFFCURVE",
"62 654 OFFCURVE",
"62 580 CURVE SMOOTH",
"62 411 OFFCURVE",
"90 266 OFFCURVE",
"126 136 CURVE",
"218 63 OFFCURVE",
"429 -8 OFFCURVE",
"562 -20 CURVE"
);
},
{
closed = 1;
nodes = (
"521 249 OFFCURVE",
"469 275 OFFCURVE",
"428 302 CURVE",
"420 366 OFFCURVE",
"417 451 OFFCURVE",
"417 506 CURVE SMOOTH",
"417 555 OFFCURVE",
"420 604 OFFCURVE",
"426 678 CURVE",
"630 852 LINE",
"641 738 OFFCURVE",
"648 611 OFFCURVE",
"648 489 CURVE SMOOTH",
"648 412 OFFCURVE",
"645 336 OFFCURVE",
"639 268 CURVE",
"584 230 LINE"
);
},
{
closed = 1;
nodes = (
"621 1059 LINE",
"564 956 LINE",
"564 852 LINE",
"836 786 LINE"
);
},
{
closed = 1;
nodes = (
"1013 759 LINE",
"1013 777 OFFCURVE",
"1013 797 OFFCURVE",
"1013 819 CURVE SMOOTH",
"1013 897 OFFCURVE",
"1010 989 OFFCURVE",
"994 1058 CURVE",
"789 1273 OFFCURVE",
"492 1511 OFFCURVE",
"156 1613 CURVE",
"106 1591 OFFCURVE",
"39 1470 OFFCURVE",
"39 1419 CURVE",
"373 1215 LINE",
"538 1083 OFFCURVE",
"669 932 OFFCURVE",
"783 743 CURVE"
);
},
{
closed = 1;
nodes = (
"739 1538 LINE",
"702 1629 OFFCURVE",
"578 1664 OFFCURVE",
"519 1671 CURVE",
"105 1168 LINE",
"130 1097 OFFCURVE",
"211 1070 OFFCURVE",
"278 1059 CURVE"
);
}
);
width = 1073;
}
);
rightKerningGroup = KO_eth;
unicode = 00F0;
},
{
glyphname = dcroat;
lastChange = "2022-05-20 00:37:12 +0000";
layers = (
{
layerId = "ED69ACE7-BE83-49AD-8DAF-057B7A1FF3CB";
paths = (
{
closed = 1;
nodes = (
"392 -19 OFFCURVE",
"410 -11 OFFCURVE",
"429 5 CURVE SMOOTH",
"524 87 OFFCURVE",
"638 356 OFFCURVE",
"691 497 CURVE",
"696 495 LINE",
"690 403 OFFCURVE",
"685 322 OFFCURVE",
"677 221 CURVE SMOOTH",
"669 132 OFFCURVE",
"704 107 OFFCURVE",
"729 80 CURVE SMOOTH",
"785 21 OFFCURVE",
"864 -21 OFFCURVE",
"926 -20 CURVE SMOOTH",
"1042 -18 OFFCURVE",
"1139 119 OFFCURVE",
"1206 279 CURVE",
"1118 400 LINE",
"947 308 LINE",
"1034 599 OFFCURVE",
"1057 1463 OFFCURVE",
"1048 1524 CURVE",
"977 1590 OFFCURVE",
"894 1613 OFFCURVE",
"802 1613 CURVE SMOOTH",
"706 1613 OFFCURVE",
"629 1587 OFFCURVE",
"606 1559 CURVE",
"609 1519 OFFCURVE",
"676 1024 OFFCURVE",
"693 826 CURVE",
"672 824 LINE",
"610 927 OFFCURVE",
"539 1046 OFFCURVE",
"431 1120 CURVE",
"392 1115 OFFCURVE",
"191 1078 OFFCURVE",
"70 921 CURVE SMOOTH",
"51 896 OFFCURVE",
"45 882 OFFCURVE",
"45 866 CURVE SMOOTH",
"45 853 OFFCURVE",
"49 838 OFFCURVE",
"57 811 CURVE SMOOTH",
"133 550 OFFCURVE",
"126 372 OFFCURVE",
"130 147 CURVE SMOOTH",
"131 94 OFFCURVE",
"213 66 OFFCURVE",
"263 31 CURVE SMOOTH",
"302 3 OFFCURVE",
"338 -22 OFFCURVE",
"374 -20 CURVE SMOOTH"
);
},
{
closed = 1;
nodes = (
"430 353 LINE",
"454 474 OFFCURVE",
"468 591 OFFCURVE",
"466 713 CURVE SMOOTH",
"464 736 LINE",
"528 721 OFFCURVE",
"595 710 OFFCURVE",
"675 690 CURVE",
"674 684 LINE",
"642 614 OFFCURVE",
"534 412 OFFCURVE",
"460 339 CURVE"
);
},
{
closed = 1;
nodes = (
"1198 1208 OFFCURVE",
"1210 1334 OFFCURVE",
"1169 1411 CURVE",
"793 1373 LINE",
"440 1343 LINE",
"426 1284 OFFCURVE",
"430 1213 OFFCURVE",
"454 1148 CURVE {name = hr00;}",
"768 1136 OFFCURVE",
"1083 1138 OFFCURVE",
"1153 1144 CURVE"
);
}
);
width = 1211;
}
);
leftKerningGroup = KO_dcroat;
rightKerningGroup = KO_dcroat;
unicode = 0111;
},
{
color = 4;
glyphname = e;
lastChange = "2022-07-29 03:12:30 +0000";
layers = (
{
anchors = (
{
name = bottom;
position = "{475, 0}";
},
{
name = ogonek;
position = "{855, 10}";
},
{
name = top;
position = "{641, 1182}";
}
);
layerId = "ED69ACE7-BE83-49AD-8DAF-057B7A1FF3CB";
paths = (
{
closed = 1;
nodes = (
"548 -20 OFFCURVE",
"831 192 OFFCURVE",
"926 299 CURVE",
"859 438 LINE",
"726 378 OFFCURVE",
"583 297 OFFCURVE",
"512 284 CURVE",
"483 284 LINE",
"689 449 OFFCURVE",
"973 721 OFFCURVE",
"994 751 CURVE SMOOTH {name = hr00;}",
"1023 794 OFFCURVE",
"1037 885 OFFCURVE",
"1036 946 CURVE SMOOTH",
"1035 1003 OFFCURVE",
"1030 1010 OFFCURVE",
"1010 1018 CURVE SMOOTH",
"916 1054 OFFCURVE",
"859 1071 OFFCURVE",
"721 1173 CURVE SMOOTH",
"689 1197 OFFCURVE",
"666 1203 OFFCURVE",
"646 1204 CURVE",
"573 1204 OFFCURVE",
"441 1146 OFFCURVE",
"376 1109 CURVE SMOOTH",
"333 1084 OFFCURVE",
"174 984 OFFCURVE",
"174 910 CURVE SMOOTH",
"174 908 OFFCURVE",
"175 891 OFFCURVE",
"179 869 CURVE SMOOTH",
"185 831 OFFCURVE",
"188 778 OFFCURVE",
"188 697 CURVE SMOOTH",
"188 233 OFFCURVE",
"87 224 OFFCURVE",
"183 127 CURVE SMOOTH",
"190 120 OFFCURVE",
"218 96 OFFCURVE",
"238 75 CURVE SMOOTH",
"260 53 OFFCURVE",
"255 57 OFFCURVE",
"272 37 CURVE SMOOTH",
"307 -5 OFFCURVE",
"339 -20 OFFCURVE",
"369 -20 CURVE SMOOTH"
);
},
{
closed = 1;
nodes = (
"484 418 OFFCURVE",
"486 422 OFFCURVE",
"486 422 CURVE SMOOTH",
"512 521 OFFCURVE",
"555 762 OFFCURVE",
"566 831 CURVE",
"656 801 OFFCURVE",
"720 782 OFFCURVE",
"752 774 CURVE",
"676 640 OFFCURVE",
"553 501 OFFCURVE",
"484 417 CURVE"
);
}
);
userData = {
com.typemytype.robofont.guides = (
{
angle = 90;
isGlobal = 0;
x = 431;
y = 0;
}
);
};
width = 947;
}
);
leftKerningGroup = KO_e;
rightKerningGroup = KO_e;
unicode = 0065;
userData = {
KernOnName = e;
};
},
{
glyphname = eogonek;
lastChange = "2022-05-20 05:02:37 +0000";
layers = (
{
anchors = (
{
name = bottom;
position = "{475, 0}";
},
{
name = ogonek;
position = "{854, 10}";
},
{
name = top;
position = "{475, 1182}";
}
);
layerId = "ED69ACE7-BE83-49AD-8DAF-057B7A1FF3CB";
paths = (
{
closed = 1;
nodes = (
"550 -20 OFFCURVE",
"803 192 OFFCURVE",
"883 299 CURVE",
"798 438 LINE",
"669 376 OFFCURVE",
"540 297 OFFCURVE",
"472 284 CURVE",
"443 284 LINE",
"621 444 OFFCURVE",
"872 721 OFFCURVE",
"888 750 CURVE SMOOTH {name = hr00;}",
"911 794 OFFCURVE",
"913 881 OFFCURVE",
"903 946 CURVE SMOOTH",
"893 1007 OFFCURVE",
"887 1010 OFFCURVE",
"867 1018 CURVE SMOOTH",
"768 1054 OFFCURVE",
"714 1068 OFFCURVE",
"555 1174 CURVE SMOOTH",
"520 1197 OFFCURVE",
"496 1203 OFFCURVE",
"477 1204 CURVE",
"404 1204 OFFCURVE",
"280 1146 OFFCURVE",
"220 1109 CURVE SMOOTH",
"169 1077 OFFCURVE",
"45 982 OFFCURVE",
"45 922 CURVE SMOOTH",
"45 910 OFFCURVE",
"49 895 OFFCURVE",
"57 868 CURVE SMOOTH",
"83 782 OFFCURVE",
"117 536 OFFCURVE",
"117 338 CURVE SMOOTH",
"117 234 OFFCURVE",
"82 201 OFFCURVE",
"164 127 CURVE SMOOTH",
"175 118 OFFCURVE",
"199 100 OFFCURVE",
"227 75 CURVE SMOOTH",
"240 64 OFFCURVE",
"253 51 OFFCURVE",
"266 38 CURVE SMOOTH",
"307 -5 OFFCURVE",
"339 -20 OFFCURVE",
"372 -20 CURVE SMOOTH"
);
},
{
closed = 1;
nodes = (
"721 -438 OFFCURVE",
"800 -374 OFFCURVE",
"867 -243 CURVE",
"820 -116 LINE",
"624 -183 LINE",
"610 -170 LINE {name = hr00;}",
"691 -14 OFFCURVE",
"792 143 OFFCURVE",
"883 299 CURVE",
"792 209 LINE",
"758 187 OFFCURVE",
"579 179 OFFCURVE",
"510 116 CURVE",
"616 55 LINE",
"516 -27 OFFCURVE",
"358 -143 OFFCURVE",
"358 -235 CURVE SMOOTH",
"358 -316 OFFCURVE",
"508 -438 OFFCURVE",
"605 -438 CURVE SMOOTH"
);
},
{
closed = 1;
nodes = (
"425 418 OFFCURVE",
"426 419 OFFCURVE",
"426 420 CURVE SMOOTH",
"439 521 OFFCURVE",
"449 775 OFFCURVE",
"449 831 CURVE",
"540 802 OFFCURVE",
"608 782 OFFCURVE",
"643 774 CURVE",
"585 638 OFFCURVE",
"471 485 OFFCURVE",
"425 417 CURVE"
);
}
);
userData = {
com.typemytype.robofont.guides = (
{
angle = 90;
isGlobal = 0;
x = 884;
y = 0;
}
);
};
width = 949;
}
);
leftKerningGroup = KO_e;
rightKerningGroup = KO_eogonek;
unicode = 0119;
},
{
color = 4;
glyphname = eopen;
lastChange = "2022-07-29 03:12:30 +0000";
layers = (
{
layerId = "ED69ACE7-BE83-49AD-8DAF-057B7A1FF3CB";
paths = (
{
closed = 1;
nodes = (
"831 779 LINE",
"907 757 OFFCURVE",
"981 752 OFFCURVE",
"1064 780 CURVE",
"1110 864 OFFCURVE",
"1180 964 OFFCURVE",
"1129 1052 CURVE",
"1084 1102 OFFCURVE",
"970 1143 OFFCURVE",
"871 1169 CURVE SMOOTH",
"809 1185 OFFCURVE",
"755 1198 OFFCURVE",
"729 1198 CURVE SMOOTH",
"638 1198 OFFCURVE",
"357 1114 OFFCURVE",
"257 1039 CURVE",
"221 969 OFFCURVE",
"208 899 OFFCURVE",
"217 819 CURVE",
"302 725 OFFCURVE",
"446 667 OFFCURVE",
"536 629 CURVE",
"332 606 OFFCURVE",
"133 508 OFFCURVE",
"123 429 CURVE",
"161 255 OFFCURVE",
"237 111 OFFCURVE",
"299 44 CURVE",
"375 17 OFFCURVE",
"499 -5 OFFCURVE",
"605 -16 CURVE",
"802 38 OFFCURVE",
"862 80 OFFCURVE",
"968 124 CURVE",
"972 133 OFFCURVE",
"982 160 OFFCURVE",
"982 190 CURVE SMOOTH",
"982 230 OFFCURVE",
"967 278 OFFCURVE",
"933 304 CURVE",
"802 255 OFFCURVE",
"735 240 OFFCURVE",
"636 230 CURVE",
"601 241 OFFCURVE",
"576 245 OFFCURVE",
"546 267 CURVE",
"532 305 OFFCURVE",
"524 358 OFFCURVE",
"522 404 CURVE",
"567 459 OFFCURVE",
"624 498 OFFCURVE",
"680 525 CURVE",
"706 476 OFFCURVE",
"768 431 OFFCURVE",
"817 422 CURVE",
"899 437 OFFCURVE",
"994 538 OFFCURVE",
"935 634 CURVE",
"859 659 LINE",
"748 632 LINE",
"650 710 OFFCURVE",
"632 815 OFFCURVE",
"604 857 CURVE",
"610 876 LINE",
"795 940 LINE",
"823 927 LINE"
);
}
);
width = 1049;
}
);
leftKerningGroup = KO_eopen;
leftMetricsKey = o;
rightKerningGroup = KO_eopen;
rightMetricsKey = e;
unicode = 025B;
},
{
color = 4;
glyphname = schwa;
lastChange = "2022-07-29 03:12:30 +0000";
layers = (
{
layerId = "ED69ACE7-BE83-49AD-8DAF-057B7A1FF3CB";
paths = (
{
closed = 1;
nodes = (
"542 -22 OFFCURVE",
"674 36 OFFCURVE",
"739 73 CURVE SMOOTH",
"796 106 OFFCURVE",
"941 204 OFFCURVE",
"941 269 CURVE SMOOTH",
"941 271 OFFCURVE",
"940 292 OFFCURVE",
"936 315 CURVE SMOOTH",
"930 348 OFFCURVE",
"927 409 OFFCURVE",
"927 481 CURVE SMOOTH",
"927 951 OFFCURVE",
"1028 957 OFFCURVE",
"932 1055 CURVE SMOOTH",
"921 1066 OFFCURVE",
"898 1087 OFFCURVE",
"878 1107 CURVE SMOOTH",
"855 1129 OFFCURVE",
"858 1127 OFFCURVE",
"843 1145 CURVE SMOOTH",
"808 1187 OFFCURVE",
"776 1202 OFFCURVE",
"746 1202 CURVE SMOOTH",
"568 1202 OFFCURVE",
"284 990 OFFCURVE",
"190 883 CURVE",
"255 744 LINE",
"395 807 OFFCURVE",
"533 885 OFFCURVE",
"603 898 CURVE",
"632 898 LINE",
"435 741 OFFCURVE",
"141 461 OFFCURVE",
"120 430 CURVE SMOOTH {name = hr00;}",
"93 389 OFFCURVE",
"78 298 OFFCURVE",
"79 236 CURVE SMOOTH",
"80 176 OFFCURVE",
"86 172 OFFCURVE",
"106 164 CURVE SMOOTH",
"201 127 OFFCURVE",
"251 114 OFFCURVE",
"395 8 CURVE SMOOTH",
"422 -12 OFFCURVE",
"448 -21 OFFCURVE",
"469 -22 CURVE"
);
},
{
closed = 1;
nodes = (
"466 379 OFFCURVE",
"392 401 OFFCURVE",
"363 408 CURVE",
"440 544 OFFCURVE",
"577 699 OFFCURVE",
"631 765 CURVE",
"630 764 OFFCURVE",
"629 760 OFFCURVE",
"629 760 CURVE SMOOTH",
"603 661 OFFCURVE",
"555 402 OFFCURVE",
"549 351 CURVE"
);
}
);
width = 949;
}
);
leftKerningGroup = KO_schwa;
rightKerningGroup = KO_schwa;
unicode = 0259;
},
{
color = 4;
glyphname = f;
lastChange = "2022-07-29 03:12:30 +0000";
layers = (
{
anchors = (
{
name = bottom;
position = "{372, 0}";
},
{
name = top;
position = "{603, 1613}";
}
);
layerId = "ED69ACE7-BE83-49AD-8DAF-057B7A1FF3CB";
paths = (
{
closed = 1;
nodes = (
"236 -431 OFFCURVE",
"403 -328 OFFCURVE",
"440 -214 CURVE",
"483 29 OFFCURVE",
"520 409 OFFCURVE",
"555 792 CURVE",
"596 768 OFFCURVE",
"679 728 OFFCURVE",
"762 731 CURVE",
"800 778 OFFCURVE",
"889 1000 OFFCURVE",
"839 1098 CURVE",
"569 1021 LINE",
"597 1366 LINE",
"631 1308 OFFCURVE",
"659 1241 OFFCURVE",
"832 1229 CURVE",
"912 1295 OFFCURVE",
"998 1494 OFFCURVE",
"972 1568 CURVE",
"863 1557 OFFCURVE",
"761 1576 OFFCURVE",
"603 1613 CURVE",
"336 1510 OFFCURVE",
"219 1301 OFFCURVE",
"196 1262 CURVE",
"172 1078 OFFCURVE",
"201 305 OFFCURVE",
"181 -143 CURVE",
"-18 -112 LINE {name = hr00;}",
"-47 -173 OFFCURVE",
"-67 -212 OFFCURVE",
"-76 -288 CURVE",
"-50 -334 OFFCURVE",
"5 -416 OFFCURVE",
"120 -438 CURVE"
);
}
);
userData = {
com.typemytype.robofont.guides = (
{
angle = 90;
isGlobal = 0;
x = 310;
y = 0;
}
);
};
width = 744;
}
);
leftKerningGroup = KO_f;
rightKerningGroup = KO_f;
unicode = 0066;
userData = {
KernOnName = f;
};
},
{
color = 4;
glyphname = g;
lastChange = "2022-07-29 03:12:30 +0000";
layers = (
{
anchors = (
{
name = bottom;
position = "{496, -540}";
},
{
name = top;
position = "{737, 1182}";
}
);
layerId = "ED69ACE7-BE83-49AD-8DAF-057B7A1FF3CB";
paths = (
{
closed = 1;
nodes = (
"633 -438 OFFCURVE",
"649 -437 OFFCURVE",
"663 -435 CURVE",
"847 -375 OFFCURVE",
"1023 -228 OFFCURVE",
"1090 -62 CURVE",
"1064 696 LINE",
"1207 897 OFFCURVE",
"1228 978 OFFCURVE",
"1256 1060 CURVE",
"1255 1060 LINE",
"1256 1061 LINE",
"1197 1145 OFFCURVE",
"1118 1182 OFFCURVE",
"996 1182 CURVE SMOOTH {name = hr02;}",
"920 1182 OFFCURVE",
"848 1168 OFFCURVE",
"824 1154 CURVE",
"820 1122 OFFCURVE",
"813 1026 OFFCURVE",
"798 908 CURVE",
"752 1011 OFFCURVE",
"701 1129 OFFCURVE",
"604 1204 CURVE {name = hr03;}",
"561 1198 OFFCURVE",
"358 1162 OFFCURVE",
"211 1004 CURVE SMOOTH",
"182 973 OFFCURVE",
"177 958 OFFCURVE",
"177 936 CURVE SMOOTH",
"177 934 OFFCURVE",
"178 913 OFFCURVE",
"181 895 CURVE SMOOTH",
"190 835 OFFCURVE",
"193 776 OFFCURVE",
"193 701 CURVE SMOOTH",
"193 194 OFFCURVE",
"136 538 OFFCURVE",
"136 140 CURVE SMOOTH",
"136 91 OFFCURVE",
"209 65 OFFCURVE",
"251 31 CURVE SMOOTH",
"286 3 OFFCURVE",
"319 -21 OFFCURVE",
"354 -19 CURVE SMOOTH",
"375 -18 OFFCURVE",
"394 -9 OFFCURVE",
"413 5 CURVE",
"520 87 OFFCURVE",
"662 312 OFFCURVE",
"774 537 CURVE",
"786 528 LINE",
"758 340 OFFCURVE",
"741 41 OFFCURVE",
"705 -154 CURVE",
"613 -154 OFFCURVE",
"410 -128 OFFCURVE",
"315 -106 CURVE",
"288 -167 OFFCURVE",
"271 -203 OFFCURVE",
"266 -278 CURVE",
"299 -333 OFFCURVE",
"468 -438 OFFCURVE",
"620 -438 CURVE SMOOTH"
);
},
{
closed = 1;
nodes = (
"469 353 LINE {name = hr01;}",
"511 471 OFFCURVE",
"544 587 OFFCURVE",
"562 713 CURVE SMOOTH",
"577 820 LINE",
"638 805 OFFCURVE",
"703 794 OFFCURVE",
"780 774 CURVE",
"769 696 OFFCURVE",
"779 750 OFFCURVE",
"767 694 CURVE",
"721 619 OFFCURVE",
"581 412 OFFCURVE",
"497 339 CURVE"
);
}
);
userData = {
com.typemytype.robofont.guides = (
{
angle = 0;
isGlobal = 0;
x = 0;
y = 937;
},
{
angle = 90;
isGlobal = 0;
x = 542;
y = 0;
}
);
};
width = 1143;
}
);
leftKerningGroup = KO_g;
rightKerningGroup = KO_g;
unicode = 0067;
userData = {
KernOnName = g;
};
},
{
color = 4;
glyphname = h;
lastChange = "2022-07-29 03:12:30 +0000";
layers = (
{
anchors = (
{
name = bottom;
position = "{599, 0}";
},
{
name = center;
position = "{740, 1010}";
},
{
name = top;
position = "{500, 1551}";
}
);
layerId = "ED69ACE7-BE83-49AD-8DAF-057B7A1FF3CB";
paths = (
{
closed = 1;
nodes = (
"442 -20 OFFCURVE",
"504 -8 OFFCURVE",
"554 24 CURVE",
"557 158 OFFCURVE",
"535 266 OFFCURVE",
"516 360 CURVE",
"612 506 OFFCURVE",
"669 600 OFFCURVE",
"778 781 CURVE",
"804 772 LINE",
"701 221 LINE SMOOTH {name = hr00;}",
"690 159 OFFCURVE",
"702 121 OFFCURVE",
"741 73 CURVE SMOOTH",
"783 20 OFFCURVE",
"856 -20 OFFCURVE",
"919 -20 CURVE SMOOTH",
"1034 -20 OFFCURVE",
"1175 151 OFFCURVE",
"1235 279 CURVE",
"1164 400 LINE",
"982 311 LINE",
"1104 535 OFFCURVE",
"1221 867 OFFCURVE",
"1245 1038 CURVE",
"1128 1144 OFFCURVE",
"988 1182 OFFCURVE",
"912 1182 CURVE SMOOTH",
"856 1182 OFFCURVE",
"802 1170 OFFCURVE",
"780 1165 CURVE",
"662 953 OFFCURVE",
"591 744 OFFCURVE",
"487 514 CURVE",
"483 515 LINE",
"471 518 LINE",
"552 875 OFFCURVE",
"646 1224 OFFCURVE",
"700 1566 CURVE",
"659 1601 OFFCURVE",
"607 1614 OFFCURVE",
"549 1614 CURVE SMOOTH",
"429 1614 OFFCURVE",
"288 1545 OFFCURVE",
"216 1466 CURVE",
"215 1444 OFFCURVE",
"204 1326 OFFCURVE",
"204 1022 CURVE SMOOTH",
"204 757 OFFCURVE",
"211 437 OFFCURVE",
"235 370 CURVE",
"235 369 OFFCURVE",
"235 371 OFFCURVE",
"233 367 CURVE SMOOTH",
"193 285 OFFCURVE",
"167 215 OFFCURVE",
"121 66 CURVE",
"164 9 OFFCURVE",
"276 -20 OFFCURVE",
"375 -20 CURVE SMOOTH"
);
}
);
userData = {
com.typemytype.robofont.guides = (
{
angle = 90;
isGlobal = 0;
x = 771;
y = 0;
}
);
};
width = 1198;
}
);
leftKerningGroup = KO_h;
rightKerningGroup = KO_h;
unicode = 0068;
},
{
glyphname = hbar;
lastChange = "2022-05-20 00:37:12 +0000";
layers = (
{
layerId = "ED69ACE7-BE83-49AD-8DAF-057B7A1FF3CB";
paths = (
{
closed = 1;
nodes = (
"433 -22 OFFCURVE",
"503 -10 OFFCURVE",
"550 24 CURVE",
"535 158 OFFCURVE",
"499 263 OFFCURVE",
"466 360 CURVE",
"546 495 OFFCURVE",
"617 584 OFFCURVE",
"663 640 CURVE",
"690 631 LINE",
"681 438 OFFCURVE",
"671 403 OFFCURVE",
"670 221 CURVE SMOOTH",
"670 132 OFFCURVE",
"699 107 OFFCURVE",
"724 80 CURVE SMOOTH",
"781 21 OFFCURVE",
"861 -21 OFFCURVE",
"923 -20 CURVE SMOOTH",
"1039 -18 OFFCURVE",
"1163 140 OFFCURVE",
"1198 279 CURVE",
"1107 400 LINE",
"938 311 LINE",
"1029 533 OFFCURVE",
"1074 741 OFFCURVE",
"1094 897 CURVE",
"960 1005 OFFCURVE",
"815 1042 OFFCURVE",
"741 1041 CURVE SMOOTH",
"684 1040 OFFCURVE",
"632 1030 OFFCURVE",
"611 1024 CURVE",
"533 850 OFFCURVE",
"483 733 OFFCURVE",
"415 514 CURVE",
"412 515 LINE",
"411 515 LINE",
"398 518 LINE",
"471 1566 LINE",
"426 1601 OFFCURVE",
"381 1615 OFFCURVE",
"323 1614 CURVE SMOOTH",
"203 1612 OFFCURVE",
"91 1547 OFFCURVE",
"30 1466 CURVE",
"21 1427 OFFCURVE",
"124 490 OFFCURVE",
"183 370 CURVE",
"183 369 OFFCURVE",
"182 369 OFFCURVE",
"182 368 CURVE SMOOTH",
"155 288 OFFCURVE",
"139 227 OFFCURVE",
"112 66 CURVE",
"160 12 OFFCURVE",
"268 -18 OFFCURVE",
"364 -20 CURVE SMOOTH"
);
},
{
closed = 1;
nodes = (
"240 1093 OFFCURVE",
"760 1104 OFFCURVE",
"830 1110 CURVE",
"875 1198 OFFCURVE",
"907 1338 OFFCURVE",
"859 1414 CURVE",
"181 1333 LINE",
"-88 1283 LINE",
"-107 1218 OFFCURVE",
"-98 1170 OFFCURVE",
"-74 1105 CURVE {name = hr00;}"
);
}
);
width = 1198;
}
);
leftKerningGroup = KO_hbar;
rightKerningGroup = KO_hbar;
unicode = 0127;
},
{
color = 0;
glyphname = hcaron;
lastChange = "2022-05-20 04:44:49 +0000";
layers = (
{
anchors = (
{
name = top;
position = "{283, 2080}";
}
);
layerId = "ED69ACE7-BE83-49AD-8DAF-057B7A1FF3CB";
paths = (
{
closed = 1;
nodes = (
"444 -20 OFFCURVE",
"507 -8 OFFCURVE",
"551 24 CURVE",
"536 158 OFFCURVE",
"500 263 OFFCURVE",
"467 360 CURVE",
"543 506 OFFCURVE",
"604 638 OFFCURVE",
"670 781 CURVE",
"697 772 LINE",
"671 206 LINE SMOOTH",
"667 128 OFFCURVE",
"702 104 OFFCURVE",
"725 80 CURVE SMOOTH",
"782 20 OFFCURVE",
"862 -20 OFFCURVE",
"924 -20 CURVE {name = hr00;}",
"1040 -18 OFFCURVE",
"1164 140 OFFCURVE",
"1199 279 CURVE",
"1108 400 LINE",
"939 311 LINE",
"1030 533 OFFCURVE",
"1101 867 OFFCURVE",
"1101 1038 CURVE",
"966 1146 OFFCURVE",
"822 1182 OFFCURVE",
"748 1182 CURVE SMOOTH",
"691 1182 OFFCURVE",
"639 1170 OFFCURVE",
"618 1165 CURVE",
"530 953 OFFCURVE",
"484 733 OFFCURVE",
"416 514 CURVE",
"412 515 LINE",
"399 518 LINE",
"431 875 OFFCURVE",
"476 1144 OFFCURVE",
"482 1481 CURVE",
"436 1516 OFFCURVE",
"383 1529 OFFCURVE",
"324 1529 CURVE SMOOTH",
"204 1529 OFFCURVE",
"73 1460 OFFCURVE",
"12 1381 CURVE",
"12 1379 OFFCURVE",
"11 1377 OFFCURVE",
"11 1373 CURVE SMOOTH",
"11 1277 OFFCURVE",
"127 486 OFFCURVE",
"184 370 CURVE",
"184 369 OFFCURVE",
"183 369 OFFCURVE",
"183 368 CURVE SMOOTH",
"156 288 OFFCURVE",
"140 227 OFFCURVE",
"113 66 CURVE",
"164 9 OFFCURVE",
"280 -20 OFFCURVE",
"379 -20 CURVE SMOOTH"
);
},
{
closed = 1;
nodes = (
"656 1948 LINE {name = hr00;}",
"633 1995 OFFCURVE",
"575 2058 OFFCURVE",
"525 2080 CURVE",
"429 2014 OFFCURVE",
"391 1967 OFFCURVE",
"307 1864 CURVE",
"162 2062 LINE",
"71 2069 OFFCURVE",
"-86 1916 OFFCURVE",
"-90 1843 CURVE",
"161 1648 LINE",
"213 1637 OFFCURVE",
"321 1635 OFFCURVE",
"370 1644 CURVE"
);
}
);
width = 1198;
}
);
rightKerningGroup = KO_h;
unicode = 021F;
},
{
glyphname = hcircumflex;
lastChange = "2022-05-20 04:44:53 +0000";
layers = (
{
anchors = (
{
name = _top;
position = "{230, 0}";
}
);
layerId = "ED69ACE7-BE83-49AD-8DAF-057B7A1FF3CB";
paths = (
{
closed = 1;
nodes = (
"444 -20 OFFCURVE",
"507 -8 OFFCURVE",
"551 24 CURVE",
"536 158 OFFCURVE",
"500 263 OFFCURVE",
"467 360 CURVE",
"543 506 OFFCURVE",
"604 638 OFFCURVE",
"670 781 CURVE",
"697 772 LINE",
"671 206 LINE SMOOTH",
"667 128 OFFCURVE",
"702 104 OFFCURVE",
"725 80 CURVE SMOOTH",
"782 20 OFFCURVE",
"862 -20 OFFCURVE",
"924 -20 CURVE {name = hr00;}",
"1040 -18 OFFCURVE",
"1164 140 OFFCURVE",
"1199 279 CURVE",
"1108 400 LINE",
"939 311 LINE",
"1030 533 OFFCURVE",
"1101 867 OFFCURVE",
"1101 1038 CURVE",
"966 1146 OFFCURVE",
"822 1182 OFFCURVE",
"748 1182 CURVE SMOOTH",
"691 1182 OFFCURVE",
"639 1170 OFFCURVE",
"618 1165 CURVE",
"530 953 OFFCURVE",
"484 733 OFFCURVE",
"416 514 CURVE",
"412 515 LINE",
"399 518 LINE",
"431 875 OFFCURVE",
"476 1144 OFFCURVE",
"482 1481 CURVE",
"436 1516 OFFCURVE",
"383 1529 OFFCURVE",
"324 1529 CURVE SMOOTH",
"204 1529 OFFCURVE",
"73 1460 OFFCURVE",
"12 1381 CURVE",
"12 1379 OFFCURVE",
"11 1377 OFFCURVE",
"11 1373 CURVE SMOOTH",
"11 1277 OFFCURVE",
"127 486 OFFCURVE",
"184 370 CURVE",
"184 369 OFFCURVE",
"183 369 OFFCURVE",
"183 368 CURVE SMOOTH",
"156 288 OFFCURVE",
"140 227 OFFCURVE",
"113 66 CURVE",
"164 9 OFFCURVE",
"280 -20 OFFCURVE",
"379 -20 CURVE SMOOTH"
);
},
{
closed = 1;
nodes = (
"83 1640 OFFCURVE",
"139 1706 OFFCURVE",
"199 1775 CURVE {name = hr00;}",
"280 1713 OFFCURVE",
"365 1642 OFFCURVE",
"454 1609 CURVE",
"521 1626 OFFCURVE",
"579 1709 OFFCURVE",
"597 1754 CURVE",
"389 2003 LINE",
"374 2006 OFFCURVE",
"355 2007 OFFCURVE",
"336 2007 CURVE SMOOTH",
"247 2007 OFFCURVE",
"104 1981 OFFCURVE",
"66 1947 CURVE",
"9 1855 OFFCURVE",
"-29 1811 OFFCURVE",
"-113 1731 CURVE",
"-86 1682 OFFCURVE",
"-37 1638 OFFCURVE",
"28 1609 CURVE"
);
}
);
width = 1199;
}
);
rightKerningGroup = KO_h;
unicode = 0125;
},
{
color = 4;
glyphname = idotless;
lastChange = "2022-07-29 03:12:30 +0000";
layers = (
{
anchors = (
{
name = bottom;
position = "{308, 0}";
},
{
name = ogonek;
position = "{555, 10}";
},
{
name = top;
position = "{473, 1182}";
}
);
layerId = "ED69ACE7-BE83-49AD-8DAF-057B7A1FF3CB";
paths = (
{
closed = 1;
nodes = (
"471 -20 OFFCURVE",
"597 152 OFFCURVE",
"656 256 CURVE",
"594 381 LINE",
"435 314 LINE",
"465 392 LINE SMOOTH",
"550 613 OFFCURVE",
"650 1056 OFFCURVE",
"666 1105 CURVE",
"625 1146 OFFCURVE",
"569 1163 OFFCURVE",
"509 1163 CURVE SMOOTH",
"384 1163 OFFCURVE",
"239 1091 OFFCURVE",
"169 1018 CURVE",
"226 497 LINE",
"98 237 OFFCURVE",
"92 238 OFFCURVE",
"92 199 CURVE SMOOTH",
"92 95 OFFCURVE",
"252 -20 OFFCURVE",
"342 -20 CURVE SMOOTH {name = hr00;}"
);
}
);
userData = {
com.typemytype.robofont.guides = (
{
angle = 90;
isGlobal = 0;
x = 268;
y = 0;
}
);
};
width = 615;
}
);
leftKerningGroup = KO_idotless;
rightKerningGroup = KO_idotless;
unicode = 0131;
},
{
glyphname = iogonek;
layers = (
{
components = (
{
name = i;
},
{
name = ogonek;
transform = "{1, 0, 0, 1, 74, 0}";
}
);
layerId = "ED69ACE7-BE83-49AD-8DAF-057B7A1FF3CB";
paths = (
{
closed = 1;
nodes = (
"541 114 LINE",
"464 195 LINE",
"349 -176 LINE {name = hr00;}"
);
}
);
width = 615;
}
);
leftKerningGroup = KO_i;
rightKerningGroup = KO_i;
unicode = 012F;
},
{
glyphname = istroke;
lastChange = "2022-07-28 04:43:22 +0000";
layers = (
{
anchors = (
{
name = bottom;
position = "{393, 0}";
}
);
layerId = "ED69ACE7-BE83-49AD-8DAF-057B7A1FF3CB";
paths = (
{
closed = 1;
nodes = (
"561 -20 OFFCURVE",
"663 158 OFFCURVE",
"705 256 CURVE",
"626 381 LINE",
"476 314 LINE",
"495 392 LINE SMOOTH",
"549 613 OFFCURVE",
"587 1056 OFFCURVE",
"596 1105 CURVE",
"549 1146 OFFCURVE",
"492 1163 OFFCURVE",
"431 1163 CURVE SMOOTH",
"306 1163 OFFCURVE",
"171 1091 OFFCURVE",
"111 1018 CURVE",
"242 497 LINE",
"149 235 OFFCURVE",
"148 249 OFFCURVE",
"148 212 CURVE SMOOTH",
"148 104 OFFCURVE",
"336 -20 OFFCURVE",
"430 -20 CURVE SMOOTH {name = hr00;}"
);
},
{
closed = 1;
nodes = (
"470 1283 OFFCURVE",
"577 1372 OFFCURVE",
"616 1464 CURVE",
"580 1633 OFFCURVE",
"402 1681 OFFCURVE",
"279 1681 CURVE {name = hr00;}",
"248 1580 OFFCURVE",
"227 1534 OFFCURVE",
"170 1392 CURVE",
"188 1331 OFFCURVE",
"290 1253 OFFCURVE",
"387 1247 CURVE"
);
},
{
closed = 1;
nodes = (
"361 637 OFFCURVE",
"605 649 OFFCURVE",
"675 655 CURVE",
"720 719 OFFCURVE",
"732 845 OFFCURVE",
"691 922 CURVE",
"292 884 LINE",
"33 834 LINE",
"18 766 OFFCURVE",
"23 714 OFFCURVE",
"47 649 CURVE"
);
}
);
width = 741;
}
);
leftKerningGroup = KO_istroke;
leftMetricsKey = t;
rightMetricsKey = "=|";
unicode = 0268;
},
{
glyphname = j;
lastChange = "2022-07-29 02:44:06 +0000";
layers = (
{
layerId = "ED69ACE7-BE83-49AD-8DAF-057B7A1FF3CB";
paths = (
{
closed = 1;
nodes = (
"345 -438 OFFCURVE",
"479 -310 OFFCURVE",
"487 -254 CURVE",
"504 -57 OFFCURVE",
"427 281 OFFCURVE",
"406 373 CURVE",
"402 371 LINE",
"406 393 LINE",
"414 428 LINE SMOOTH",
"465 649 OFFCURVE",
"505 1056 OFFCURVE",
"511 1105 CURVE",
"465 1145 OFFCURVE",
"408 1163 OFFCURVE",
"349 1163 CURVE SMOOTH",
"223 1164 OFFCURVE",
"87 1092 OFFCURVE",
"26 1018 CURVE",
"153 565 LINE",
"120 -134 LINE",
"64 -126 OFFCURVE",
"0 -116 OFFCURVE",
"-36 -113 CURVE",
"-54 -173 OFFCURVE",
"-56 -205 OFFCURVE",
"-50 -281 CURVE",
"-15 -327 OFFCURVE",
"103 -416 OFFCURVE",
"223 -438 CURVE"
);
},
{
closed = 1;
nodes = (
"335 1210 OFFCURVE",
"501 1353 OFFCURVE",
"544 1445 CURVE",
"504 1614 OFFCURVE",
"335 1662 OFFCURVE",
"199 1662 CURVE {name = hr00;}",
"164 1561 OFFCURVE",
"124 1463 OFFCURVE",
"61 1321 CURVE",
"108 1264 OFFCURVE",
"212 1199 OFFCURVE",
"262 1198 CURVE"
);
}
);
width = 564;
}
);
leftKerningGroup = KO_j;
rightKerningGroup = KO_j;
unicode = 006A;
userData = {
KernOnName = j;
};
},
{
color = 4;
glyphname = jdotless;
lastChange = "2022-07-29 03:12:30 +0000";
layers = (
{
anchors = (
{
name = bottom;
position = "{206, -540}";
},
{
name = top;
position = "{447, 1182}";
}
);
layerId = "ED69ACE7-BE83-49AD-8DAF-057B7A1FF3CB";
paths = (
{
closed = 1;
nodes = (
"282 -438 OFFCURVE",
"435 -310 OFFCURVE",
"451 -254 CURVE",
"496 -56 OFFCURVE",
"465 293 OFFCURVE",
"458 373 CURVE",
"454 371 LINE",
"461 393 LINE {name = hr00;}",
"474 428 LINE SMOOTH",
"556 649 OFFCURVE",
"665 1102 OFFCURVE",
"665 1105 CURVE",
"625 1145 OFFCURVE",
"569 1163 OFFCURVE",
"511 1163 CURVE SMOOTH",
"387 1163 OFFCURVE",
"239 1092 OFFCURVE",
"168 1018 CURVE",
"232 565 LINE",
"100 -134 LINE",
"42 -126 OFFCURVE",
"-25 -112 OFFCURVE",
"-41 -109 CURVE",
"-67 -169 OFFCURVE",
"-85 -204 OFFCURVE",
"-90 -281 CURVE",
"-62 -327 OFFCURVE",
"45 -416 OFFCURVE",
"161 -438 CURVE"
);
}
);
userData = {
com.typemytype.robofont.guides = (
{
angle = 90;
isGlobal = 0;
x = 271;
y = 0;
}
);
};
width = 564;
}
);
unicode = 0237;
},
{
color = 4;
glyphname = k;
lastChange = "2022-07-29 03:12:30 +0000";
layers = (
{
anchors = (
{
name = bottom;
position = "{556, 0}";
},
{
name = top;
position = "{481, 1529}";
}
);
layerId = "ED69ACE7-BE83-49AD-8DAF-057B7A1FF3CB";
paths = (
{
closed = 1;
nodes = (
"408 49 OFFCURVE",
"509 145 OFFCURVE",
"620 250 CURVE",
"637 137 OFFCURVE",
"676 26 OFFCURVE",
"766 -3 CURVE SMOOTH",
"803 -15 OFFCURVE",
"834 -20 OFFCURVE",
"865 -20 CURVE SMOOTH",
"953 -20 OFFCURVE",
"1033 21 OFFCURVE",
"1092 119 CURVE SMOOTH",
"1134 188 OFFCURVE",
"1150 248 OFFCURVE",
"1163 347 CURVE",
"1059 438 LINE",
"1014 397 OFFCURVE",
"974 367 OFFCURVE",
"927 345 CURVE",
"900 377 OFFCURVE",
"858 433 OFFCURVE",
"842 460 CURVE",
"983 599 OFFCURVE",
"1096 741 OFFCURVE",
"1145 807 CURVE",
"1164 944 OFFCURVE",
"1107 1118 OFFCURVE",
"1030 1204 CURVE",
"901 1199 OFFCURVE",
"714 1096 OFFCURVE",
"631 965 CURVE",
"657 877 OFFCURVE",
"698 812 OFFCURVE",
"754 760 CURVE",
"661 594 OFFCURVE",
"556 421 OFFCURVE",
"438 260 CURVE",
"429 265 LINE {name = hr00;}",
"522 603 OFFCURVE",
"664 1208 OFFCURVE",
"700 1566 CURVE",
"660 1601 OFFCURVE",
"611 1614 OFFCURVE",
"548 1613 CURVE SMOOTH",
"426 1612 OFFCURVE",
"281 1548 OFFCURVE",
"204 1466 CURVE",
"210 1144 OFFCURVE",
"221 938 OFFCURVE",
"267 662 CURVE",
"199 508 OFFCURVE",
"136 294 OFFCURVE",
"103 105 CURVE",
"141 45 OFFCURVE",
"253 -14 OFFCURVE",
"296 -20 CURVE"
);
}
);
userData = {
com.typemytype.robofont.guides = (
{
angle = 90;
isGlobal = 0;
x = 527;
y = 0;
}
);
};
width = 1112;
}
);
leftKerningGroup = KO_k;
rightKerningGroup = KO_k;
unicode = 006B;
userData = {
KernOnName = k;
};
},
{
glyphname = kgreenlandic;
lastChange = "2022-05-20 00:37:12 +0000";
layers = (
{
layerId = "ED69ACE7-BE83-49AD-8DAF-057B7A1FF3CB";
paths = (
{
closed = 1;
nodes = (
"363 49 OFFCURVE",
"456 148 OFFCURVE",
"554 250 CURVE",
"583 138 OFFCURVE",
"634 26 OFFCURVE",
"727 -3 CURVE SMOOTH",
"761 -14 OFFCURVE",
"795 -20 OFFCURVE",
"827 -20 CURVE SMOOTH",
"915 -21 OFFCURVE",
"991 21 OFFCURVE",
"1039 117 CURVE SMOOTH",
"1074 188 OFFCURVE",
"1084 242 OFFCURVE",
"1088 347 CURVE",
"973 438 LINE",
"933 396 OFFCURVE",
"892 365 OFFCURVE",
"852 345 CURVE",
"821 377 OFFCURVE",
"774 431 OFFCURVE",
"755 460 CURVE",
"881 599 OFFCURVE",
"981 743 OFFCURVE",
"1020 807 CURVE",
"1026 942 OFFCURVE",
"951 1118 OFFCURVE",
"864 1204 CURVE",
"735 1199 OFFCURVE",
"558 1096 OFFCURVE",
"490 965 CURVE",
"524 864 OFFCURVE",
"579 817 OFFCURVE",
"634 760 CURVE",
"557 594 OFFCURVE",
"470 415 OFFCURVE",
"372 260 CURVE",
"361 265 LINE",
"401 496 OFFCURVE",
"451 854 OFFCURVE",
"477 1170 CURVE",
"447 1198 OFFCURVE",
"393 1212 OFFCURVE",
"331 1212 CURVE SMOOTH",
"223 1212 OFFCURVE",
"77 1169 OFFCURVE",
"27 1089 CURVE",
"17 1053 OFFCURVE",
"105 518 OFFCURVE",
"153 396 CURVE",
"120 324 OFFCURVE",
"68 211 OFFCURVE",
"52 105 CURVE {name = hr00;}",
"96 45 OFFCURVE",
"215 -14 OFFCURVE",
"258 -20 CURVE"
);
}
);
width = 1089;
}
);
leftKerningGroup = KO_s;
unicode = 0138;
},
{
color = 4;
glyphname = l;
lastChange = "2022-07-29 03:12:30 +0000";
layers = (
{
anchors = (
{
name = bottom;
position = "{313, 0}";
},
{
name = center;
position = "{405, 799}";
},
{
name = top;
position = "{537, 1598}";
},
{
name = topright;
position = "{830, 1601}";
}
);
layerId = "ED69ACE7-BE83-49AD-8DAF-057B7A1FF3CB";
paths = (
{
closed = 1;
nodes = (
"477 -20 OFFCURVE",
"613 138 OFFCURVE",
"668 254 CURVE",
"606 381 LINE",
"453 314 LINE",
"596 919 OFFCURVE",
"664 1225 OFFCURVE",
"724 1566 CURVE",
"686 1601 OFFCURVE",
"636 1614 OFFCURVE",
"576 1613 CURVE SMOOTH",
"457 1612 OFFCURVE",
"318 1548 OFFCURVE",
"242 1466 CURVE",
"233 1436 OFFCURVE",
"219 916 OFFCURVE",
"234 606 CURVE",
"115 249 LINE SMOOTH",
"96 192 OFFCURVE",
"107 162 OFFCURVE",
"125 137 CURVE SMOOTH",
"174 68 OFFCURVE",
"258 -20 OFFCURVE",
"351 -20 CURVE SMOOTH {name = hr00;}"
);
}
);
userData = {
com.typemytype.robofont.guides = (
{
angle = 90;
isGlobal = 0;
x = 279;
y = 0;
}
);
};
width = 626;
}
);
leftKerningGroup = KO_l;
rightKerningGroup = KO_l;
unicode = 006C;
userData = {
KernOnName = l;
};
},
{
glyphname = lslash;
lastChange = "2022-05-20 00:37:12 +0000";
layers = (
{
layerId = "ED69ACE7-BE83-49AD-8DAF-057B7A1FF3CB";
paths = (
{
closed = 1;
nodes = (
"509 -20 OFFCURVE",
"672 175 OFFCURVE",
"710 291 CURVE",
"630 418 LINE",
"431 314 LINE",
"490 919 OFFCURVE",
"509 1250 OFFCURVE",
"520 1566 CURVE",
"477 1601 OFFCURVE",
"437 1614 OFFCURVE",
"380 1613 CURVE SMOOTH",
"261 1612 OFFCURVE",
"131 1547 OFFCURVE",
"67 1466 CURVE",
"62 1437 OFFCURVE",
"131 977 OFFCURVE",
"191 662 CURVE",
"110 249 LINE SMOOTH",
"99 192 OFFCURVE",
"115 161 OFFCURVE",
"135 138 CURVE SMOOTH",
"194 68 OFFCURVE",
"291 -20 OFFCURVE",
"383 -20 CURVE SMOOTH"
);
},
{
closed = 1;
nodes = (
"722 945 LINE",
"737 1037 OFFCURVE",
"710 1152 OFFCURVE",
"662 1181 CURVE",
"-14 723 LINE {name = hr00;}",
"-8 661 OFFCURVE",
"44 586 OFFCURVE",
"87 562 CURVE"
);
}
);
width = 741;
}
);
leftKerningGroup = KO_lslash;
rightKerningGroup = KO_lslash;
unicode = 0142;
},
{
color = 4;
glyphname = m;
lastChange = "2022-07-29 03:12:30 +0000";
layers = (
{
anchors = (
{
name = bottom;
position = "{852, 0}";
},
{
name = top;
position = "{1017, 1182}";
}
);
layerId = "ED69ACE7-BE83-49AD-8DAF-057B7A1FF3CB";
paths = (
{
closed = 1;
nodes = (
"414 -20 OFFCURVE",
"481 -5 OFFCURVE",
"531 27 CURVE",
"534 163 OFFCURVE",
"511 270 OFFCURVE",
"493 360 CURVE",
"542 444 OFFCURVE",
"751 776 OFFCURVE",
"752 778 CURVE",
"775 774 LINE",
"748 366 LINE",
"722 286 OFFCURVE",
"688 248 OFFCURVE",
"646 65 CURVE",
"685 12 OFFCURVE",
"773 -20 OFFCURVE",
"864 -20 CURVE SMOOTH",
"932 -20 OFFCURVE",
"997 -3 OFFCURVE",
"1047 31 CURVE",
"1055 153 OFFCURVE",
"1059 236 OFFCURVE",
"1034 363 CURVE",
"1080 445 OFFCURVE",
"1220 637 OFFCURVE",
"1307 769 CURVE",
"1330 764 LINE",
"1286 565 OFFCURVE",
"1251 399 OFFCURVE",
"1216 221 CURVE SMOOTH {name = hr01;}",
"1204 160 OFFCURVE",
"1218 120 OFFCURVE",
"1258 71 CURVE SMOOTH",
"1299 20 OFFCURVE",
"1372 -20 OFFCURVE",
"1435 -20 CURVE SMOOTH",
"1550 -20 OFFCURVE",
"1691 151 OFFCURVE",
"1751 279 CURVE",
"1680 400 LINE",
"1496 311 LINE",
"1659 622 OFFCURVE",
"1732 885 OFFCURVE",
"1764 1059 CURVE",
"1646 1167 OFFCURVE",
"1491 1184 OFFCURVE",
"1419 1183 CURVE SMOOTH {name = hr02;}",
"1362 1182 OFFCURVE",
"1336 1172 OFFCURVE",
"1313 1166 CURVE",
"1037 543 LINE",
"1008 549 LINE",
"1076 762 OFFCURVE",
"1142 914 OFFCURVE",
"1155 1106 CURVE",
"1077 1160 OFFCURVE",
"967 1183 OFFCURVE",
"894 1183 CURVE SMOOTH",
"836 1183 OFFCURVE",
"785 1188 OFFCURVE",
"736 1170 CURVE",
"480 514 LINE",
"454 517 LINE",
"615 1145 LINE {name = hr03;}",
"587 1173 OFFCURVE",
"535 1186 OFFCURVE",
"474 1186 CURVE SMOOTH",
"367 1186 OFFCURVE",
"216 1141 OFFCURVE",
"157 1061 CURVE",
"144 1025 OFFCURVE",
"168 505 OFFCURVE",
"209 368 CURVE",
"162 253 OFFCURVE",
"150 230 OFFCURVE",
"98 69 CURVE",
"140 13 OFFCURVE",
"244 -20 OFFCURVE",
"347 -20 CURVE SMOOTH"
);
}
);
userData = {
com.typemytype.robofont.guides = (
{
angle = 0;
isGlobal = 0;
x = 0;
y = 563;
},
{
angle = 0;
isGlobal = 0;
x = 0;
y = 366;
},
{
angle = 0;
isGlobal = 0;
x = 0;
y = 788;
},
{
angle = 90;
isGlobal = 0;
x = 867;
y = 0;
}
);
};
width = 1704;
}
);
leftKerningGroup = KO_m;
rightKerningGroup = KO_m;
unicode = 006D;
userData = {
KernOnName = m;
};
},
{
color = 4;
glyphname = n;
lastChange = "2022-07-29 03:12:44 +0000";
layers = (
{
anchors = (
{
name = bottom;
position = "{649, 0}";
},
{
name = top;
position = "{761, 1182}";
}
);
layerId = "ED69ACE7-BE83-49AD-8DAF-057B7A1FF3CB";
paths = (
{
closed = 1;
nodes = (
"435 -20 OFFCURVE",
"498 -8 OFFCURVE",
"549 24 CURVE",
"543 156 OFFCURVE",
"532 253 OFFCURVE",
"511 360 CURVE",
"601 497 OFFCURVE",
"686 638 OFFCURVE",
"771 781 CURVE",
"799 772 LINE {name = hr00;}",
"696 221 LINE SMOOTH",
"684 155 OFFCURVE",
"697 121 OFFCURVE",
"736 73 CURVE SMOOTH",
"778 20 OFFCURVE",
"851 -20 OFFCURVE",
"914 -20 CURVE SMOOTH",
"1029 -20 OFFCURVE",
"1170 151 OFFCURVE",
"1230 279 CURVE",
"1159 400 LINE",
"977 311 LINE",
"1099 535 OFFCURVE",
"1216 867 OFFCURVE",
"1240 1038 CURVE",
"1164 1144 OFFCURVE",
"1037 1180 OFFCURVE",
"909 1180 CURVE SMOOTH",
"861 1180 OFFCURVE",
"814 1177 OFFCURVE",
"774 1165 CURVE",
"654 950 OFFCURVE",
"581 727 OFFCURVE",
"487 514 CURVE",
"471 517 LINE",
"632 1143 LINE",
"605 1171 OFFCURVE",
"553 1180 OFFCURVE",
"492 1180 CURVE SMOOTH",
"378 1180 OFFCURVE",
"231 1138 OFFCURVE",
"176 1061 CURVE",
"174 1053 OFFCURVE",
"171 1053 OFFCURVE",
"171 1006 CURVE SMOOTH",
"171 864 OFFCURVE",
"199 470 OFFCURVE",
"229 368 CURVE",
"191 288 OFFCURVE",
"166 224 OFFCURVE",
"116 66 CURVE",
"159 9 OFFCURVE",
"270 -20 OFFCURVE",
"355 -20 CURVE SMOOTH"
);
}
);
userData = {
com.typemytype.robofont.guides = (
{
angle = 0;
isGlobal = 0;
x = 0;
y = 719;
},
{
angle = 90;
isGlobal = 0;
x = 575;
y = 0;
}
);
};
width = 1192;
}
);
leftKerningGroup = KO_n;
rightKerningGroup = KO_n;
unicode = 006E;
userData = {
KernOnName = n;
};
},
{
color = 4;
glyphname = eng;
lastChange = "2022-07-29 03:12:30 +0000";
layers = (
{
layerId = "ED69ACE7-BE83-49AD-8DAF-057B7A1FF3CB";
paths = (
{
closed = 1;
nodes = (
"832 -438 OFFCURVE",
"981 -311 OFFCURVE",
"995 -254 CURVE",
"1029 -69 OFFCURVE",
"997 223 OFFCURVE",
"980 365 CURVE",
"1099 584 OFFCURVE",
"1212 879 OFFCURVE",
"1240 1038 CURVE",
"1167 1144 OFFCURVE",
"1041 1180 OFFCURVE",
"912 1180 CURVE SMOOTH",
"864 1180 OFFCURVE",
"818 1177 OFFCURVE",
"778 1165 CURVE",
"652 953 OFFCURVE",
"572 733 OFFCURVE",
"468 514 CURVE",
"452 517 LINE",
"635 1143 LINE",
"609 1171 OFFCURVE",
"557 1180 OFFCURVE",
"496 1180 CURVE SMOOTH",
"380 1180 OFFCURVE",
"233 1137 OFFCURVE",
"176 1061 CURVE",
"160 1023 OFFCURVE",
"174 488 OFFCURVE",
"205 368 CURVE",
"161 281 OFFCURVE",
"137 225 OFFCURVE",
"82 66 CURVE",
"122 11 OFFCURVE",
"221 -18 OFFCURVE",
"318 -20 CURVE SMOOTH",
"389 -22 OFFCURVE",
"458 -10 OFFCURVE",
"513 24 CURVE",
"520 158 OFFCURVE",
"502 265 OFFCURVE",
"487 360 CURVE",
"590 509 OFFCURVE",
"689 665 OFFCURVE",
"762 781 CURVE",
"789 772 LINE {name = hr00;}",
"708 394 LINE",
"640 -134 LINE",
"590 -127 OFFCURVE",
"530 -116 OFFCURVE",
"499 -109 CURVE",
"474 -169 OFFCURVE",
"458 -205 OFFCURVE",
"456 -281 CURVE",
"484 -326 OFFCURVE",
"593 -416 OFFCURVE",
"711 -438 CURVE"
);
}
);
width = 1108;
}
);
leftKerningGroup = KO_eng;
rightKerningGroup = KO_eng;
unicode = 014B;
},
{
color = 4;
glyphname = nhookleft;
lastChange = "2022-07-29 03:12:30 +0000";
layers = (
{
anchors = (
{
name = bottom;
position = "{591, 0}";
},
{
name = top;
position = "{762, 1182}";
}
);
layerId = "ED69ACE7-BE83-49AD-8DAF-057B7A1FF3CB";
paths = (
{
closed = 1;
nodes = (
"1099 534 OFFCURVE",
"1216 867 OFFCURVE",
"1240 1038 CURVE",
"1166 1142 OFFCURVE",
"1041 1180 OFFCURVE",
"909 1180 CURVE SMOOTH",
"862 1180 OFFCURVE",
"814 1177 OFFCURVE",
"774 1165 CURVE",
"655 953 OFFCURVE",
"583 733 OFFCURVE",
"487 514 CURVE",
"472 517 LINE",
"632 1143 LINE",
"605 1171 OFFCURVE",
"554 1180 OFFCURVE",
"492 1180 CURVE SMOOTH",
"385 1180 OFFCURVE",
"234 1141 OFFCURVE",
"176 1061 CURVE",
"161 962 OFFCURVE",
"199 472 OFFCURVE",
"229 368 CURVE",
"89 -160 LINE",
"31 -152 OFFCURVE",
"-36 -138 OFFCURVE",
"-52 -135 CURVE",
"-77 -198 OFFCURVE",
"-93 -230 OFFCURVE",
"-95 -307 CURVE",
"-66 -353 OFFCURVE",
"44 -442 OFFCURVE",
"161 -464 CURVE",
"284 -464 OFFCURVE",
"431 -336 OFFCURVE",
"445 -280 CURVE",
"480 -94 OFFCURVE",
"511 234 OFFCURVE",
"501 337 CURVE",
"544 407 OFFCURVE",
"742 733 OFFCURVE",
"771 781 CURVE",
"799 772 LINE {name = hr00;}",
"696 221 LINE SMOOTH",
"684 157 OFFCURVE",
"697 122 OFFCURVE",
"738 71 CURVE SMOOTH",
"779 20 OFFCURVE",
"851 -20 OFFCURVE",
"914 -20 CURVE SMOOTH",
"1029 -20 OFFCURVE",
"1170 151 OFFCURVE",
"1231 279 CURVE",
"1159 400 LINE",
"977 311 LINE"
);
}
);
width = 1192;
}
);
widthMetricsKey = n;
rightKerningGroup = KO_n;
rightMetricsKey = n;
unicode = 0272;
},
{
color = 4;
glyphname = o;
lastChange = "2022-07-29 03:12:30 +0000";
layers = (
{
anchors = (
{
name = bottom;
position = "{543, 0}";
},
{
name = center;
position = "{626, 591}";
},
{
name = ogonek;
position = "{905, 10}";
},
{
name = top;
position = "{699, 1182}";
},
{
name = topright;
position = "{1305, 1182}";
}
);
layerId = "ED69ACE7-BE83-49AD-8DAF-057B7A1FF3CB";
paths = (
{
closed = 1;
nodes = (
"636 -13 OFFCURVE",
"698 8 OFFCURVE",
"790 52 CURVE SMOOTH",
"859 85 OFFCURVE",
"940 130 OFFCURVE",
"970 160 CURVE",
"1059 376 OFFCURVE",
"1148 768 OFFCURVE",
"1148 942 CURVE SMOOTH",
"1148 959 OFFCURVE",
"1147 975 OFFCURVE",
"1146 987 CURVE",
"1072 1092 OFFCURVE",
"861 1188 OFFCURVE",
"695 1204 CURVE {name = hr00;}",
"592 1190 OFFCURVE",
"292 1080 OFFCURVE",
"221 1006 CURVE",
"141 730 OFFCURVE",
"142 438 OFFCURVE",
"146 136 CURVE",
"209 63 OFFCURVE",
"438 -8 OFFCURVE",
"571 -20 CURVE"
);
},
{
closed = 1;
nodes = (
"556 236 OFFCURVE",
"509 264 OFFCURVE",
"469 292 CURVE",
"474 393 OFFCURVE",
"485 499 OFFCURVE",
"498 593 CURVE SMOOTH",
"508 664 OFFCURVE",
"522 744 OFFCURVE",
"543 834 CURVE",
"607 863 LINE",
"753 800 LINE",
"749 689 OFFCURVE",
"741 590 OFFCURVE",
"725 479 CURVE SMOOTH",
"714 401 OFFCURVE",
"704 334 OFFCURVE",
"686 258 CURVE",
"626 220 LINE"
);
}
);
userData = {
com.typemytype.robofont.guides = (
{
angle = 90;
isGlobal = 0;
x = 534;
y = 0;
}
);
};
width = 1084;
}
);
leftKerningGroup = KO_o;
rightKerningGroup = KO_o;
unicode = 006F;
userData = {
KernOnName = o;
};
},
{
color = 4;
glyphname = oopen;
lastChange = "2022-07-29 03:12:30 +0000";
layers = (
{
anchors = (
{
name = bottom;
position = "{451, 0}";
},
{
name = top;
position = "{616, 1182}";
}
);
layerId = "ED69ACE7-BE83-49AD-8DAF-057B7A1FF3CB";
paths = (
{
closed = 1;
nodes = (
"563 -20 OFFCURVE",
"727 109 OFFCURVE",
"753 128 CURVE SMOOTH",
"833 188 OFFCURVE",
"819 212 OFFCURVE",
"821 273 CURVE SMOOTH {name = hr00;}",
"825 398 OFFCURVE",
"909 759 OFFCURVE",
"961 868 CURVE SMOOTH",
"981 909 OFFCURVE",
"987 922 OFFCURVE",
"987 936 CURVE SMOOTH",
"987 993 OFFCURVE",
"879 1082 OFFCURVE",
"835 1111 CURVE SMOOTH",
"786 1143 OFFCURVE",
"671 1204 OFFCURVE",
"609 1204 CURVE SMOOTH",
"549 1204 OFFCURVE",
"418 1130 OFFCURVE",
"366 1107 CURVE",
"173 1059 LINE",
"106 830 OFFCURVE",
"244 649 OFFCURVE",
"294 633 CURVE",
"404 693 OFFCURVE",
"485 799 OFFCURVE",
"564 889 CURVE",
"528 745 OFFCURVE",
"496 476 OFFCURVE",
"507 300 CURVE",
"486 284 LINE",
"444 303 OFFCURVE",
"312 373 OFFCURVE",
"190 443 CURVE",
"68 290 LINE",
"103 204 OFFCURVE",
"317 -20 OFFCURVE",
"472 -20 CURVE SMOOTH"
);
}
);
width = 902;
}
);
rightKerningGroup = KO_oopen;
unicode = 0254;
},
{
color = 4;
glyphname = oslash;
lastChange = "2022-07-29 03:12:30 +0000";
layers = (
{
anchors = (
{
name = bottom;
position = "{542, 0}";
},
{
name = center;
position = "{624, 591}";
},
{
name = ogonek;
position = "{979, 10}";
},
{
name = top;
position = "{697, 1182}";
},
{
name = topright;
position = "{1367, 1182}";
}
);
layerId = "ED69ACE7-BE83-49AD-8DAF-057B7A1FF3CB";
paths = (
{
closed = 1;
nodes = (
"630 -14 OFFCURVE",
"703 11 OFFCURVE",
"790 52 CURVE SMOOTH",
"851 81 OFFCURVE",
"948 136 OFFCURVE",
"968 160 CURVE",
"1051 359 OFFCURVE",
"1146 753 OFFCURVE",
"1146 950 CURVE SMOOTH",
"1146 963 OFFCURVE",
"1146 974 OFFCURVE",
"1145 987 CURVE",
"1072 1092 OFFCURVE",
"858 1188 OFFCURVE",
"695 1204 CURVE {name = hr00;}",
"591 1190 OFFCURVE",
"291 1079 OFFCURVE",
"221 1006 CURVE",
"140 730 OFFCURVE",
"140 440 OFFCURVE",
"144 136 CURVE",
"208 63 OFFCURVE",
"437 -8 OFFCURVE",
"569 -20 CURVE"
);
},
{
closed = 1;
nodes = (
"489 154 LINE",
"354 351 LINE",
"89 -106 LINE",
"120 -187 OFFCURVE",
"172 -210 OFFCURVE",
"244 -218 CURVE"
);
},
{
closed = 1;
nodes = (
"559 213 OFFCURVE",
"504 239 OFFCURVE",
"452 277 CURVE",
"457 390 OFFCURVE",
"468 495 OFFCURVE",
"483 601 CURVE SMOOTH",
"494 679 OFFCURVE",
"510 767 OFFCURVE",
"531 852 CURVE",
"599 883 LINE",
"753 816 LINE",
"753 814 OFFCURVE",
"753 811 OFFCURVE",
"753 811 CURVE SMOOTH",
"747 644 OFFCURVE",
"705 337 OFFCURVE",
"682 241 CURVE",
"618 200 LINE"
);
},
{
closed = 1;
nodes = (
"1219 1267 LINE",
"1189 1370 OFFCURVE",
"1147 1403 OFFCURVE",
"1061 1434 CURVE",
"795 992 LINE",
"908 802 LINE {name = hr00;}"
);
},
{
closed = 1;
nodes = (
"415 318 LINE",
"500 200 LINE",
"803 730 LINE",
"800 862 LINE",
"704 876 LINE"
);
}
);
width = 1083;
}
);
leftKerningGroup = KO_oacute;
rightKerningGroup = KO_eth;
unicode = 00F8;
},
{
color = 4;
glyphname = oe;
lastChange = "2022-07-29 03:12:30 +0000";
layers = (
{
layerId = "ED69ACE7-BE83-49AD-8DAF-057B7A1FF3CB";
paths = (
{
closed = 1;
nodes = (
"1085 -22 OFFCURVE",
"1369 190 OFFCURVE",
"1463 297 CURVE",
"1398 436 LINE",
"1260 374 OFFCURVE",
"1120 295 OFFCURVE",
"1050 282 CURVE",
"1021 282 LINE",
"1252 467 OFFCURVE",
"1501 718 OFFCURVE",
"1535 769 CURVE SMOOTH {name = hr00;}",
"1563 812 OFFCURVE",
"1578 902 OFFCURVE",
"1577 964 CURVE SMOOTH",
"1576 1021 OFFCURVE",
"1570 1028 OFFCURVE",
"1550 1036 CURVE SMOOTH",
"1447 1076 OFFCURVE",
"1405 1086 OFFCURVE",
"1261 1192 CURVE SMOOTH",
"1231 1214 OFFCURVE",
"1203 1222 OFFCURVE",
"1187 1222 CURVE",
"1116 1222 OFFCURVE",
"990 1169 OFFCURVE",
"917 1127 CURVE SMOOTH",
"909 1122 LINE",
"836 1172 OFFCURVE",
"750 1204 OFFCURVE",
"694 1204 CURVE SMOOTH",
"632 1204 OFFCURVE",
"317 1101 OFFCURVE",
"236 1011 CURVE SMOOTH",
"232 1007 OFFCURVE",
"143 887 OFFCURVE",
"143 303 CURVE SMOOTH",
"143 261 OFFCURVE",
"143 215 OFFCURVE",
"144 171 CURVE SMOOTH",
"146 59 OFFCURVE",
"434 -6 OFFCURVE",
"569 -20 CURVE",
"621 -15 OFFCURVE",
"696 21 OFFCURVE",
"775 73 CURVE",
"776 73 LINE",
"788 60 OFFCURVE",
"797 51 OFFCURVE",
"809 36 CURVE SMOOTH",
"845 -7 OFFCURVE",
"877 -22 OFFCURVE",
"907 -22 CURVE SMOOTH"
);
},
{
closed = 1;
nodes = (
"560 235 OFFCURVE",
"515 259 OFFCURVE",
"468 292 CURVE",
"473 393 OFFCURVE",
"481 484 OFFCURVE",
"497 594 CURVE SMOOTH",
"509 678 OFFCURVE",
"522 748 OFFCURVE",
"542 834 CURVE",
"606 863 LINE",
"752 800 LINE",
"748 687 OFFCURVE",
"738 581 OFFCURVE",
"724 480 CURVE SMOOTH",
"713 402 OFFCURVE",
"702 331 OFFCURVE",
"685 258 CURVE",
"625 220 LINE"
);
},
{
closed = 1;
nodes = (
"1022 416 OFFCURVE",
"1024 419 OFFCURVE",
"1024 420 CURVE SMOOTH",
"1049 513 OFFCURVE",
"1100 800 OFFCURVE",
"1107 849 CURVE",
"1194 820 OFFCURVE",
"1257 801 OFFCURVE",
"1293 792 CURVE",
"1216 656 OFFCURVE",
"1071 477 OFFCURVE",
"1022 415 CURVE"
);
}
);
width = 1488;
}
);
leftKerningGroup = KO_oacute;
rightKerningGroup = KO_e;
unicode = 0153;
},
{
color = 4;
glyphname = p;
lastChange = "2022-07-29 03:12:30 +0000";
layers = (
{
anchors = (
{
name = bottom;
position = "{1030, -6}";
},
{
name = top;
position = "{728, 1182}";
}
);
layerId = "ED69ACE7-BE83-49AD-8DAF-057B7A1FF3CB";
paths = (
{
closed = 1;
nodes = (
"430 -438 OFFCURVE",
"561 -363 OFFCURVE",
"616 -295 CURVE",
"600 -132 LINE",
"408 -132 LINE",
"435 -59 OFFCURVE",
"455 7 OFFCURVE",
"469 59 CURVE {name = hr00;}",
"525 27 OFFCURVE",
"660 -20 OFFCURVE",
"803 -20 CURVE SMOOTH",
"839 -20 OFFCURVE",
"870 -14 OFFCURVE",
"903 -5 CURVE",
"1089 413 OFFCURVE",
"1183 722 OFFCURVE",
"1234 1038 CURVE",
"1129 1141 OFFCURVE",
"973 1184 OFFCURVE",
"897 1184 CURVE SMOOTH",
"839 1184 OFFCURVE",
"809 1170 OFFCURVE",
"786 1165 CURVE",
"465 523 LINE",
"462 524 LINE",
"622 1143 LINE",
"595 1171 OFFCURVE",
"543 1184 OFFCURVE",
"481 1184 CURVE SMOOTH",
"373 1184 OFFCURVE",
"234 1141 OFFCURVE",
"174 1061 CURVE",
"173 1051 LINE SMOOTH",
"165 987 OFFCURVE",
"181 702 OFFCURVE",
"203 512 CURVE",
"125 -227 LINE",
"117 -314 OFFCURVE",
"142 -338 OFFCURVE",
"193 -377 CURVE SMOOTH",
"233 -408 OFFCURVE",
"287 -438 OFFCURVE",
"340 -438 CURVE SMOOTH"
);
},
{
closed = 1;
nodes = (
"656 232 OFFCURVE",
"548 271 OFFCURVE",
"496 320 CURVE",
"531 381 OFFCURVE",
"712 675 OFFCURVE",
"781 785 CURVE",
"808 777 LINE",
"788 651 OFFCURVE",
"736 379 OFFCURVE",
"700 229 CURVE"
);
}
);
userData = {
com.typemytype.robofont.guides = (
{
angle = 90;
isGlobal = 0;
x = 571;
y = 0;
}
);
};
width = 1125;
}
);
leftKerningGroup = KO_p;
rightKerningGroup = KO_p;
unicode = 0070;
userData = {
KernOnName = p;
};
},
{
color = 4;
glyphname = thorn;
lastChange = "2022-07-29 03:12:30 +0000";
layers = (
{
layerId = "ED69ACE7-BE83-49AD-8DAF-057B7A1FF3CB";
paths = (
{
closed = 1;
nodes = (
"376 -438 OFFCURVE",
"512 -364 OFFCURVE",
"569 -295 CURVE",
"559 -132 LINE",
"367 -132 LINE",
"398 -52 OFFCURVE",
"414 -9 OFFCURVE",
"435 59 CURVE {name = hr00;}",
"489 27 OFFCURVE",
"623 -20 OFFCURVE",
"766 -20 CURVE SMOOTH",
"802 -20 OFFCURVE",
"833 -14 OFFCURVE",
"866 -5 CURVE",
"1065 407 OFFCURVE",
"1172 726 OFFCURVE",
"1234 1038 CURVE",
"1132 1141 OFFCURVE",
"978 1184 OFFCURVE",
"902 1184 CURVE SMOOTH",
"844 1184 OFFCURVE",
"813 1170 OFFCURVE",
"790 1165 CURVE",
"448 525 LINE",
"540 872 OFFCURVE",
"647 1231 OFFCURVE",
"712 1566 CURVE",
"675 1600 OFFCURVE",
"623 1613 OFFCURVE",
"566 1613 CURVE SMOOTH",
"446 1613 OFFCURVE",
"302 1548 OFFCURVE",
"223 1466 CURVE",
"211 1435 OFFCURVE",
"180 834 OFFCURVE",
"189 527 CURVE",
"184 512 LINE",
"81 -227 LINE SMOOTH",
"68 -317 OFFCURVE",
"98 -342 OFFCURVE",
"143 -377 CURVE SMOOTH",
"182 -408 OFFCURVE",
"235 -438 OFFCURVE",
"288 -438 CURVE SMOOTH"
);
},
{
closed = 1;
nodes = (
"620 218 OFFCURVE",
"513 253 OFFCURVE",
"465 300 CURVE",
"511 376 OFFCURVE",
"723 700 OFFCURVE",
"778 785 CURVE",
"805 777 LINE",
"780 651 OFFCURVE",
"707 364 OFFCURVE",
"664 215 CURVE"
);
}
);
width = 1129;
}
);
leftKerningGroup = KO_thorn;
rightKerningGroup = KO_thorn;
unicode = 00FE;
},
{
color = 4;
glyphname = q;
lastChange = "2022-07-29 03:12:30 +0000";
layers = (
{
layerId = "ED69ACE7-BE83-49AD-8DAF-057B7A1FF3CB";
paths = (
{
closed = 1;
nodes = (
"927 -437 OFFCURVE",
"965 -420 OFFCURVE",
"1015 -376 CURVE SMOOTH",
"1080 -319 OFFCURVE",
"1134 -232 OFFCURVE",
"1188 -127 CURVE",
"1114 -27 LINE",
"981 -97 LINE",
"982 313 LINE",
"1112 548 OFFCURVE",
"1254 996 OFFCURVE",
"1256 1061 CURVE {name = hr01;}",
"1197 1145 OFFCURVE",
"1118 1182 OFFCURVE",
"996 1182 CURVE SMOOTH {name = hr02;}",
"920 1182 OFFCURVE",
"848 1168 OFFCURVE",
"824 1154 CURVE",
"820 1122 OFFCURVE",
"813 1026 OFFCURVE",
"798 908 CURVE",
"753 1010 OFFCURVE",
"699 1123 OFFCURVE",
"604 1198 CURVE {name = hr03;}",
"560 1192 OFFCURVE",
"358 1162 OFFCURVE",
"211 1004 CURVE SMOOTH",
"182 973 OFFCURVE",
"177 958 OFFCURVE",
"177 936 CURVE SMOOTH",
"177 934 OFFCURVE",
"178 913 OFFCURVE",
"181 895 CURVE SMOOTH",
"190 835 OFFCURVE",
"193 776 OFFCURVE",
"193 701 CURVE SMOOTH",
"193 194 OFFCURVE",
"136 538 OFFCURVE",
"136 140 CURVE SMOOTH",
"136 91 OFFCURVE",
"209 65 OFFCURVE",
"251 31 CURVE SMOOTH",
"286 3 OFFCURVE",
"319 -22 OFFCURVE",
"354 -20 CURVE SMOOTH",
"373 -19 OFFCURVE",
"395 -9 OFFCURVE",
"412 4 CURVE SMOOTH",
"521 87 OFFCURVE",
"674 348 OFFCURVE",
"752 497 CURVE",
"772 495 LINE",
"616 -208 LINE SMOOTH",
"602 -271 OFFCURVE",
"622 -315 OFFCURVE",
"679 -360 CURVE SMOOTH",
"739 -408 OFFCURVE",
"805 -441 OFFCURVE",
"889 -438 CURVE SMOOTH"
);
},
{
closed = 1;
nodes = (
"469 353 LINE",
"511 471 OFFCURVE",
"544 587 OFFCURVE",
"562 713 CURVE SMOOTH",
"577 820 LINE",
"638 805 OFFCURVE",
"703 794 OFFCURVE",
"780 774 CURVE",
"769 696 OFFCURVE",
"779 750 OFFCURVE",
"767 694 CURVE",
"721 619 OFFCURVE",
"581 412 OFFCURVE",
"497 339 CURVE"
);
}
);
width = 1134;
}
);
leftKerningGroup = KO_g;
rightKerningGroup = KO_q;
unicode = 0071;
},
{
color = 4;
glyphname = r;
lastChange = "2022-07-29 03:12:30 +0000";
layers = (
{
anchors = (
{
name = bottom;
position = "{394, 0}";
},
{
name = top;
position = "{680, 1182}";
}
);
layerId = "ED69ACE7-BE83-49AD-8DAF-057B7A1FF3CB";
paths = (
{
closed = 1;
nodes = (
"493 -20 OFFCURVE",
"618 36 OFFCURVE",
"718 164 CURVE",
"679 298 LINE",
"493 274 LINE",
"566 453 OFFCURVE",
"651 672 OFFCURVE",
"711 796 CURVE",
"759 788 LINE",
"749 705 OFFCURVE",
"726 549 OFFCURVE",
"717 490 CURVE",
"803 469 OFFCURVE",
"888 464 OFFCURVE",
"991 517 CURVE",
"1042 648 OFFCURVE",
"1123 900 OFFCURVE",
"1123 1096 CURVE",
"1074 1133 OFFCURVE",
"971 1180 OFFCURVE",
"836 1180 CURVE SMOOTH",
"797 1180 OFFCURVE",
"755 1176 OFFCURVE",
"711 1166 CURVE",
"620 1015 OFFCURVE",
"534 672 OFFCURVE",
"489 545 CURVE",
"478 547 LINE {name = hr00;}",
"569 1149 LINE",
"529 1170 OFFCURVE",
"479 1180 OFFCURVE",
"428 1180 CURVE SMOOTH",
"329 1180 OFFCURVE",
"221 1140 OFFCURVE",
"157 1063 CURVE",
"251 455 LINE",
"143 257 LINE SMOOTH",
"97 173 OFFCURVE",
"176 54 OFFCURVE",
"201 28 CURVE SMOOTH",
"239 -12 OFFCURVE",
"303 -20 OFFCURVE",
"366 -20 CURVE SMOOTH"
);
}
);
userData = {
com.typemytype.robofont.guides = (
{
angle = 0;
isGlobal = 0;
x = 0;
y = 1186;
},
{
angle = 90;
isGlobal = 0;
x = 372;
y = 0;
}
);
};
width = 1027;
}
);
leftKerningGroup = KO_r;
rightKerningGroup = KO_r;
unicode = 0072;
userData = {
KernOnName = r;
};
},
{
color = 4;
glyphname = s;
lastChange = "2022-07-29 03:12:30 +0000";
layers = (
{
anchors = (
{
name = bottom;
position = "{455, 0}";
},
{
name = top;
position = "{620, 1182}";
}
);
layerId = "ED69ACE7-BE83-49AD-8DAF-057B7A1FF3CB";
paths = (
{
closed = 1;
nodes = (
"655 24 OFFCURVE",
"751 92 OFFCURVE",
"838 168 CURVE",
"873 242 OFFCURVE",
"898 336 OFFCURVE",
"905 417 CURVE",
"841 514 OFFCURVE",
"590 677 OFFCURVE",
"503 727 CURVE",
"538 913 LINE",
"565 922 LINE {name = hr00;}",
"621 828 OFFCURVE",
"732 718 OFFCURVE",
"808 684 CURVE",
"941 804 OFFCURVE",
"1018 948 OFFCURVE",
"1000 1068 CURVE",
"847 1122 LINE",
"792 1146 OFFCURVE",
"714 1204 OFFCURVE",
"656 1204 CURVE SMOOTH",
"579 1204 OFFCURVE",
"449 1147 OFFCURVE",
"382 1110 CURVE SMOOTH",
"206 1013 OFFCURVE",
"152 937 OFFCURVE",
"152 633 CURVE SMOOTH",
"152 617 OFFCURVE",
"152 605 OFFCURVE",
"154 594 CURVE",
"196 525 OFFCURVE",
"363 444 OFFCURVE",
"482 397 CURVE SMOOTH",
"523 381 OFFCURVE",
"573 364 OFFCURVE",
"587 360 CURVE",
"584 321 OFFCURVE",
"575 270 OFFCURVE",
"562 229 CURVE",
"510 205 LINE",
"412 285 OFFCURVE",
"297 370 OFFCURVE",
"157 374 CURVE",
"137 342 OFFCURVE",
"35 237 OFFCURVE",
"110 55 CURVE",
"191 42 OFFCURVE",
"363 -13 OFFCURVE",
"541 -20 CURVE"
);
}
);
userData = {
com.typemytype.robofont.guides = (
{
angle = 0;
isGlobal = 0;
x = 0;
y = 1131;
},
{
angle = 90;
isGlobal = 0;
x = 434;
y = 0;
}
);
};
width = 905;
}
);
leftKerningGroup = KO_s;
rightKerningGroup = KO_s;
unicode = 0073;
userData = {
KernOnName = s;
};
},
{
color = 4;
glyphname = saltillo;
lastChange = "2022-07-29 03:12:30 +0000";
layers = (
{
layerId = "ED69ACE7-BE83-49AD-8DAF-057B7A1FF3CB";
paths = (
{
closed = 1;
nodes = (
"340 468 OFFCURVE",
"391 535 OFFCURVE",
"400 567 CURVE",
"543 1172 OFFCURVE",
"579 1248 OFFCURVE",
"636 1566 CURVE",
"597 1601 OFFCURVE",
"546 1614 OFFCURVE",
"486 1613 CURVE SMOOTH",
"367 1612 OFFCURVE",
"228 1547 OFFCURVE",
"153 1466 CURVE",
"144 1436 OFFCURVE",
"128 922 OFFCURVE",
"145 606 CURVE",
"146 560 OFFCURVE",
"165 487 OFFCURVE",
"239 468 CURVE {name = hr00;}"
);
}
);
width = 538;
}
);
leftKerningGroup = KO_Delta;
leftMetricsKey = l;
rightMetricsKey = l;
unicode = A78C;
},
{
color = 4;
glyphname = germandbls;
lastChange = "2022-07-29 03:12:30 +0000";
layers = (
{
layerId = "ED69ACE7-BE83-49AD-8DAF-057B7A1FF3CB";
paths = (
{
closed = 1;
nodes = (
"212 -438 OFFCURVE",
"346 -343 OFFCURVE",
"397 -281 CURVE SMOOTH",
"419 -255 OFFCURVE",
"430 -237 OFFCURVE",
"436 -214 CURVE",
"629 1297 LINE",
"647 1311 LINE",
"711 1265 OFFCURVE",
"795 1211 OFFCURVE",
"850 1187 CURVE",
"632 654 LINE",
"856 635 LINE",
"1003 816 OFFCURVE",
"1253 1165 OFFCURVE",
"1315 1380 CURVE",
"1153 1518 OFFCURVE",
"868 1601 OFFCURVE",
"709 1613 CURVE",
"533 1565 OFFCURVE",
"370 1438 OFFCURVE",
"246 1295 CURVE",
"211 1111 OFFCURVE",
"162 187 OFFCURVE",
"185 -137 CURVE",
"22 -116 OFFCURVE",
"-22 -106 OFFCURVE",
"-58 -99 CURVE",
"-91 -162 OFFCURVE",
"-113 -204 OFFCURVE",
"-125 -281 CURVE",
"-104 -327 OFFCURVE",
"-7 -416 OFFCURVE",
"106 -438 CURVE"
);
},
{
closed = 1;
nodes = (
"954 17 OFFCURVE",
"1067 86 OFFCURVE",
"1162 167 CURVE",
"1207 233 OFFCURVE",
"1307 404 OFFCURVE",
"1322 486 CURVE",
"1269 582 OFFCURVE",
"1034 762 OFFCURVE",
"951 814 CURVE",
"632 654 LINE {name = hr00;}",
"679 579 OFFCURVE",
"885 476 OFFCURVE",
"978 432 CURVE",
"962 376 OFFCURVE",
"933 299 OFFCURVE",
"900 234 CURVE",
"876 227 LINE",
"829 301 OFFCURVE",
"796 375 OFFCURVE",
"675 391 CURVE",
"654 363 OFFCURVE",
"526 236 OFFCURVE",
"584 54 CURVE",
"657 35 OFFCURVE",
"762 3 OFFCURVE",
"847 -21 CURVE"
);
}
);
width = 1249;
}
);
leftKerningGroup = KO_germandbls;
rightKerningGroup = KO_germandbls;
unicode = 00DF;
},
{
color = 4;
glyphname = t;
lastChange = "2022-07-29 03:12:30 +0000";
layers = (
{
anchors = (
{
name = bottom;
position = "{414, 0}";
},
{
name = center;
position = "{496, 591}";
},
{
name = top;
position = "{562, 1439}";
},
{
name = topright;
position = "{972, 1182}";
}
);
layerId = "ED69ACE7-BE83-49AD-8DAF-057B7A1FF3CB";
paths = (
{
closed = 1;
nodes = (
"588 -20 OFFCURVE",
"823 251 OFFCURVE",
"876 349 CURVE",
"769 490 LINE",
"528 312 LINE {name = hr00;}",
"599 841 LINE",
"677 844 OFFCURVE",
"773 850 OFFCURVE",
"834 855 CURVE",
"862 908 OFFCURVE",
"941 1044 OFFCURVE",
"879 1182 CURVE",
"651 1137 LINE",
"701 1418 LINE",
"611 1470 OFFCURVE",
"450 1464 OFFCURVE",
"400 1439 CURVE",
"288 1076 LINE",
"171 1037 LINE",
"160 984 OFFCURVE",
"155 907 OFFCURVE",
"166 860 CURVE",
"261 854 LINE",
"261 496 LINE",
"179 314 OFFCURVE",
"164 265 OFFCURVE",
"160 240 CURVE",
"147 117 OFFCURVE",
"336 -20 OFFCURVE",
"457 -20 CURVE SMOOTH"
);
}
);
userData = {
com.typemytype.robofont.guides = (
{
angle = 0;
isGlobal = 0;
x = 0;
y = 1116;
},
{
angle = 90;
isGlobal = 0;
x = 367;
y = 0;
}
);
};
width = 824;
}
);
leftKerningGroup = KO_t;
rightKerningGroup = KO_t;
unicode = 0074;
userData = {
KernOnName = t;
};
},
{
glyphname = tbar;
lastChange = "2022-05-20 00:37:12 +0000";
layers = (
{
layerId = "ED69ACE7-BE83-49AD-8DAF-057B7A1FF3CB";
paths = (
{
closed = 1;
nodes = (
"601 -20 OFFCURVE",
"770 185 OFFCURVE",
"828 289 CURVE",
"715 433 LINE",
"494 312 LINE",
"492 861 LINE",
"569 864 OFFCURVE",
"664 870 OFFCURVE",
"725 875 CURVE {name = hr02;}",
"746 932 OFFCURVE",
"805 1044 OFFCURVE",
"724 1182 CURVE",
"502 1137 LINE",
"513 1418 LINE",
"416 1470 OFFCURVE",
"256 1464 OFFCURVE",
"209 1439 CURVE",
"158 1076 LINE",
"36 1037 LINE",
"33 1000 OFFCURVE",
"36 923 OFFCURVE",
"56 869 CURVE",
"162 863 LINE",
"202 496 LINE",
"145 313 OFFCURVE",
"137 265 OFFCURVE",
"137 240 CURVE SMOOTH",
"137 119 OFFCURVE",
"348 -20 OFFCURVE",
"470 -20 CURVE SMOOTH"
);
},
{
closed = 1;
nodes = (
"392 489 OFFCURVE",
"636 501 OFFCURVE",
"706 507 CURVE",
"751 571 OFFCURVE",
"763 697 OFFCURVE",
"722 774 CURVE",
"323 736 LINE",
"64 686 LINE",
"49 618 OFFCURVE",
"54 566 OFFCURVE",
"78 501 CURVE {name = hr01;}"
);
}
);
width = 847;
}
);
unicode = 0167;
},
{
color = 4;
glyphname = u;
lastChange = "2022-07-29 03:12:30 +0000";
layers = (
{
anchors = (
{
name = bottom;
position = "{582, 0}";
},
{
name = ogonek;
position = "{1161, 10}";
},
{
name = top;
position = "{728, 1182}";
},
{
name = topright;
position = "{1458, 1182}";
}
);
layerId = "ED69ACE7-BE83-49AD-8DAF-057B7A1FF3CB";
paths = (
{
closed = 1;
nodes = (
"432 -20 OFFCURVE",
"631 324 OFFCURVE",
"723 497 CURVE",
"736 490 LINE",
"712 403 OFFCURVE",
"666 226 OFFCURVE",
"665 222 CURVE SMOOTH",
"663 213 OFFCURVE",
"657 186 OFFCURVE",
"657 168 CURVE SMOOTH",
"657 121 OFFCURVE",
"679 101 OFFCURVE",
"695 80 CURVE SMOOTH",
"742 20 OFFCURVE",
"815 -20 OFFCURVE",
"877 -20 CURVE SMOOTH",
"979 -20 OFFCURVE",
"1096 92 OFFCURVE",
"1203 279 CURVE",
"1135 400 LINE",
"949 308 LINE",
"1075 532 OFFCURVE",
"1213 956 OFFCURVE",
"1225 1050 CURVE SMOOTH",
"1226 1061 LINE",
"1167 1145 OFFCURVE",
"1089 1182 OFFCURVE",
"967 1182 CURVE SMOOTH {name = hr02;}",
"890 1182 OFFCURVE",
"818 1168 OFFCURVE",
"795 1154 CURVE",
"791 1125 OFFCURVE",
"787 1080 OFFCURVE",
"769 764 CURVE",
"738 689 OFFCURVE",
"586 436 OFFCURVE",
"500 361 CURVE",
"471 375 LINE",
"533 547 OFFCURVE",
"573 731 OFFCURVE",
"601 932 CURVE SMOOTH",
"613 1020 OFFCURVE",
"622 1106 OFFCURVE",
"624 1174 CURVE {name = hr01;}",
"603 1185 OFFCURVE",
"568 1191 OFFCURVE",
"523 1191 CURVE SMOOTH",
"402 1191 OFFCURVE",
"222 1141 OFFCURVE",
"147 1004 CURVE",
"242 573 LINE",
"101 162 LINE",
"93 109 OFFCURVE",
"195 51 OFFCURVE",
"221 31 CURVE SMOOTH",
"257 2 OFFCURVE",
"290 -20 OFFCURVE",
"325 -20 CURVE SMOOTH"
);
}
);
userData = {
com.typemytype.robofont.guides = (
{
angle = 90;
isGlobal = 0;
x = 553;
y = 0;
}
);
};
width = 1164;
}
);
leftKerningGroup = KO_u;
rightKerningGroup = KO_a;
unicode = 0075;
userData = {
KernOnName = u;
};
},
{
glyphname = ubar;
lastChange = "2022-07-29 02:54:56 +0000";
layers = (
{
layerId = "ED69ACE7-BE83-49AD-8DAF-057B7A1FF3CB";
paths = (
{
closed = 1;
nodes = (
"275 602 OFFCURVE",
"1142 609 OFFCURVE",
"1204 615 CURVE",
"1243 704 OFFCURVE",
"1270 798 OFFCURVE",
"1253 878 CURVE",
"40 824 LINE",
"6 759 OFFCURVE",
"-10 708 OFFCURVE",
"-1 614 CURVE {name = hr00;}"
);
},
{
closed = 1;
nodes = (
"480 -20 OFFCURVE",
"630 324 OFFCURVE",
"698 497 CURVE",
"713 490 LINE",
"699 400 OFFCURVE",
"689 322 OFFCURVE",
"679 221 CURVE SMOOTH",
"678 211 OFFCURVE",
"677 202 OFFCURVE",
"677 193 CURVE SMOOTH",
"677 126 OFFCURVE",
"707 104 OFFCURVE",
"729 80 CURVE SMOOTH",
"784 20 OFFCURVE",
"861 -20 OFFCURVE",
"924 -20 CURVE SMOOTH",
"1040 -20 OFFCURVE",
"1140 120 OFFCURVE",
"1209 279 CURVE",
"1124 400 LINE",
"951 308 LINE",
"1045 531 OFFCURVE",
"1123 956 OFFCURVE",
"1123 1050 CURVE SMOOTH",
"1123 1061 LINE",
"1052 1145 OFFCURVE",
"968 1182 OFFCURVE",
"846 1182 CURVE SMOOTH {name = hr02;}",
"769 1182 OFFCURVE",
"699 1168 OFFCURVE",
"678 1154 CURVE",
"678 1122 OFFCURVE",
"683 1050 OFFCURVE",
"707 764 CURVE",
"687 689 OFFCURVE",
"569 434 OFFCURVE",
"494 361 CURVE",
"464 375 LINE",
"503 557 OFFCURVE",
"515 735 OFFCURVE",
"515 931 CURVE SMOOTH",
"515 1017 OFFCURVE",
"512 1100 OFFCURVE",
"505 1174 CURVE {name = hr01;}",
"482 1185 OFFCURVE",
"445 1191 OFFCURVE",
"401 1191 CURVE SMOOTH",
"279 1191 OFFCURVE",
"107 1141 OFFCURVE",
"52 1004 CURVE",
"207 573 LINE",
"123 162 LINE",
"123 109 OFFCURVE",
"213 66 OFFCURVE",
"262 31 CURVE SMOOTH",
"302 2 OFFCURVE",
"335 -20 OFFCURVE",
"372 -20 CURVE SMOOTH"
);
}
);
width = 1255;
}
);
leftMetricsKey = "=|";
rightMetricsKey = t;
unicode = 0289;
},
{
color = 4;
glyphname = v;
lastChange = "2022-07-29 03:12:30 +0000";
layers = (
{
layerId = "ED69ACE7-BE83-49AD-8DAF-057B7A1FF3CB";
paths = (
{
closed = 1;
nodes = (
"619 -21 OFFCURVE",
"731 0 OFFCURVE",
"789 44 CURVE",
"786 129 OFFCURVE",
"776 176 OFFCURVE",
"762 219 CURVE",
"933 451 OFFCURVE",
"1152 816 OFFCURVE",
"1161 830 CURVE",
"1175 964 OFFCURVE",
"1139 1125 OFFCURVE",
"1056 1204 CURVE",
"925 1188 OFFCURVE",
"743 1068 OFFCURVE",
"668 932 CURVE",
"697 835 OFFCURVE",
"752 787 OFFCURVE",
"801 739 CURVE",
"766 632 OFFCURVE",
"692 442 OFFCURVE",
"620 304 CURVE",
"607 305 LINE",
"626 558 OFFCURVE",
"602 1025 OFFCURVE",
"585 1079 CURVE",
"584 1079 LINE",
"545 1193 OFFCURVE",
"381 1194 OFFCURVE",
"257 1110 CURVE SMOOTH",
"188 1063 OFFCURVE",
"148 973 OFFCURVE",
"124 889 CURVE",
"261 693 LINE",
"336 283 LINE",
"307 234 OFFCURVE",
"288 192 OFFCURVE",
"252 47 CURVE {name = hr00;}",
"291 3 OFFCURVE",
"402 -21 OFFCURVE",
"513 -21 CURVE SMOOTH"
);
}
);
width = 1062;
}
);
leftKerningGroup = KO_v;
rightKerningGroup = KO_v;
unicode = 0076;
userData = {
KernOnName = v;
};
},
{
color = 4;
glyphname = vturned;
lastChange = "2022-07-29 03:12:30 +0000";
layers = (
{
layerId = "ED69ACE7-BE83-49AD-8DAF-057B7A1FF3CB";
paths = (
{
closed = 1;
nodes = (
"279 -6 OFFCURVE",
"464 111 OFFCURVE",
"542 251 CURVE",
"513 348 OFFCURVE",
"456 397 OFFCURVE",
"409 444 CURVE",
"448 566 OFFCURVE",
"527 758 OFFCURVE",
"590 879 CURVE",
"603 878 LINE",
"583 617 OFFCURVE",
"609 155 OFFCURVE",
"625 104 CURVE",
"626 104 LINE",
"667 -11 OFFCURVE",
"827 -12 OFFCURVE",
"955 75 CURVE SMOOTH",
"1021 120 OFFCURVE",
"1061 208 OFFCURVE",
"1086 294 CURVE",
"948 490 LINE",
"873 900 LINE",
"905 950 OFFCURVE",
"926 1010 OFFCURVE",
"958 1136 CURVE {name = hr00;}",
"919 1180 OFFCURVE",
"808 1204 OFFCURVE",
"696 1204 CURVE SMOOTH",
"590 1204 OFFCURVE",
"479 1183 OFFCURVE",
"420 1139 CURVE",
"423 1060 OFFCURVE",
"434 1008 OFFCURVE",
"448 964 CURVE",
"277 732 OFFCURVE",
"110 451 OFFCURVE",
"49 353 CURVE",
"35 217 OFFCURVE",
"70 57 OFFCURVE",
"154 -21 CURVE"
);
}
);
width = 1062;
}
);
leftKerningGroup = KO_vturned;
rightKerningGroup = KO_vturned;
unicode = 028C;
},
{
color = 4;
glyphname = w;
lastChange = "2022-07-29 03:12:30 +0000";
layers = (
{
anchors = (
{
name = bottom;
position = "{818, 0}";
},
{
name = top;
position = "{983, 1182}";
}
);
layerId = "ED69ACE7-BE83-49AD-8DAF-057B7A1FF3CB";
paths = (
{
closed = 1;
nodes = (
"1221 -21 OFFCURVE",
"1325 0 OFFCURVE",
"1382 44 CURVE",
"1376 116 OFFCURVE",
"1364 170 OFFCURVE",
"1344 219 CURVE",
"1506 450 OFFCURVE",
"1678 755 OFFCURVE",
"1720 830 CURVE",
"1729 965 OFFCURVE",
"1684 1125 OFFCURVE",
"1598 1204 CURVE",
"1468 1188 OFFCURVE",
"1292 1068 OFFCURVE",
"1224 932 CURVE {name = hr01;}",
"1257 835 OFFCURVE",
"1314 788 OFFCURVE",
"1367 739 CURVE",
"1339 635 OFFCURVE",
"1265 445 OFFCURVE",
"1196 306 CURVE",
"1181 306 LINE",
"1188 450 OFFCURVE",
"1170 676 OFFCURVE",
"1155 829 CURVE",
"1157 830 LINE",
"1166 963 OFFCURVE",
"1122 1125 OFFCURVE",
"1035 1204 CURVE",
"905 1188 OFFCURVE",
"729 1068 OFFCURVE",
"661 932 CURVE",
"694 835 OFFCURVE",
"751 788 OFFCURVE",
"804 739 CURVE",
"775 632 OFFCURVE",
"702 443 OFFCURVE",
"635 304 CURVE",
"622 305 LINE",
"628 558 OFFCURVE",
"594 1024 OFFCURVE",
"593 1093 CURVE",
"569 1152 OFFCURVE",
"505 1179 OFFCURVE",
"430 1179 CURVE SMOOTH",
"319 1179 OFFCURVE",
"157 1078 OFFCURVE",
"141 968 CURVE",
"256 693 LINE",
"352 283 LINE",
"324 232 OFFCURVE",
"310 184 OFFCURVE",
"280 47 CURVE",
"322 3 OFFCURVE",
"424 -20 OFFCURVE",
"523 -20 CURVE SMOOTH",
"619 -20 OFFCURVE",
"714 1 OFFCURVE",
"747 43 CURVE",
"752 84 OFFCURVE",
"753 117 OFFCURVE",
"746 150 CURVE",
"803 252 OFFCURVE",
"861 387 OFFCURVE",
"905 489 CURVE",
"937 256 LINE",
"915 212 OFFCURVE",
"894 160 OFFCURVE",
"871 47 CURVE {name = hr02;}",
"914 3 OFFCURVE",
"1014 -21 OFFCURVE",
"1119 -21 CURVE SMOOTH"
);
}
);
userData = {
com.typemytype.robofont.guides = (
{
angle = 0;
isGlobal = 0;
x = 0;
y = 63;
},
{
angle = 90;
isGlobal = 0;
x = 800;
y = 0;
}
);
};
width = 1636;
}
);
leftKerningGroup = KO_w;
rightKerningGroup = KO_w;
unicode = 0077;
userData = {
KernOnName = w;
};
},
{
color = 4;
glyphname = x;
lastChange = "2022-07-29 03:12:30 +0000";
layers = (
{
anchors = (
{
name = bottom;
position = "{570, 0}";
},
{
name = top;
position = "{736, 1182}";
}
);
layerId = "ED69ACE7-BE83-49AD-8DAF-057B7A1FF3CB";
paths = (
{
closed = 1;
nodes = (
"840 -21 OFFCURVE",
"868 -18 OFFCURVE",
"896 -11 CURVE",
"1045 38 OFFCURVE",
"1125 234 OFFCURVE",
"1162 331 CURVE",
"1093 429 LINE",
"951 358 LINE",
"804 659 LINE",
"992 848 LINE",
"1011 784 OFFCURVE",
"1047 696 OFFCURVE",
"1074 670 CURVE",
"1134 686 OFFCURVE",
"1204 725 OFFCURVE",
"1235 763 CURVE",
"1255 897 OFFCURVE",
"1197 1132 OFFCURVE",
"1124 1204 CURVE",
"1006 1204 OFFCURVE",
"912 1187 OFFCURVE",
"840 1096 CURVE SMOOTH",
"821 1072 OFFCURVE",
"791 945 OFFCURVE",
"723 729 CURVE",
"710 726 LINE",
"708 806 OFFCURVE",
"723 925 OFFCURVE",
"699 1083 CURVE SMOOTH {name = hr01;}",
"685 1175 OFFCURVE",
"557 1228 OFFCURVE",
"420 1195 CURVE",
"270 1145 OFFCURVE",
"190 943 OFFCURVE",
"155 851 CURVE",
"230 738 LINE",
"383 804 LINE",
"503 553 LINE",
"312 332 LINE",
"294 398 OFFCURVE",
"258 484 OFFCURVE",
"232 510 CURVE",
"197 501 OFFCURVE",
"110 466 OFFCURVE",
"69 417 CURVE",
"50 280 OFFCURVE",
"113 52 OFFCURVE",
"186 -20 CURVE",
"354 -28 OFFCURVE",
"422 36 OFFCURVE",
"470 85 CURVE SMOOTH",
"492 107 OFFCURVE",
"530 257 OFFCURVE",
"584 475 CURVE",
"605 475 LINE",
"607 387 OFFCURVE",
"609 261 OFFCURVE",
"636 98 CURVE SMOOTH",
"648 25 OFFCURVE",
"713 -21 OFFCURVE",
"815 -21 CURVE SMOOTH {name = hr02;}"
);
}
);
width = 1139;
}
);
leftKerningGroup = KO_x;
rightKerningGroup = KO_x;
unicode = 0078;
userData = {
KernOnName = x;
};
},
{
color = 4;
glyphname = y;
lastChange = "2022-07-29 03:12:30 +0000";
layers = (
{
anchors = (
{
name = bottom;
position = "{1203, -62}";
},
{
name = top;
position = "{724, 1182}";
}
);
layerId = "ED69ACE7-BE83-49AD-8DAF-057B7A1FF3CB";
paths = (
{
closed = 1;
nodes = (
"635 -438 OFFCURVE",
"649 -437 OFFCURVE",
"663 -435 CURVE",
"846 -376 OFFCURVE",
"1024 -228 OFFCURVE",
"1090 -62 CURVE",
"1064 731 LINE",
"1184 906 OFFCURVE",
"1219 1012 OFFCURVE",
"1226 1061 CURVE {name = hr01;}",
"1167 1145 OFFCURVE",
"1089 1182 OFFCURVE",
"967 1182 CURVE SMOOTH {name = hr02;}",
"890 1182 OFFCURVE",
"818 1168 OFFCURVE",
"795 1154 CURVE",
"790 1120 OFFCURVE",
"781 1007 OFFCURVE",
"766 739 CURVE",
"734 661 OFFCURVE",
"583 433 OFFCURVE",
"500 361 CURVE",
"471 375 LINE",
"515 496 OFFCURVE",
"542 598 OFFCURVE",
"564 712 CURVE SMOOTH",
"595 869 OFFCURVE",
"619 1041 OFFCURVE",
"624 1174 CURVE",
"542 1215 OFFCURVE",
"248 1190 OFFCURVE",
"147 1004 CURVE {name = hr03;}",
"242 573 LINE",
"101 162 LINE",
"93 110 OFFCURVE",
"187 58 OFFCURVE",
"221 31 CURVE SMOOTH",
"256 3 OFFCURVE",
"300 -22 OFFCURVE",
"335 -20 CURVE SMOOTH",
"352 -19 OFFCURVE",
"369 -13 OFFCURVE",
"393 5 CURVE SMOOTH",
"503 87 OFFCURVE",
"705 394 OFFCURVE",
"780 535 CURVE",
"790 532 LINE",
"761 344 OFFCURVE",
"741 40 OFFCURVE",
"705 -154 CURVE",
"614 -154 OFFCURVE",
"416 -129 OFFCURVE",
"316 -106 CURVE",
"289 -152 OFFCURVE",
"271 -206 OFFCURVE",
"267 -278 CURVE",
"303 -336 OFFCURVE",
"470 -438 OFFCURVE",
"620 -438 CURVE SMOOTH"
);
}
);
userData = {
com.typemytype.robofont.guides = (
{
angle = 90;
isGlobal = 0;
x = 555;
y = 0;
}
);
};
width = 1115;
}
);
leftKerningGroup = KO_u;
rightKerningGroup = KO_y;
unicode = 0079;
userData = {
KernOnName = y;
};
},
{
glyphname = ydotbelow;
lastChange = "2022-07-28 02:38:00 +0000";
layers = (
{
layerId = "ED69ACE7-BE83-49AD-8DAF-057B7A1FF3CB";
paths = (
{
closed = 1;
nodes = (
"666 -378 OFFCURVE",
"680 -377 OFFCURVE",
"694 -375 CURVE",
"870 -315 OFFCURVE",
"1026 -168 OFFCURVE",
"1069 -2 CURVE",
"961 731 LINE",
"1044 882 OFFCURVE",
"1078 1000 OFFCURVE",
"1078 1061 CURVE {name = hr01;}",
"1007 1145 OFFCURVE",
"923 1182 OFFCURVE",
"801 1182 CURVE SMOOTH {name = hr02;}",
"724 1182 OFFCURVE",
"654 1168 OFFCURVE",
"633 1154 CURVE",
"633 1122 OFFCURVE",
"638 1025 OFFCURVE",
"662 739 CURVE",
"642 664 OFFCURVE",
"524 434 OFFCURVE",
"449 361 CURVE",
"419 375 LINE",
"445 496 OFFCURVE",
"457 591 OFFCURVE",
"464 713 CURVE SMOOTH",
"473 873 OFFCURVE",
"473 1039 OFFCURVE",
"460 1174 CURVE",
"371 1215 OFFCURVE",
"81 1190 OFFCURVE",
"7 1004 CURVE {name = hr03;}",
"162 573 LINE",
"78 202 LINE",
"78 149 OFFCURVE",
"168 106 OFFCURVE",
"217 71 CURVE SMOOTH",
"256 43 OFFCURVE",
"301 18 OFFCURVE",
"337 20 CURVE SMOOTH",
"355 21 OFFCURVE",
"373 29 OFFCURVE",
"393 45 CURVE SMOOTH",
"489 127 OFFCURVE",
"650 394 OFFCURVE",
"705 535 CURVE",
"715 532 LINE",
"713 344 OFFCURVE",
"705 100 OFFCURVE",
"696 -94 CURVE",
"603 -94 OFFCURVE",
"398 -68 OFFCURVE",
"300 -46 CURVE",
"282 -106 OFFCURVE",
"269 -142 OFFCURVE",
"275 -218 CURVE",
"319 -276 OFFCURVE",
"501 -377 OFFCURVE",
"651 -378 CURVE SMOOTH"
);
},
{
closed = 1;
nodes = (
"1289 -485 OFFCURVE",
"1396 -396 OFFCURVE",
"1435 -304 CURVE",
"1399 -135 OFFCURVE",
"1221 -87 OFFCURVE",
"1098 -87 CURVE {name = hr00;}",
"1067 -188 OFFCURVE",
"1046 -234 OFFCURVE",
"989 -376 CURVE",
"1007 -437 OFFCURVE",
"1109 -515 OFFCURVE",
"1206 -521 CURVE"
);
}
);
width = 1115;
}
);
leftKerningGroup = KO_u;
rightKerningGroup = KO_y;
unicode = 1EF5;
},
{
color = 4;
glyphname = z;
lastChange = "2022-07-29 03:12:30 +0000";
layers = (
{
anchors = (
{
name = bottom;
position = "{514, 0}";
},
{
name = center;
position = "{596, 591}";
},
{
name = top;
position = "{716, 1162}";
}
);
layerId = "ED69ACE7-BE83-49AD-8DAF-057B7A1FF3CB";
paths = (
{
closed = 1;
nodes = (
"810 -20 OFFCURVE",
"880 12 OFFCURVE",
"941 80 CURVE SMOOTH",
"1005 153 OFFCURVE",
"1045 297 OFFCURVE",
"1045 437 CURVE SMOOTH",
"1045 479 OFFCURVE",
"1041 510 OFFCURVE",
"1035 533 CURVE",
"891 561 LINE",
"759 327 LINE",
"579 358 LINE",
"981 794 LINE",
"999 790 OFFCURVE",
"1016 787 OFFCURVE",
"1028 787 CURVE SMOOTH",
"1051 787 OFFCURVE",
"1068 794 OFFCURVE",
"1087 805 CURVE",
"1101 832 OFFCURVE",
"1121 893 OFFCURVE",
"1121 969 CURVE SMOOTH",
"1121 1066 OFFCURVE",
"1090 1163 OFFCURVE",
"1034 1206 CURVE",
"931 1202 OFFCURVE",
"851 1104 OFFCURVE",
"808 1051 CURVE",
"723 1112 OFFCURVE",
"522 1180 OFFCURVE",
"408 1180 CURVE SMOOTH {name = hr01;}",
"257 1180 OFFCURVE",
"152 1058 OFFCURVE",
"152 885 CURVE SMOOTH {name = hr02;}",
"152 764 OFFCURVE",
"201 635 OFFCURVE",
"244 581 CURVE",
"415 617 LINE",
"446 833 LINE",
"629 810 LINE",
"388 404 LINE",
"333 457 OFFCURVE",
"297 490 OFFCURVE",
"256 502 CURVE",
"211 487 OFFCURVE",
"133 450 OFFCURVE",
"92 406 CURVE",
"73 271 OFFCURVE",
"107 36 OFFCURVE",
"186 -17 CURVE",
"284 -14 OFFCURVE",
"328 43 OFFCURVE",
"405 150 CURVE",
"464 80 OFFCURVE",
"617 -20 OFFCURVE",
"741 -20 CURVE SMOOTH {name = hr03;}"
);
}
);
userData = {
com.typemytype.robofont.guides = (
{
angle = 90;
isGlobal = 0;
x = 511;
y = 0;
}
);
};
width = 1027;
}
);
leftKerningGroup = KO_z;
rightKerningGroup = KO_z;
unicode = 007A;
userData = {
KernOnName = z;
};
},
{
color = 4;
glyphname = f_f;
lastChange = "2022-07-29 03:12:30 +0000";
layers = (
{
anchors = (
{
name = top;
position = "{1054, 0}";
}
);
layerId = "ED69ACE7-BE83-49AD-8DAF-057B7A1FF3CB";
paths = (
{
closed = 1;
nodes = (
"236 -431 OFFCURVE",
"403 -328 OFFCURVE",
"440 -214 CURVE",
"483 29 OFFCURVE",
"520 409 OFFCURVE",
"555 792 CURVE",
"596 768 OFFCURVE",
"679 728 OFFCURVE",
"762 731 CURVE",
"800 778 OFFCURVE",
"889 1000 OFFCURVE",
"839 1098 CURVE",
"569 1021 LINE",
"600 1387 LINE",
"618 1357 OFFCURVE",
"696 1265 OFFCURVE",
"801 1223 CURVE SMOOTH",
"913 1178 OFFCURVE",
"1026 1144 OFFCURVE",
"1113 1138 CURVE",
"1192 1204 OFFCURVE",
"1283 1443 OFFCURVE",
"1257 1517 CURVE",
"1149 1506 OFFCURVE",
"763 1576 OFFCURVE",
"603 1613 CURVE",
"336 1510 OFFCURVE",
"219 1301 OFFCURVE",
"196 1262 CURVE",
"172 1078 OFFCURVE",
"201 305 OFFCURVE",
"181 -143 CURVE",
"-18 -112 LINE {name = hr00;}",
"-47 -173 OFFCURVE",
"-67 -212 OFFCURVE",
"-76 -288 CURVE",
"-50 -334 OFFCURVE",
"5 -416 OFFCURVE",
"120 -438 CURVE"
);
},
{
closed = 1;
nodes = (
"980 -431 OFFCURVE",
"1147 -328 OFFCURVE",
"1184 -214 CURVE",
"1227 29 OFFCURVE",
"1264 410 OFFCURVE",
"1299 792 CURVE",
"1340 768 OFFCURVE",
"1422 728 OFFCURVE",
"1506 731 CURVE",
"1544 778 OFFCURVE",
"1633 1000 OFFCURVE",
"1583 1098 CURVE",
"1313 1021 LINE",
"1341 1366 LINE",
"1375 1308 OFFCURVE",
"1403 1241 OFFCURVE",
"1576 1229 CURVE",
"1655 1294 OFFCURVE",
"1742 1494 OFFCURVE",
"1716 1568 CURVE",
"1607 1557 OFFCURVE",
"1504 1576 OFFCURVE",
"1347 1613 CURVE",
"1080 1510 OFFCURVE",
"963 1301 OFFCURVE",
"940 1262 CURVE",
"916 1078 OFFCURVE",
"945 305 OFFCURVE",
"925 -143 CURVE",
"726 -112 LINE {name = hr00;}",
"697 -173 OFFCURVE",
"677 -212 OFFCURVE",
"668 -288 CURVE",
"694 -334 OFFCURVE",
"749 -416 OFFCURVE",
"864 -438 CURVE"
);
}
);
width = 1488;
}
);
leftKerningGroup = KO_f;
rightKerningGroup = KO_f_f;
},
{
color = 4;
glyphname = f_f_i;
lastChange = "2022-07-29 03:12:30 +0000";
layers = (
{
layerId = "ED69ACE7-BE83-49AD-8DAF-057B7A1FF3CB";
paths = (
{
closed = 1;
nodes = (
"980 -431 OFFCURVE",
"1147 -328 OFFCURVE",
"1184 -214 CURVE",
"1227 29 OFFCURVE",
"1264 410 OFFCURVE",
"1299 792 CURVE",
"1340 768 OFFCURVE",
"1422 728 OFFCURVE",
"1506 731 CURVE",
"1544 778 OFFCURVE",
"1633 1000 OFFCURVE",
"1583 1098 CURVE",
"1313 1021 LINE",
"1339 1347 LINE",
"1492 1257 OFFCURVE",
"1883 1210 OFFCURVE",
"2086 1229 CURVE",
"2166 1295 OFFCURVE",
"2246 1539 OFFCURVE",
"2219 1613 CURVE",
"1995 1585 OFFCURVE",
"1633 1587 OFFCURVE",
"1359 1640 CURVE {name = hr02;}",
"1092 1537 OFFCURVE",
"963 1302 OFFCURVE",
"940 1262 CURVE",
"916 1078 OFFCURVE",
"945 305 OFFCURVE",
"925 -143 CURVE",
"726 -112 LINE",
"697 -173 OFFCURVE",
"677 -212 OFFCURVE",
"668 -288 CURVE",
"694 -334 OFFCURVE",
"749 -416 OFFCURVE",
"864 -438 CURVE"
);
},
{
closed = 1;
nodes = (
"236 -431 OFFCURVE",
"403 -328 OFFCURVE",
"440 -214 CURVE",
"483 29 OFFCURVE",
"520 409 OFFCURVE",
"555 792 CURVE",
"596 768 OFFCURVE",
"679 728 OFFCURVE",
"762 731 CURVE",
"800 778 OFFCURVE",
"889 1000 OFFCURVE",
"839 1098 CURVE",
"569 1021 LINE",
"594 1342 LINE",
"628 1284 OFFCURVE",
"941 1150 OFFCURVE",
"1113 1138 CURVE",
"1192 1204 OFFCURVE",
"1283 1443 OFFCURVE",
"1257 1517 CURVE",
"1149 1506 OFFCURVE",
"763 1576 OFFCURVE",
"603 1613 CURVE",
"336 1510 OFFCURVE",
"219 1301 OFFCURVE",
"196 1262 CURVE",
"172 1078 OFFCURVE",
"201 305 OFFCURVE",
"181 -143 CURVE",
"-18 -112 LINE {name = hr01;}",
"-47 -173 OFFCURVE",
"-67 -212 OFFCURVE",
"-76 -288 CURVE",
"-50 -334 OFFCURVE",
"5 -416 OFFCURVE",
"120 -438 CURVE"
);
},
{
closed = 1;
nodes = (
"1961 -20 OFFCURVE",
"2089 158 OFFCURVE",
"2144 256 CURVE",
"2082 381 LINE",
"1923 314 LINE",
"1953 392 LINE SMOOTH",
"2038 613 OFFCURVE",
"2138 1056 OFFCURVE",
"2154 1105 CURVE",
"2113 1146 OFFCURVE",
"2057 1163 OFFCURVE",
"1998 1163 CURVE SMOOTH",
"1873 1163 OFFCURVE",
"1727 1091 OFFCURVE",
"1657 1018 CURVE",
"1715 497 LINE",
"1587 239 OFFCURVE",
"1580 238 OFFCURVE",
"1580 199 CURVE SMOOTH",
"1580 95 OFFCURVE",
"1740 -20 OFFCURVE",
"1830 -20 CURVE SMOOTH"
);
}
);
width = 2103;
}
);
leftKerningGroup = KO_f;
rightKerningGroup = KO_fi;
},
{
color = 4;
glyphname = f_f_l;
lastChange = "2022-07-29 03:12:30 +0000";
layers = (
{
layerId = "ED69ACE7-BE83-49AD-8DAF-057B7A1FF3CB";
paths = (
{
closed = 1;
nodes = (
"236 -431 OFFCURVE",
"403 -328 OFFCURVE",
"440 -214 CURVE",
"483 29 OFFCURVE",
"520 409 OFFCURVE",
"555 792 CURVE",
"596 768 OFFCURVE",
"679 728 OFFCURVE",
"762 731 CURVE",
"800 778 OFFCURVE",
"889 1000 OFFCURVE",
"839 1098 CURVE",
"569 1021 LINE",
"600 1387 LINE",
"618 1357 OFFCURVE",
"696 1265 OFFCURVE",
"801 1223 CURVE SMOOTH",
"913 1178 OFFCURVE",
"1026 1144 OFFCURVE",
"1113 1138 CURVE",
"1192 1204 OFFCURVE",
"1283 1443 OFFCURVE",
"1257 1517 CURVE",
"1149 1506 OFFCURVE",
"763 1576 OFFCURVE",
"603 1613 CURVE",
"336 1510 OFFCURVE",
"219 1301 OFFCURVE",
"196 1262 CURVE",
"172 1078 OFFCURVE",
"201 305 OFFCURVE",
"181 -143 CURVE",
"-18 -112 LINE",
"-47 -173 OFFCURVE",
"-67 -212 OFFCURVE",
"-76 -288 CURVE",
"-50 -334 OFFCURVE",
"5 -416 OFFCURVE",
"120 -438 CURVE"
);
},
{
closed = 1;
nodes = (
"980 -431 OFFCURVE",
"1147 -328 OFFCURVE",
"1184 -214 CURVE",
"1227 29 OFFCURVE",
"1264 410 OFFCURVE",
"1299 792 CURVE",
"1340 768 OFFCURVE",
"1425 748 OFFCURVE",
"1508 751 CURVE",
"1547 798 OFFCURVE",
"1633 1000 OFFCURVE",
"1583 1098 CURVE",
"1317 1053 LINE",
"1339 1345 LINE",
"1364 1304 OFFCURVE",
"1409 1257 OFFCURVE",
"1474 1229 CURVE SMOOTH",
"1545 1198 OFFCURVE",
"1634 1174 OFFCURVE",
"1734 1177 CURVE",
"1813 1241 OFFCURVE",
"1880 1437 OFFCURVE",
"1854 1510 CURVE",
"1729 1510 OFFCURVE",
"1496 1581 OFFCURVE",
"1347 1613 CURVE",
"1080 1510 OFFCURVE",
"963 1301 OFFCURVE",
"940 1262 CURVE",
"916 1078 OFFCURVE",
"945 305 OFFCURVE",
"925 -143 CURVE",
"726 -112 LINE",
"697 -173 OFFCURVE",
"677 -212 OFFCURVE",
"668 -288 CURVE",
"694 -334 OFFCURVE",
"749 -416 OFFCURVE",
"864 -438 CURVE"
);
},
{
closed = 1;
nodes = (
"1965 -20 OFFCURVE",
"2102 138 OFFCURVE",
"2156 254 CURVE",
"2093 381 LINE",
"1941 314 LINE",
"2085 919 OFFCURVE",
"2157 1250 OFFCURVE",
"2213 1566 CURVE",
"2173 1602 OFFCURVE",
"2123 1614 OFFCURVE",
"2064 1613 CURVE SMOOTH",
"1944 1612 OFFCURVE",
"1806 1547 OFFCURVE",
"1730 1466 CURVE",
"1721 1437 OFFCURVE",
"1708 912 OFFCURVE",
"1722 606 CURVE",
"1603 249 LINE SMOOTH",
"1584 192 OFFCURVE",
"1596 161 OFFCURVE",
"1611 140 CURVE SMOOTH",
"1671 56 OFFCURVE",
"1752 -20 OFFCURVE",
"1838 -20 CURVE SMOOTH {name = hr00;}"
);
}
);
width = 2114;
}
);
leftKerningGroup = KO_f;
rightKerningGroup = KO_fl;
},
{
color = 4;
glyphname = fi;
lastChange = "2022-07-29 03:12:30 +0000";
layers = (
{
layerId = "ED69ACE7-BE83-49AD-8DAF-057B7A1FF3CB";
paths = (
{
closed = 1;
nodes = (
"236 -431 OFFCURVE",
"403 -328 OFFCURVE",
"440 -214 CURVE",
"483 29 OFFCURVE",
"520 409 OFFCURVE",
"555 792 CURVE",
"596 768 OFFCURVE",
"679 728 OFFCURVE",
"762 731 CURVE",
"800 778 OFFCURVE",
"889 1000 OFFCURVE",
"839 1098 CURVE",
"569 1021 LINE",
"593 1331 LINE",
"746 1241 OFFCURVE",
"1140 1210 OFFCURVE",
"1342 1229 CURVE",
"1422 1295 OFFCURVE",
"1502 1539 OFFCURVE",
"1475 1613 CURVE {name = hr02;}",
"1251 1585 OFFCURVE",
"887 1571 OFFCURVE",
"613 1624 CURVE {name = hr03;}",
"345 1521 OFFCURVE",
"218 1299 OFFCURVE",
"196 1262 CURVE",
"172 1078 OFFCURVE",
"201 305 OFFCURVE",
"181 -143 CURVE",
"-18 -112 LINE {name = hr01;}",
"-47 -173 OFFCURVE",
"-67 -212 OFFCURVE",
"-76 -288 CURVE",
"-50 -334 OFFCURVE",
"5 -416 OFFCURVE",
"120 -438 CURVE"
);
},
{
closed = 1;
nodes = (
"1216 -20 OFFCURVE",
"1345 158 OFFCURVE",
"1400 256 CURVE",
"1338 381 LINE",
"1179 314 LINE",
"1209 392 LINE SMOOTH",
"1294 613 OFFCURVE",
"1394 1056 OFFCURVE",
"1410 1105 CURVE",
"1369 1146 OFFCURVE",
"1313 1163 OFFCURVE",
"1254 1163 CURVE SMOOTH",
"1129 1163 OFFCURVE",
"983 1091 OFFCURVE",
"913 1018 CURVE",
"971 497 LINE",
"843 239 OFFCURVE",
"836 238 OFFCURVE",
"836 199 CURVE SMOOTH",
"836 95 OFFCURVE",
"996 -20 OFFCURVE",
"1086 -20 CURVE SMOOTH"
);
}
);
width = 1359;
}
);
leftKerningGroup = KO_f;
rightKerningGroup = KO_fi;
unicode = FB01;
},
{
color = 4;
glyphname = fl;
lastChange = "2022-07-29 03:12:30 +0000";
layers = (
{
layerId = "ED69ACE7-BE83-49AD-8DAF-057B7A1FF3CB";
paths = (
{
closed = 1;
nodes = (
"236 -431 OFFCURVE",
"403 -328 OFFCURVE",
"440 -214 CURVE",
"483 29 OFFCURVE",
"520 409 OFFCURVE",
"555 792 CURVE",
"596 768 OFFCURVE",
"679 728 OFFCURVE",
"762 731 CURVE",
"800 778 OFFCURVE",
"889 1000 OFFCURVE",
"839 1098 CURVE",
"569 1021 LINE",
"592 1326 LINE",
"626 1268 OFFCURVE",
"801 1172 OFFCURVE",
"990 1177 CURVE",
"1069 1241 OFFCURVE",
"1136 1437 OFFCURVE",
"1110 1510 CURVE",
"985 1510 OFFCURVE",
"752 1581 OFFCURVE",
"603 1613 CURVE",
"336 1510 OFFCURVE",
"219 1301 OFFCURVE",
"196 1262 CURVE",
"172 1078 OFFCURVE",
"201 305 OFFCURVE",
"181 -143 CURVE",
"-18 -112 LINE {name = hr00;}",
"-47 -173 OFFCURVE",
"-67 -212 OFFCURVE",
"-76 -288 CURVE",
"-50 -334 OFFCURVE",
"5 -416 OFFCURVE",
"120 -438 CURVE"
);
},
{
closed = 1;
nodes = (
"1221 -20 OFFCURVE",
"1358 138 OFFCURVE",
"1412 254 CURVE",
"1349 381 LINE",
"1197 314 LINE",
"1341 919 OFFCURVE",
"1413 1250 OFFCURVE",
"1469 1566 CURVE",
"1431 1601 OFFCURVE",
"1379 1614 OFFCURVE",
"1320 1613 CURVE SMOOTH",
"1221 1612 OFFCURVE",
"1062 1547 OFFCURVE",
"986 1466 CURVE",
"977 1437 OFFCURVE",
"964 912 OFFCURVE",
"978 606 CURVE",
"859 249 LINE SMOOTH",
"840 192 OFFCURVE",
"852 161 OFFCURVE",
"867 140 CURVE SMOOTH",
"927 56 OFFCURVE",
"1008 -20 OFFCURVE",
"1094 -20 CURVE SMOOTH"
);
}
);
width = 1370;
}
);
leftKerningGroup = KO_f;
rightKerningGroup = KO_fl;
unicode = FB02;
},
{
color = 4;
glyphname = ordfeminine;
lastChange = "2022-07-29 03:12:30 +0000";
layers = (
{
anchors = (
{
name = bottom;
position = "{517, 0}";
},
{
name = ogonek;
position = "{931, 9}";
},
{
name = top;
position = "{659, 1017}";
}
);
layerId = "ED69ACE7-BE83-49AD-8DAF-057B7A1FF3CB";
paths = (
{
closed = 1;
nodes = (
"986 703 OFFCURVE",
"1089 821 OFFCURVE",
"1167 958 CURVE",
"1109 1062 LINE",
"948 983 LINE {name = hr01;}",
"1053 1168 OFFCURVE",
"1186 1569 OFFCURVE",
"1187 1631 CURVE",
"1136 1703 OFFCURVE",
"1068 1735 OFFCURVE",
"963 1735 CURVE SMOOTH {name = hr02;}",
"897 1735 OFFCURVE",
"835 1723 OFFCURVE",
"815 1711 CURVE",
"811 1683 OFFCURVE",
"805 1601 OFFCURVE",
"793 1499 CURVE",
"753 1588 OFFCURVE",
"700 1689 OFFCURVE",
"617 1754 CURVE {name = hr03;}",
"583 1749 OFFCURVE",
"406 1718 OFFCURVE",
"281 1583 CURVE",
"259 1556 OFFCURVE",
"253 1544 OFFCURVE",
"253 1525 CURVE SMOOTH",
"253 1518 OFFCURVE",
"254 1505 OFFCURVE",
"258 1482 CURVE SMOOTH",
"266 1435 OFFCURVE",
"270 1365 OFFCURVE",
"270 1289 CURVE SMOOTH",
"270 883 OFFCURVE",
"230 1111 OFFCURVE",
"230 839 CURVE SMOOTH",
"230 797 OFFCURVE",
"296 772 OFFCURVE",
"332 744 CURVE SMOOTH",
"361 721 OFFCURVE",
"388 700 OFFCURVE",
"420 702 CURVE SMOOTH",
"435 703 OFFCURVE",
"452 709 OFFCURVE",
"471 723 CURVE",
"562 794 OFFCURVE",
"687 1020 OFFCURVE",
"753 1146 CURVE",
"765 1140 LINE",
"743 1062 OFFCURVE",
"729 1013 OFFCURVE",
"703 905 CURVE SMOOTH",
"686 833 OFFCURVE",
"712 810 OFFCURVE",
"729 788 CURVE SMOOTH {name = hr04;}",
"770 735 OFFCURVE",
"833 700 OFFCURVE",
"886 701 CURVE SMOOTH"
);
},
{
closed = 1;
nodes = (
"513 1022 LINE",
"549 1130 OFFCURVE",
"573 1223 OFFCURVE",
"587 1331 CURVE",
"599 1423 LINE",
"652 1411 OFFCURVE",
"711 1401 OFFCURVE",
"777 1384 CURVE",
"769 1322 OFFCURVE",
"773 1344 OFFCURVE",
"766 1315 CURVE",
"726 1250 OFFCURVE",
"609 1073 OFFCURVE",
"537 1010 CURVE"
);
}
);
width = 1033;
}
);
leftKerningGroup = KO_ordfeminine;
rightKerningGroup = KO_ordfeminine;
unicode = 00AA;
userData = {
KernOnSpecialSpacing = {
L = superiors;
R = superiors;
};
};
},
{
color = 4;
glyphname = ordmasculine;
lastChange = "2022-07-29 03:12:30 +0000";
layers = (
{
anchors = (
{
name = center;
position = "{537, 508}";
},
{
name = ogonek;
position = "{840, 9}";
},
{
name = topright;
position = "{1173, 1015}";
}
);
layerId = "ED69ACE7-BE83-49AD-8DAF-057B7A1FF3CB";
paths = (
{
closed = 1;
nodes = (
"650 734 OFFCURVE",
"734 768 OFFCURVE",
"783 792 CURVE SMOOTH",
"830 814 OFFCURVE",
"921 866 OFFCURVE",
"936 885 CURVE",
"1013 1072 OFFCURVE",
"1089 1404 OFFCURVE",
"1089 1556 CURVE SMOOTH",
"1089 1569 OFFCURVE",
"1088 1582 OFFCURVE",
"1088 1595 CURVE",
"1026 1684 OFFCURVE",
"843 1768 OFFCURVE",
"700 1782 CURVE {name = hr00;}",
"612 1770 OFFCURVE",
"354 1674 OFFCURVE",
"295 1612 CURVE",
"226 1375 OFFCURVE",
"226 1132 OFFCURVE",
"229 864 CURVE",
"283 802 OFFCURVE",
"482 741 OFFCURVE",
"593 730 CURVE"
);
},
{
closed = 1;
nodes = (
"583 949 OFFCURVE",
"539 975 OFFCURVE",
"507 998 CURVE",
"511 1085 OFFCURVE",
"519 1170 OFFCURVE",
"531 1257 CURVE SMOOTH",
"542 1336 OFFCURVE",
"558 1411 OFFCURVE",
"571 1464 CURVE",
"626 1489 LINE",
"750 1435 LINE",
"746 1329 OFFCURVE",
"739 1252 OFFCURVE",
"726 1157 CURVE SMOOTH",
"717 1093 OFFCURVE",
"708 1031 OFFCURVE",
"693 969 CURVE",
"642 936 LINE"
);
}
);
width = 929;
}
);
leftKerningGroup = KO_ordmasculine;
rightKerningGroup = KO_ordmasculine;
unicode = 00BA;
userData = {
KernOnSpecialSpacing = {
L = superiors;
R = superiors;
};
};
},
{
color = 4;
glyphname = pi;
lastChange = "2022-07-29 03:12:30 +0000";
layers = (
{
layerId = "ED69ACE7-BE83-49AD-8DAF-057B7A1FF3CB";
paths = (
{
closed = 1;
nodes = (
"469 901 LINE",
"1164 829 LINE",
"1426 768 OFFCURVE",
"1507 749 OFFCURVE",
"1576 749 CURVE",
"1720 839 OFFCURVE",
"1770 1135 OFFCURVE",
"1647 1204 CURVE",
"1355 1093 LINE {name = hr01;}",
"479 1204 LINE",
"359 1180 OFFCURVE",
"244 1121 OFFCURVE",
"174 1048 CURVE {name = hr02;}",
"110 945 OFFCURVE",
"178 679 OFFCURVE",
"196 583 CURVE",
"259 565 OFFCURVE",
"335 563 OFFCURVE",
"419 582 CURVE"
);
},
{
closed = 1;
nodes = (
"693 -20 OFFCURVE",
"764 -10 OFFCURVE",
"807 16 CURVE",
"820 186 OFFCURVE",
"820 342 OFFCURVE",
"811 495 CURVE",
"925 1011 LINE",
"552 1019 LINE",
"535 404 LINE",
"471 271 OFFCURVE",
"422 166 OFFCURVE",
"399 54 CURVE",
"441 9 OFFCURVE",
"522 -20 OFFCURVE",
"631 -20 CURVE SMOOTH"
);
},
{
closed = 1;
nodes = (
"1333 -20 OFFCURVE",
"1450 151 OFFCURVE",
"1504 256 CURVE",
"1436 381 LINE",
"1247 309 LINE",
"1315 521 OFFCURVE",
"1375 759 OFFCURVE",
"1417 946 CURVE",
"928 944 LINE",
"1053 887 LINE",
"992 611 OFFCURVE",
"943 229 OFFCURVE",
"943 204 CURVE SMOOTH",
"943 98 OFFCURVE",
"1114 -20 OFFCURVE",
"1205 -20 CURVE SMOOTH"
);
}
);
width = 1617;
}
);
leftKerningGroup = KO_pi;
rightKerningGroup = KO_pi;
unicode = 03C0;
},
{
glyphname = zero;
lastChange = "2022-07-29 03:14:34 +0000";
layers = (
{
layerId = "ED69ACE7-BE83-49AD-8DAF-057B7A1FF3CB";
paths = (
{
closed = 1;
nodes = (
"932 -20 OFFCURVE",
"1118 253 OFFCURVE",
"1169 580 CURVE SMOOTH",
"1222 915 OFFCURVE",
"1157 1185 OFFCURVE",
"755 1185 CURVE SMOOTH",
"376 1185 OFFCURVE",
"206 915 OFFCURVE",
"153 580 CURVE SMOOTH {name = hr00;}",
"101 249 OFFCURVE",
"187 -20 OFFCURVE",
"565 -20 CURVE SMOOTH"
);
},
{
closed = 1;
nodes = (
"591 238 OFFCURVE",
"534 262 OFFCURVE",
"496 290 CURVE",
"494 319 OFFCURVE",
"494 348 OFFCURVE",
"494 377 CURVE SMOOTH",
"494 620 OFFCURVE",
"562 820 OFFCURVE",
"573 850 CURVE",
"646 883 LINE",
"801 826 LINE",
"805 793 OFFCURVE",
"806 754 OFFCURVE",
"806 728 CURVE SMOOTH",
"806 529 OFFCURVE",
"755 339 OFFCURVE",
"732 265 CURVE",
"664 222 LINE"
);
}
);
width = 1158;
}
);
leftKerningGroup = KO_zero;
rightKerningGroup = KO_zero;
unicode = 0030;
userData = {
KernOnName = zero;
};
},
{
glyphname = one;
lastChange = "2022-07-29 03:14:34 +0000";
layers = (
{
layerId = "ED69ACE7-BE83-49AD-8DAF-057B7A1FF3CB";
paths = (
{
closed = 1;
nodes = (
"520 -19 OFFCURVE",
"585 -8 OFFCURVE",
"629 22 CURVE",
"631 182 OFFCURVE",
"606 304 OFFCURVE",
"594 371 CURVE",
"673 588 OFFCURVE",
"747 888 OFFCURVE",
"778 1058 CURVE",
"734 1104 OFFCURVE",
"683 1145 OFFCURVE",
"630 1180 CURVE {name = hr00;}",
"440 1139 OFFCURVE",
"241 1005 OFFCURVE",
"127 884 CURVE",
"175 735 LINE",
"371 768 LINE",
"372 565 LINE",
"219 22 LINE",
"256 -7 OFFCURVE",
"386 -21 OFFCURVE",
"457 -20 CURVE SMOOTH"
);
}
);
width = 748;
}
);
leftKerningGroup = KO_one;
rightKerningGroup = KO_one;
unicode = 0031;
},
{
glyphname = two;
lastChange = "2022-07-29 03:14:34 +0000";
layers = (
{
layerId = "ED69ACE7-BE83-49AD-8DAF-057B7A1FF3CB";
paths = (
{
closed = 1;
nodes = (
"520 150 LINE",
"640 338 LINE",
"609 349 LINE",
"611 367 LINE {name = hr01;}",
"730 429 OFFCURVE",
"1029 620 OFFCURVE",
"1140 743 CURVE",
"1175 858 OFFCURVE",
"1172 945 OFFCURVE",
"1165 1012 CURVE",
"1066 1134 OFFCURVE",
"833 1201 OFFCURVE",
"718 1208 CURVE",
"599 1208 OFFCURVE",
"357 1102 OFFCURVE",
"272 1028 CURVE",
"195 921 OFFCURVE",
"237 686 OFFCURVE",
"269 595 CURVE",
"300 586 OFFCURVE",
"328 580 OFFCURVE",
"357 580 CURVE SMOOTH",
"390 580 OFFCURVE",
"428 586 OFFCURVE",
"472 601 CURVE",
"548 878 LINE",
"580 890 LINE",
"779 815 LINE",
"774 762 LINE",
"709 681 OFFCURVE",
"502 478 OFFCURVE",
"399 392 CURVE",
"506 130 LINE"
);
},
{
closed = 1;
nodes = (
"899 -20 OFFCURVE",
"965 12 OFFCURVE",
"1027 82 CURVE SMOOTH",
"1132 202 OFFCURVE",
"1119 352 OFFCURVE",
"1098 441 CURVE",
"954 469 LINE",
"844 327 LINE",
"506 371 LINE",
"433 404 LINE",
"380 455 OFFCURVE",
"345 478 OFFCURVE",
"301 491 CURVE",
"244 473 OFFCURVE",
"189 443 OFFCURVE",
"138 403 CURVE",
"113 266 OFFCURVE",
"150 37 OFFCURVE",
"231 -17 CURVE",
"319 -14 OFFCURVE",
"395 28 OFFCURVE",
"457 105 CURVE SMOOTH",
"468 118 OFFCURVE",
"481 137 OFFCURVE",
"490 150 CURVE",
"549 80 OFFCURVE",
"702 -20 OFFCURVE",
"827 -20 CURVE SMOOTH {name = hr02;}"
);
}
);
width = 1135;
}
);
leftKerningGroup = KO_two;
rightKerningGroup = KO_two;
unicode = 0032;
},
{
glyphname = three;
lastChange = "2022-07-29 03:14:34 +0000";
layers = (
{
layerId = "ED69ACE7-BE83-49AD-8DAF-057B7A1FF3CB";
paths = (
{
closed = 1;
nodes = (
"551 -291 OFFCURVE",
"691 -264 OFFCURVE",
"779 -217 CURVE SMOOTH {name = hr02;}",
"929 -137 OFFCURVE",
"1041 18 OFFCURVE",
"1075 258 CURVE",
"1091 359 OFFCURVE",
"882 483 OFFCURVE",
"679 508 CURVE",
"604 507 OFFCURVE",
"541 484 OFFCURVE",
"464 465 CURVE",
"407 353 OFFCURVE",
"434 388 OFFCURVE",
"481 365 CURVE SMOOTH",
"563 325 OFFCURVE",
"667 280 OFFCURVE",
"710 191 CURVE",
"695 141 OFFCURVE",
"664 46 OFFCURVE",
"632 -3 CURVE",
"594 -10 OFFCURVE",
"553 -15 OFFCURVE",
"521 -15 CURVE SMOOTH",
"376 -13 OFFCURVE",
"251 46 OFFCURVE",
"136 107 CURVE",
"88 71 OFFCURVE",
"48 28 OFFCURVE",
"48 -60 CURVE SMOOTH",
"48 -66 OFFCURVE",
"48 -72 OFFCURVE",
"49 -79 CURVE",
"115 -199 OFFCURVE",
"248 -291 OFFCURVE",
"453 -291 CURVE SMOOTH"
);
},
{
closed = 1;
nodes = (
"385 203 OFFCURVE",
"494 274 OFFCURVE",
"543 347 CURVE",
"584 379 OFFCURVE",
"543 350 OFFCURVE",
"586 391 CURVE",
"499 520 LINE {name = hr01;}",
"354 566 LINE",
"257 530 LINE",
"154 393 OFFCURVE",
"222 210 OFFCURVE",
"312 189 CURVE"
);
},
{
closed = 1;
nodes = (
"507 429 LINE",
"586 467 OFFCURVE",
"837 533 OFFCURVE",
"1044 740 CURVE",
"1082 853 OFFCURVE",
"1084 940 OFFCURVE",
"1072 1012 CURVE",
"996 1104 OFFCURVE",
"740 1208 OFFCURVE",
"650 1208 CURVE SMOOTH",
"626 1208 OFFCURVE",
"564 1193 OFFCURVE",
"500 1172 CURVE",
"393 1141 OFFCURVE",
"267 1091 OFFCURVE",
"204 1028 CURVE",
"126 919 OFFCURVE",
"164 796 OFFCURVE",
"184 692 CURVE",
"258 658 OFFCURVE",
"334 664 OFFCURVE",
"417 691 CURVE",
"471 874 LINE",
"504 890 LINE",
"709 810 LINE",
"708 787 LINE",
"643 706 OFFCURVE",
"433 477 OFFCURVE",
"332 392 CURVE"
);
}
);
width = 1075;
}
);
leftKerningGroup = KO_three;
rightKerningGroup = KO_three;
unicode = 0033;
},
{
glyphname = four;
lastChange = "2022-07-29 03:14:34 +0000";
layers = (
{
layerId = "ED69ACE7-BE83-49AD-8DAF-057B7A1FF3CB";
paths = (
{
closed = 1;
nodes = (
"943 333 LINE",
"486 366 LINE",
"860 1126 LINE {name = hr00;}",
"830 1174 OFFCURVE",
"728 1181 OFFCURVE",
"687 1181 CURVE SMOOTH",
"583 1181 OFFCURVE",
"468 1147 OFFCURVE",
"395 1066 CURVE",
"186 184 LINE",
"188 181 LINE",
"185 177 LINE",
"188 174 LINE",
"800 66 LINE"
);
},
{
closed = 1;
nodes = (
"249 53 OFFCURVE",
"358 123 OFFCURVE",
"407 197 CURVE",
"448 229 OFFCURVE",
"407 200 OFFCURVE",
"450 241 CURVE",
"363 370 LINE",
"124 400 LINE",
"21 263 OFFCURVE",
"86 60 OFFCURVE",
"176 39 CURVE"
);
},
{
closed = 1;
nodes = (
"930 -292 OFFCURVE",
"995 -281 OFFCURVE",
"1040 -251 CURVE",
"1042 -90 OFFCURVE",
"1028 137 OFFCURVE",
"1018 194 CURVE",
"1120 472 OFFCURVE",
"1208 866 OFFCURVE",
"1210 940 CURVE",
"1188 950 OFFCURVE",
"1163 955 OFFCURVE",
"1137 955 CURVE SMOOTH",
"913 955 OFFCURVE",
"740 776 OFFCURVE",
"761 777 CURVE",
"793 292 LINE",
"640 -251 LINE",
"676 -280 OFFCURVE",
"797 -294 OFFCURVE",
"868 -293 CURVE SMOOTH"
);
}
);
width = 1198;
}
);
leftKerningGroup = KO_four;
rightKerningGroup = KO_four;
unicode = 0034;
},
{
glyphname = five;
lastChange = "2022-07-29 03:14:34 +0000";
layers = (
{
layerId = "ED69ACE7-BE83-49AD-8DAF-057B7A1FF3CB";
paths = (
{
closed = 1;
nodes = (
"793 -291 OFFCURVE",
"1034 -36 OFFCURVE",
"1034 318 CURVE SMOOTH",
"1034 509 OFFCURVE",
"934 657 OFFCURVE",
"730 654 CURVE {name = hr01;}",
"592 618 OFFCURVE",
"422 445 OFFCURVE",
"372 400 CURVE {name = hr02;}",
"367 387 OFFCURVE",
"363 384 OFFCURVE",
"358 384 CURVE SMOOTH",
"349 384 OFFCURVE",
"342 400 OFFCURVE",
"338 400 CURVE SMOOTH",
"337 400 OFFCURVE",
"336 398 OFFCURVE",
"336 394 CURVE SMOOTH",
"336 369 OFFCURVE",
"358 338 OFFCURVE",
"391 338 CURVE",
"648 346 LINE",
"660 333 OFFCURVE",
"666 295 OFFCURVE",
"666 248 CURVE SMOOTH",
"666 142 OFFCURVE",
"628 2 OFFCURVE",
"593 -17 CURVE",
"566 -21 OFFCURVE",
"534 -23 OFFCURVE",
"509 -23 CURVE SMOOTH",
"366 -23 OFFCURVE",
"245 44 OFFCURVE",
"125 107 CURVE",
"91 80 OFFCURVE",
"44 37 OFFCURVE",
"44 -52 CURVE SMOOTH",
"44 -61 OFFCURVE",
"45 -70 OFFCURVE",
"46 -79 CURVE",
"116 -199 OFFCURVE",
"252 -291 OFFCURVE",
"456 -291 CURVE SMOOTH"
);
},
{
closed = 1;
nodes = (
"322 159 OFFCURVE",
"450 287 OFFCURVE",
"490 361 CURVE",
"404 487 LINE",
"163 501 LINE",
"136 470 OFFCURVE",
"120 433 OFFCURVE",
"116 390 CURVE",
"105 288 OFFCURVE",
"173 165 OFFCURVE",
"240 143 CURVE"
);
},
{
closed = 1;
nodes = (
"540 435 LINE",
"470 500 LINE",
"551 865 LINE",
"656 805 OFFCURVE",
"887 755 OFFCURVE",
"959 751 CURVE",
"996 769 OFFCURVE",
"1112 913 OFFCURVE",
"1112 1079 CURVE SMOOTH",
"1112 1122 OFFCURVE",
"1104 1165 OFFCURVE",
"1087 1205 CURVE",
"702 1135 LINE",
"642 1145 OFFCURVE",
"451 1194 OFFCURVE",
"398 1205 CURVE",
"312 1166 OFFCURVE",
"234 1048 OFFCURVE",
"218 962 CURVE",
"320 389 LINE"
);
}
);
width = 1049;
}
);
leftKerningGroup = KO_five;
rightKerningGroup = KO_five;
unicode = 0035;
},
{
glyphname = six;
lastChange = "2022-07-29 03:14:34 +0000";
layers = (
{
layerId = "ED69ACE7-BE83-49AD-8DAF-057B7A1FF3CB";
paths = (
{
closed = 1;
nodes = (
"922 -20 OFFCURVE",
"1106 213 OFFCURVE",
"1163 540 CURVE SMOOTH",
"1205 783 OFFCURVE",
"1171 930 OFFCURVE",
"921 926 CURVE SMOOTH",
"771 924 OFFCURVE",
"589 762 OFFCURVE",
"485 662 CURVE",
"465 674 LINE",
"626 887 OFFCURVE",
"866 1123 OFFCURVE",
"1122 1365 CURVE",
"1090 1464 OFFCURVE",
"1061 1509 OFFCURVE",
"987 1549 CURVE",
"719 1373 OFFCURVE",
"315 1068 OFFCURVE",
"169 682 CURVE",
"88 279 OFFCURVE",
"180 -20 OFFCURVE",
"554 -20 CURVE SMOOTH"
);
},
{
closed = 1;
nodes = (
"610 235 OFFCURVE",
"529 272 OFFCURVE",
"494 307 CURVE",
"482 389 OFFCURVE",
"477 398 OFFCURVE",
"491 501 CURVE",
"578 568 OFFCURVE",
"670 629 OFFCURVE",
"772 654 CURVE {name = hr00;}",
"784 513 OFFCURVE",
"774 407 OFFCURVE",
"728 272 CURVE",
"659 229 LINE"
);
}
);
width = 1158;
}
);
leftKerningGroup = KO_six;
rightKerningGroup = KO_six;
unicode = 0036;
},
{
glyphname = seven;
lastChange = "2022-07-29 03:14:34 +0000";
layers = (
{
layerId = "ED69ACE7-BE83-49AD-8DAF-057B7A1FF3CB";
paths = (
{
closed = 1;
nodes = (
"449 -292 OFFCURVE",
"475 -287 OFFCURVE",
"513 -275 CURVE",
"755 284 LINE",
"996 790 LINE",
"1115 770 LINE {name = hr00;}",
"1211 927 OFFCURVE",
"1205 1129 OFFCURVE",
"1082 1203 CURVE",
"999 1178 OFFCURVE",
"927 1139 OFFCURVE",
"840 1077 CURVE",
"745 1123 OFFCURVE",
"654 1174 OFFCURVE",
"509 1203 CURVE",
"467 1205 OFFCURVE",
"228 1109 OFFCURVE",
"189 995 CURVE",
"134 830 OFFCURVE",
"180 592 OFFCURVE",
"242 511 CURVE",
"419 531 LINE",
"492 858 LINE",
"726 823 LINE",
"509 365 LINE",
"148 -162 LINE",
"169 -242 OFFCURVE",
"287 -286 OFFCURVE",
"401 -290 CURVE SMOOTH"
);
}
);
width = 1050;
}
);
leftKerningGroup = KO_seven;
rightKerningGroup = KO_seven;
unicode = 0037;
},
{
glyphname = eight;
lastChange = "2022-07-29 03:14:34 +0000";
layers = (
{
layerId = "ED69ACE7-BE83-49AD-8DAF-057B7A1FF3CB";
paths = (
{
closed = 1;
nodes = (
"701 5 OFFCURVE",
"906 73 OFFCURVE",
"1021 185 CURVE",
"1087 304 OFFCURVE",
"1099 422 OFFCURVE",
"1090 538 CURVE",
"840 776 LINE {name = hr01;}",
"964 863 OFFCURVE",
"1110 1013 OFFCURVE",
"1167 1107 CURVE",
"1196 1220 OFFCURVE",
"1189 1309 OFFCURVE",
"1178 1375 CURVE",
"1072 1491 OFFCURVE",
"836 1546 OFFCURVE",
"719 1547 CURVE",
"599 1541 OFFCURVE",
"362 1423 OFFCURVE",
"280 1346 CURVE",
"206 1234 OFFCURVE",
"219 1004 OFFCURVE",
"253 921 CURVE",
"253 920 LINE",
"428 751 LINE",
"302 662 OFFCURVE",
"160 545 OFFCURVE",
"117 406 CURVE {name = hr02;}",
"88 293 OFFCURVE",
"94 206 OFFCURVE",
"106 138 CURVE",
"212 22 OFFCURVE",
"448 -33 OFFCURVE",
"565 -34 CURVE"
);
},
{
closed = 1;
nodes = (
"586 269 OFFCURVE",
"491 293 OFFCURVE",
"403 341 CURVE",
"407 433 LINE",
"431 463 OFFCURVE",
"519 581 OFFCURVE",
"569 631 CURVE",
"754 418 LINE",
"728 296 LINE",
"686 278 LINE"
);
},
{
closed = 1;
nodes = (
"699 914 OFFCURVE",
"655 966 OFFCURVE",
"644 980 CURVE SMOOTH",
"596 1041 OFFCURVE",
"574 1067 OFFCURVE",
"532 1115 CURVE",
"557 1218 LINE",
"598 1236 LINE",
"683 1235 OFFCURVE",
"752 1210 OFFCURVE",
"813 1169 CURVE",
"781 1041 OFFCURVE",
"762 985 OFFCURVE",
"715 896 CURVE"
);
}
);
width = 1087;
}
);
leftKerningGroup = KO_eight;
rightKerningGroup = KO_eight;
unicode = 0038;
},
{
glyphname = nine;
lastChange = "2022-07-29 03:14:34 +0000";
layers = (
{
layerId = "ED69ACE7-BE83-49AD-8DAF-057B7A1FF3CB";
paths = (
{
closed = 1;
nodes = (
"624 -115 OFFCURVE",
"1009 141 OFFCURVE",
"1154 528 CURVE",
"1235 931 OFFCURVE",
"1143 1230 OFFCURVE",
"769 1230 CURVE SMOOTH",
"402 1230 OFFCURVE",
"159 991 OFFCURVE",
"159 630 CURVE SMOOTH",
"159 413 OFFCURVE",
"267 282 OFFCURVE",
"402 284 CURVE SMOOTH",
"552 286 OFFCURVE",
"733 447 OFFCURVE",
"838 548 CURVE",
"858 536 LINE",
"684 304 OFFCURVE",
"399 61 OFFCURVE",
"221 -107 CURVE",
"252 -204 OFFCURVE",
"282 -251 OFFCURVE",
"356 -291 CURVE"
);
},
{
closed = 1;
nodes = (
"535 668 OFFCURVE",
"550 805 OFFCURVE",
"595 938 CURVE",
"664 981 LINE",
"713 975 OFFCURVE",
"794 939 OFFCURVE",
"829 903 CURVE",
"842 821 OFFCURVE",
"841 776 OFFCURVE",
"829 680 CURVE",
"547 527 LINE {name = hr00;}"
);
}
);
width = 1153;
}
);
leftKerningGroup = KO_nine;
rightKerningGroup = KO_nine;
unicode = 0039;
},
{
glyphname = zero.lf;
lastChange = "2022-07-29 03:14:34 +0000";
layers = (
{
layerId = "ED69ACE7-BE83-49AD-8DAF-057B7A1FF3CB";
paths = (
{
closed = 1;
nodes = (
"931 -20 OFFCURVE",
"1118 258 OFFCURVE",
"1190 735 CURVE SMOOTH",
"1265 1230 OFFCURVE",
"1201 1500 OFFCURVE",
"798 1500 CURVE SMOOTH",
"420 1500 OFFCURVE",
"249 1230 OFFCURVE",
"174 735 CURVE SMOOTH {name = hr00;}",
"101 254 OFFCURVE",
"186 -20 OFFCURVE",
"564 -20 CURVE SMOOTH"
);
},
{
closed = 1;
nodes = (
"592 238 OFFCURVE",
"536 260 OFFCURVE",
"495 290 CURVE",
"494 312 OFFCURVE",
"493 337 OFFCURVE",
"493 360 CURVE SMOOTH",
"493 543 OFFCURVE",
"567 1027 OFFCURVE",
"616 1165 CURVE",
"690 1198 LINE",
"845 1141 LINE",
"848 1113 OFFCURVE",
"849 1079 OFFCURVE",
"849 1058 CURVE SMOOTH",
"849 894 OFFCURVE",
"777 409 OFFCURVE",
"731 265 CURVE",
"663 222 LINE"
);
}
);
width = 1158;
}
);
leftKerningGroup = KO_zero.lf;
rightKerningGroup = KO_zero.lf;
},
{
glyphname = one.lf;
lastChange = "2022-07-29 03:14:34 +0000";
layers = (
{
layerId = "ED69ACE7-BE83-49AD-8DAF-057B7A1FF3CB";
paths = (
{
closed = 1;
nodes = (
"520 -19 OFFCURVE",
"585 -8 OFFCURVE",
"630 22 CURVE",
"632 182 OFFCURVE",
"634 523 OFFCURVE",
"624 581 CURVE",
"704 798 OFFCURVE",
"794 1216 OFFCURVE",
"823 1373 CURVE",
"779 1419 OFFCURVE",
"728 1460 OFFCURVE",
"675 1495 CURVE {name = hr00;}",
"485 1454 OFFCURVE",
"286 1320 OFFCURVE",
"172 1199 CURVE",
"220 1050 LINE",
"416 1083 LINE",
"402 775 LINE",
"220 22 LINE",
"257 -7 OFFCURVE",
"386 -21 OFFCURVE",
"458 -20 CURVE SMOOTH"
);
}
);
width = 748;
}
);
leftKerningGroup = KO_one.lf;
rightKerningGroup = KO_one.lf;
},
{
glyphname = two.lf;
lastChange = "2022-07-29 03:14:34 +0000";
layers = (
{
layerId = "ED69ACE7-BE83-49AD-8DAF-057B7A1FF3CB";
paths = (
{
closed = 1;
nodes = (
"480 150 LINE",
"640 338 LINE",
"609 349 LINE",
"550 357 LINE {name = hr01;}",
"668 419 OFFCURVE",
"1083 926 OFFCURVE",
"1181 1035 CURVE",
"1214 1142 OFFCURVE",
"1214 1230 OFFCURVE",
"1206 1304 CURVE",
"1107 1426 OFFCURVE",
"874 1493 OFFCURVE",
"759 1500 CURVE",
"641 1500 OFFCURVE",
"398 1394 OFFCURVE",
"313 1320 CURVE",
"235 1211 OFFCURVE",
"279 974 OFFCURVE",
"310 887 CURVE",
"341 878 OFFCURVE",
"369 872 OFFCURVE",
"398 872 CURVE SMOOTH",
"431 872 OFFCURVE",
"469 878 OFFCURVE",
"513 893 CURVE",
"589 1170 LINE",
"666 1198 LINE",
"820 1107 LINE",
"815 1054 LINE",
"750 973 OFFCURVE",
"440 467 OFFCURVE",
"338 382 CURVE",
"466 130 LINE"
);
},
{
closed = 1;
nodes = (
"899 -20 OFFCURVE",
"965 12 OFFCURVE",
"1027 82 CURVE SMOOTH",
"1129 198 OFFCURVE",
"1149 408 OFFCURVE",
"1127 502 CURVE",
"983 530 LINE",
"844 327 LINE",
"506 371 LINE",
"433 404 LINE",
"380 455 OFFCURVE",
"345 478 OFFCURVE",
"301 491 CURVE",
"244 473 OFFCURVE",
"189 443 OFFCURVE",
"138 403 CURVE",
"113 266 OFFCURVE",
"150 37 OFFCURVE",
"231 -17 CURVE",
"318 -14 OFFCURVE",
"353 26 OFFCURVE",
"417 105 CURVE SMOOTH",
"428 118 OFFCURVE",
"441 137 OFFCURVE",
"450 150 CURVE",
"509 80 OFFCURVE",
"702 -20 OFFCURVE",
"827 -20 CURVE SMOOTH {name = hr02;}"
);
}
);
width = 1135;
}
);
leftKerningGroup = KO_two.lf;
rightKerningGroup = KO_two.lf;
},
{
glyphname = four.lf;
lastChange = "2022-07-29 03:14:34 +0000";
layers = (
{
layerId = "ED69ACE7-BE83-49AD-8DAF-057B7A1FF3CB";
paths = (
{
closed = 1;
nodes = (
"983 619 LINE",
"526 652 LINE",
"905 1446 LINE {name = hr00;}",
"875 1494 OFFCURVE",
"773 1501 OFFCURVE",
"732 1501 CURVE SMOOTH",
"628 1501 OFFCURVE",
"513 1467 OFFCURVE",
"439 1386 CURVE",
"226 470 LINE",
"228 467 LINE",
"225 463 LINE",
"228 460 LINE",
"840 352 LINE"
);
},
{
closed = 1;
nodes = (
"289 339 OFFCURVE",
"398 410 OFFCURVE",
"447 483 CURVE",
"488 515 OFFCURVE",
"447 486 OFFCURVE",
"490 527 CURVE",
"403 656 LINE",
"164 686 LINE",
"61 549 OFFCURVE",
"126 346 OFFCURVE",
"216 325 CURVE"
);
},
{
closed = 1;
nodes = (
"970 -6 OFFCURVE",
"1035 5 OFFCURVE",
"1080 35 CURVE",
"1082 195 OFFCURVE",
"1068 423 OFFCURVE",
"1058 480 CURVE",
"1160 758 OFFCURVE",
"1241 1102 OFFCURVE",
"1243 1176 CURVE",
"1221 1186 OFFCURVE",
"1196 1191 OFFCURVE",
"1170 1191 CURVE SMOOTH",
"946 1191 OFFCURVE",
"773 1012 OFFCURVE",
"794 1013 CURVE",
"833 578 LINE",
"680 35 LINE",
"716 6 OFFCURVE",
"837 -8 OFFCURVE",
"908 -7 CURVE SMOOTH"
);
}
);
width = 1198;
}
);
leftKerningGroup = KO_four.lf;
rightKerningGroup = KO_four.lf;
},
{
glyphname = five.lf;
lastChange = "2022-07-29 03:14:34 +0000";
layers = (
{
layerId = "ED69ACE7-BE83-49AD-8DAF-057B7A1FF3CB";
paths = (
{
closed = 1;
nodes = (
"832 -12 OFFCURVE",
"1073 243 OFFCURVE",
"1073 597 CURVE SMOOTH",
"1073 788 OFFCURVE",
"973 936 OFFCURVE",
"769 933 CURVE {name = hr01;}",
"631 897 OFFCURVE",
"461 724 OFFCURVE",
"411 679 CURVE {name = hr02;}",
"406 666 OFFCURVE",
"402 663 OFFCURVE",
"397 663 CURVE SMOOTH",
"388 663 OFFCURVE",
"381 679 OFFCURVE",
"377 679 CURVE SMOOTH",
"376 679 OFFCURVE",
"375 677 OFFCURVE",
"375 673 CURVE SMOOTH",
"375 648 OFFCURVE",
"397 617 OFFCURVE",
"430 617 CURVE",
"687 625 LINE",
"699 612 OFFCURVE",
"705 574 OFFCURVE",
"705 527 CURVE SMOOTH",
"705 421 OFFCURVE",
"667 281 OFFCURVE",
"632 262 CURVE",
"605 258 OFFCURVE",
"573 256 OFFCURVE",
"548 256 CURVE SMOOTH",
"405 256 OFFCURVE",
"284 323 OFFCURVE",
"164 386 CURVE",
"130 359 OFFCURVE",
"83 316 OFFCURVE",
"83 227 CURVE SMOOTH",
"83 218 OFFCURVE",
"84 209 OFFCURVE",
"85 200 CURVE",
"155 80 OFFCURVE",
"291 -12 OFFCURVE",
"495 -12 CURVE SMOOTH"
);
},
{
closed = 1;
nodes = (
"361 438 OFFCURVE",
"489 566 OFFCURVE",
"529 640 CURVE",
"443 766 LINE",
"202 780 LINE",
"175 749 OFFCURVE",
"159 712 OFFCURVE",
"155 669 CURVE",
"144 567 OFFCURVE",
"212 444 OFFCURVE",
"279 422 CURVE"
);
},
{
closed = 1;
nodes = (
"579 714 LINE",
"509 779 LINE",
"592 1160 LINE",
"698 1100 OFFCURVE",
"926 1050 OFFCURVE",
"1000 1046 CURVE",
"1038 1064 OFFCURVE",
"1153 1209 OFFCURVE",
"1153 1374 CURVE SMOOTH",
"1153 1415 OFFCURVE",
"1146 1458 OFFCURVE",
"1128 1500 CURVE",
"743 1430 LINE",
"683 1440 OFFCURVE",
"492 1489 OFFCURVE",
"439 1500 CURVE",
"353 1461 OFFCURVE",
"275 1342 OFFCURVE",
"260 1257 CURVE",
"359 668 LINE"
);
}
);
width = 1049;
}
);
leftKerningGroup = KO_five.lf;
rightKerningGroup = KO_five.lf;
},
{
glyphname = seven.lf;
lastChange = "2022-07-29 03:14:34 +0000";
layers = (
{
layerId = "ED69ACE7-BE83-49AD-8DAF-057B7A1FF3CB";
paths = (
{
closed = 1;
nodes = (
"490 -5 OFFCURVE",
"516 0 OFFCURVE",
"554 12 CURVE",
"796 571 LINE",
"1037 1077 LINE",
"1156 1057 LINE {name = hr00;}",
"1252 1214 OFFCURVE",
"1246 1416 OFFCURVE",
"1123 1490 CURVE",
"1040 1465 OFFCURVE",
"968 1426 OFFCURVE",
"881 1364 CURVE",
"786 1410 OFFCURVE",
"695 1461 OFFCURVE",
"550 1490 CURVE",
"508 1492 OFFCURVE",
"269 1396 OFFCURVE",
"230 1282 CURVE",
"175 1117 OFFCURVE",
"221 879 OFFCURVE",
"283 798 CURVE",
"460 818 LINE",
"533 1145 LINE",
"767 1110 LINE",
"550 652 LINE",
"189 125 LINE",
"210 45 OFFCURVE",
"328 1 OFFCURVE",
"442 -3 CURVE SMOOTH"
);
}
);
width = 1050;
}
);
leftKerningGroup = KO_seven.lf;
rightKerningGroup = KO_seven.lf;
},
{
glyphname = onesuperior;
lastChange = "2022-07-29 03:14:34 +0000";
layers = (
{
layerId = "ED69ACE7-BE83-49AD-8DAF-057B7A1FF3CB";
paths = (
{
closed = 1;
nodes = (
"566 563 OFFCURVE",
"624 573 OFFCURVE",
"662 599 CURVE",
"665 739 OFFCURVE",
"641 855 OFFCURVE",
"632 905 CURVE",
"702 1095 OFFCURVE",
"768 1361 OFFCURVE",
"794 1506 CURVE",
"754 1546 OFFCURVE",
"713 1580 OFFCURVE",
"663 1613 CURVE {name = hr00;}",
"497 1577 OFFCURVE",
"313 1459 OFFCURVE",
"213 1354 CURVE",
"255 1223 LINE",
"426 1252 LINE",
"428 1074 LINE",
"294 599 LINE",
"326 574 OFFCURVE",
"449 563 OFFCURVE",
"512 563 CURVE SMOOTH"
);
}
);
width = 732;
}
);
leftKerningGroup = KO_onesuperior;
rightKerningGroup = KO_onesuperior;
unicode = 00B9;
userData = {
KernOnSpecialSpacing = {
L = superiors;
R = superiors;
};
};
},
{
glyphname = twosuperior;
lastChange = "2022-07-29 03:14:34 +0000";
layers = (
{
layerId = "ED69ACE7-BE83-49AD-8DAF-057B7A1FF3CB";
paths = (
{
closed = 1;
nodes = (
"535 711 LINE",
"637 872 LINE",
"611 881 LINE",
"612 896 LINE {name = hr01;}",
"717 952 OFFCURVE",
"968 1112 OFFCURVE",
"1064 1218 CURVE",
"1093 1312 OFFCURVE",
"1091 1390 OFFCURVE",
"1085 1447 CURVE",
"998 1554 OFFCURVE",
"797 1609 OFFCURVE",
"703 1615 CURVE",
"602 1615 OFFCURVE",
"395 1524 OFFCURVE",
"322 1461 CURVE",
"255 1368 OFFCURVE",
"295 1162 OFFCURVE",
"320 1091 CURVE",
"347 1083 OFFCURVE",
"372 1078 OFFCURVE",
"395 1078 CURVE SMOOTH",
"423 1078 OFFCURVE",
"454 1083 OFFCURVE",
"493 1096 CURVE",
"558 1333 LINE",
"586 1343 LINE",
"755 1279 LINE",
"752 1234 LINE",
"697 1166 OFFCURVE",
"519 991 OFFCURVE",
"431 918 CURVE",
"522 694 LINE"
);
},
{
closed = 1;
nodes = (
"852 566 OFFCURVE",
"914 592 OFFCURVE",
"966 651 CURVE SMOOTH",
"1054 750 OFFCURVE",
"1047 879 OFFCURVE",
"1028 960 CURVE",
"905 984 LINE",
"811 862 LINE",
"522 900 LINE",
"460 928 LINE",
"415 972 OFFCURVE",
"382 992 OFFCURVE",
"348 1002 CURVE",
"298 987 OFFCURVE",
"250 960 OFFCURVE",
"208 927 CURVE",
"187 812 OFFCURVE",
"217 615 OFFCURVE",
"287 568 CURVE",
"362 571 OFFCURVE",
"427 607 OFFCURVE",
"480 672 CURVE SMOOTH",
"489 683 OFFCURVE",
"492 688 OFFCURVE",
"509 711 CURVE",
"561 649 OFFCURVE",
"692 566 OFFCURVE",
"796 566 CURVE SMOOTH {name = hr02;}"
);
}
);
width = 1015;
}
);
leftKerningGroup = KO_twosuperior;
rightKerningGroup = KO_twosuperior;
unicode = 00B2;
userData = {
KernOnSpecialSpacing = {
L = superiors;
R = superiors;
};
};
},
{
glyphname = threesuperior;
lastChange = "2022-07-29 03:14:34 +0000";
layers = (
{
layerId = "ED69ACE7-BE83-49AD-8DAF-057B7A1FF3CB";
paths = (
{
closed = 1;
nodes = (
"527 1022 LINE",
"538 1027 OFFCURVE",
"554 1034 OFFCURVE",
"572 1040 CURVE",
"635 1057 LINE",
"754 1117 OFFCURVE",
"869 1188 OFFCURVE",
"971 1267 CURVE",
"975 1281 OFFCURVE",
"998 1353 OFFCURVE",
"998 1438 CURVE SMOOTH",
"998 1454 OFFCURVE",
"997 1476 OFFCURVE",
"994 1491 CURVE",
"940 1558 OFFCURVE",
"692 1614 OFFCURVE",
"628 1614 CURVE SMOOTH",
"611 1614 OFFCURVE",
"564 1603 OFFCURVE",
"519 1589 CURVE",
"444 1566 OFFCURVE",
"353 1530 OFFCURVE",
"306 1483 CURVE",
"294 1465 OFFCURVE",
"269 1426 OFFCURVE",
"269 1367 CURVE SMOOTH",
"269 1331 OFFCURVE",
"277 1302 OFFCURVE",
"284 1269 CURVE",
"284 1271 LINE",
"290 1239 LINE",
"324 1223 OFFCURVE",
"352 1217 OFFCURVE",
"380 1217 CURVE SMOOTH",
"410 1217 OFFCURVE",
"445 1224 OFFCURVE",
"483 1237 CURVE",
"494 1276 OFFCURVE",
"507 1315 OFFCURVE",
"519 1355 CURVE",
"523 1356 LINE",
"695 1300 LINE",
"640 1236 OFFCURVE",
"461 1071 OFFCURVE",
"366 992 CURVE"
);
},
{
closed = 1;
nodes = (
"612 522 OFFCURVE",
"713 541 OFFCURVE",
"776 575 CURVE SMOOTH",
"884 633 OFFCURVE",
"964 742 OFFCURVE",
"989 913 CURVE",
"1002 991 OFFCURVE",
"870 1066 OFFCURVE",
"723 1084 CURVE",
"681 1084 OFFCURVE",
"563 1103 OFFCURVE",
"526 1093 CURVE",
"481 1081 LINE",
"440 1000 OFFCURVE",
"439 993 OFFCURVE",
"480 985 CURVE SMOOTH",
"484 984 OFFCURVE",
"489 983 OFFCURVE",
"495 979 CURVE",
"511 971 LINE",
"510 972 LINE",
"559 949 OFFCURVE",
"694 900 OFFCURVE",
"718 852 CURVE",
"710 823 OFFCURVE",
"694 783 OFFCURVE",
"677 753 CURVE",
"655 749 OFFCURVE",
"631 746 OFFCURVE",
"616 746 CURVE SMOOTH",
"522 748 OFFCURVE",
"350 773 OFFCURVE",
"268 817 CURVE",
"226 785 OFFCURVE",
"185 771 OFFCURVE",
"185 656 CURVE SMOOTH",
"185 654 OFFCURVE",
"185 652 OFFCURVE",
"185 651 CURVE",
"234 563 OFFCURVE",
"392 522 OFFCURVE",
"543 522 CURVE SMOOTH"
);
},
{
closed = 1;
nodes = (
"441 866 OFFCURVE",
"523 917 OFFCURVE",
"563 971 CURVE",
"575 981 OFFCURVE",
"582 989 OFFCURVE",
"582 997 CURVE SMOOTH",
"582 996 OFFCURVE",
"584 997 OFFCURVE",
"603 1015 CURVE",
"532 1119 LINE {name = hr00;}",
"421 1154 LINE",
"343 1126 LINE",
"326 1103 OFFCURVE",
"299 1060 OFFCURVE",
"299 1003 CURVE SMOOTH",
"299 928 OFFCURVE",
"343 867 OFFCURVE",
"389 856 CURVE"
);
}
);
width = 949;
}
);
leftKerningGroup = KO_threesuperior;
rightKerningGroup = KO_threesuperior;
unicode = 00B3;
userData = {
KernOnSpecialSpacing = {
L = superiors;
R = superiors;
};
};
},
{
glyphname = foursuperior;
lastChange = "2022-07-29 03:14:34 +0000";
layers = (
{
layerId = "ED69ACE7-BE83-49AD-8DAF-057B7A1FF3CB";
paths = (
{
closed = 1;
nodes = (
"877 950 LINE",
"501 977 LINE",
"785 1520 LINE {name = hr00;}",
"760 1559 OFFCURVE",
"676 1565 OFFCURVE",
"643 1565 CURVE SMOOTH",
"556 1565 OFFCURVE",
"463 1537 OFFCURVE",
"402 1470 CURVE",
"254 827 LINE",
"256 825 LINE",
"253 822 LINE",
"256 819 LINE",
"759 730 LINE"
);
},
{
closed = 1;
nodes = (
"306 720 OFFCURVE",
"397 778 OFFCURVE",
"437 838 CURVE",
"469 864 OFFCURVE",
"436 841 OFFCURVE",
"471 874 CURVE",
"400 981 LINE",
"203 1005 LINE",
"118 892 OFFCURVE",
"172 725 OFFCURVE",
"246 708 CURVE"
);
},
{
closed = 1;
nodes = (
"870 454 OFFCURVE",
"932 463 OFFCURVE",
"968 487 CURVE",
"970 614 OFFCURVE",
"959 807 OFFCURVE",
"951 854 CURVE",
"1036 1086 OFFCURVE",
"1093 1313 OFFCURVE",
"1094 1374 CURVE",
"1077 1382 OFFCURVE",
"1051 1383 OFFCURVE",
"1035 1386 CURVE SMOOTH",
"854 1416 OFFCURVE",
"747 1284 OFFCURVE",
"723 1246 CURVE",
"756 934 LINE",
"630 487 LINE",
"660 464 OFFCURVE",
"760 452 OFFCURVE",
"817 453 CURVE SMOOTH"
);
}
);
width = 1021;
}
);
leftKerningGroup = KO_foursuperior;
leftMetricsKey = four;
rightKerningGroup = KO_foursuperior;
rightMetricsKey = four;
unicode = 2074;
userData = {
KernOnSpecialSpacing = {
L = superiors;
R = superiors;
};
};
},
{
glyphname = fraction;
lastChange = "2022-07-29 03:15:02 +0000";
layers = (
{
layerId = "ED69ACE7-BE83-49AD-8DAF-057B7A1FF3CB";
paths = (
{
closed = 1;
nodes = (
"1559 1412 LINE {name = hr00;}",
"1515 1487 OFFCURVE",
"1413 1572 OFFCURVE",
"1336 1576 CURVE",
"53 35 LINE",
"57 -31 OFFCURVE",
"121 -90 OFFCURVE",
"195 -112 CURVE"
);
}
);
width = 1388;
}
);
unicode = 2044;
userData = {
KernOnSpecialSpacing = {
L = fraction;
R = fraction;
};
};
},
{
glyphname = threequarters;
lastChange = "2022-07-29 02:30:28 +0000";
layers = (
{
background = {
paths = (
{
closed = 1;
nodes = (
"1986 477 LINE",
"1606 504 LINE",
"1814 1017 LINE {name = hr00;}",
"1783 1056 OFFCURVE",
"1699 1062 OFFCURVE",
"1665 1062 CURVE SMOOTH",
"1579 1062 OFFCURVE",
"1489 1034 OFFCURVE",
"1438 967 CURVE",
"1380 354 LINE",
"1382 352 LINE",
"1380 349 LINE",
"1383 346 LINE",
"1899 257 LINE"
);
},
{
closed = 1;
nodes = (
"1447 247 OFFCURVE",
"1529 305 OFFCURVE",
"1561 365 CURVE",
"1590 391 OFFCURVE",
"1560 368 OFFCURVE",
"1590 401 CURVE",
"1504 508 LINE",
"1304 532 LINE",
"1235 419 OFFCURVE",
"1312 252 OFFCURVE",
"1389 235 CURVE"
);
},
{
closed = 1;
nodes = (
"2048 -19 OFFCURVE",
"2109 -10 OFFCURVE",
"2142 14 CURVE",
"2125 146 OFFCURVE",
"2088 334 OFFCURVE",
"2073 381 CURVE",
"2120 609 OFFCURVE",
"2147 840 OFFCURVE",
"2143 901 CURVE",
"2124 909 OFFCURVE",
"2103 913 OFFCURVE",
"2082 913 CURVE SMOOTH",
"1897 913 OFFCURVE",
"1808 810 OFFCURVE",
"1790 773 CURVE",
"1867 461 LINE",
"1804 14 LINE",
"1837 -9 OFFCURVE",
"1938 -21 OFFCURVE",
"1996 -20 CURVE SMOOTH"
);
}
);
};
components = (
{
alignment = -1;
name = threesuperior;
},
{
name = fraction;
transform = "{1, 0, 0, 1, 382, 0}";
},
{
alignment = -1;
name = foursuperior;
transform = "{1, 0, 0, 1, 1277, -492}";
}
);
layerId = "ED69ACE7-BE83-49AD-8DAF-057B7A1FF3CB";
width = 2290;
}
);
unicode = 00BE;
userData = {
KernOnSpecialSpacing = {
L = NoKerning;
R = NoKerning;
};
};
},
{
glyphname = period;
lastChange = "2022-07-29 03:15:45 +0000";
layers = (
{
layerId = "ED69ACE7-BE83-49AD-8DAF-057B7A1FF3CB";
paths = (
{
closed = 1;
nodes = (
"356 -4 OFFCURVE",
"546 119 OFFCURVE",
"596 251 CURVE {name = hr00;}",
"534 358 OFFCURVE",
"438 442 OFFCURVE",
"325 475 CURVE",
"270 441 OFFCURVE",
"81 245 OFFCURVE",
"57 195 CURVE",
"80 83 OFFCURVE",
"165 11 OFFCURVE",
"262 -34 CURVE"
);
}
);
width = 605;
}
);
leftKerningGroup = KO_period;
rightKerningGroup = KO_period;
unicode = 002E;
userData = {
KernOnName = period;
KernOnSpecialSpacing = {
L = period;
R = period;
};
};
},
{
glyphname = comma;
lastChange = "2022-07-29 03:15:45 +0000";
layers = (
{
layerId = "ED69ACE7-BE83-49AD-8DAF-057B7A1FF3CB";
paths = (
{
closed = 1;
nodes = (
"155 -204 OFFCURVE",
"483 38 OFFCURVE",
"577 204 CURVE",
"572 256 OFFCURVE",
"528 448 OFFCURVE",
"251 451 CURVE {name = hr00;}",
"-36 -176 LINE",
"75 -244 LINE"
);
}
);
width = 651;
}
);
leftKerningGroup = KO_comma;
rightKerningGroup = KO_comma;
unicode = 002C;
userData = {
KernOnName = comma;
KernOnSpecialSpacing = {
L = period;
R = period;
};
};
},
{
glyphname = colon;
lastChange = "2022-07-29 03:15:57 +0000";
layers = (
{
layerId = "ED69ACE7-BE83-49AD-8DAF-057B7A1FF3CB";
paths = (
{
closed = 1;
nodes = (
"502 762 OFFCURVE",
"694 886 OFFCURVE",
"744 1018 CURVE {name = hr00;}",
"689 1113 OFFCURVE",
"596 1206 OFFCURVE",
"473 1242 CURVE",
"417 1208 OFFCURVE",
"228 1010 OFFCURVE",
"205 962 CURVE",
"228 850 OFFCURVE",
"312 778 OFFCURVE",
"410 733 CURVE"
);
},
{
closed = 1;
nodes = (
"396 -4 OFFCURVE",
"586 119 OFFCURVE",
"636 251 CURVE {name = hr00;}",
"574 358 OFFCURVE",
"478 442 OFFCURVE",
"365 475 CURVE",
"310 441 OFFCURVE",
"121 245 OFFCURVE",
"97 195 CURVE",
"120 83 OFFCURVE",
"205 11 OFFCURVE",
"302 -34 CURVE"
);
}
);
width = 691;
}
);
leftKerningGroup = KO_colon;
rightKerningGroup = KO_colon;
unicode = 003A;
userData = {
KernOnSpecialSpacing = {
L = "spaced-off";
R = "spaced-off";
};
};
},
{
glyphname = semicolon;
lastChange = "2022-07-29 03:15:57 +0000";
layers = (
{
layerId = "ED69ACE7-BE83-49AD-8DAF-057B7A1FF3CB";
paths = (
{
closed = 1;
nodes = (
"155 -204 OFFCURVE",
"483 38 OFFCURVE",
"577 204 CURVE",
"572 256 OFFCURVE",
"528 448 OFFCURVE",
"251 451 CURVE {name = hr00;}",
"-36 -176 LINE",
"75 -244 LINE"
);
},
{
closed = 1;
nodes = (
"481 763 OFFCURVE",
"671 886 OFFCURVE",
"721 1018 CURVE {name = hr00;}",
"666 1113 OFFCURVE",
"573 1206 OFFCURVE",
"450 1242 CURVE",
"392 1206 OFFCURVE",
"205 1010 OFFCURVE",
"182 962 CURVE",
"205 850 OFFCURVE",
"290 778 OFFCURVE",
"387 733 CURVE"
);
}
);
width = 691;
}
);
leftKerningGroup = KO_semicolon;
leftMetricsKey = comma;
widthMetricsKey = colon;
rightKerningGroup = KO_semicolon;
unicode = 003B;
userData = {
KernOnSpecialSpacing = {
L = "spaced-off";
R = "spaced-off";
};
};
},
{
glyphname = ellipsis;
lastChange = "2022-07-29 03:15:57 +0000";
layers = (
{
layerId = "ED69ACE7-BE83-49AD-8DAF-057B7A1FF3CB";
paths = (
{
closed = 1;
nodes = (
"1521 -4 OFFCURVE",
"1711 119 OFFCURVE",
"1761 251 CURVE",
"1699 358 OFFCURVE",
"1603 442 OFFCURVE",
"1490 475 CURVE",
"1435 441 OFFCURVE",
"1245 245 OFFCURVE",
"1222 195 CURVE",
"1245 83 OFFCURVE",
"1330 11 OFFCURVE",
"1427 -34 CURVE"
);
},
{
closed = 1;
nodes = (
"341 -4 OFFCURVE",
"531 119 OFFCURVE",
"581 251 CURVE {name = hr00;}",
"519 358 OFFCURVE",
"423 442 OFFCURVE",
"310 475 CURVE",
"255 441 OFFCURVE",
"66 245 OFFCURVE",
"42 195 CURVE",
"65 83 OFFCURVE",
"150 11 OFFCURVE",
"247 -34 CURVE"
);
},
{
closed = 1;
nodes = (
"931 -4 OFFCURVE",
"1121 119 OFFCURVE",
"1171 251 CURVE",
"1109 358 OFFCURVE",
"1013 442 OFFCURVE",
"900 475 CURVE",
"845 441 OFFCURVE",
"656 245 OFFCURVE",
"632 195 CURVE",
"655 83 OFFCURVE",
"740 11 OFFCURVE",
"837 -34 CURVE"
);
}
);
width = 1770;
}
);
leftKerningGroup = KO_ellipsis;
rightKerningGroup = KO_ellipsis;
unicode = 2026;
},
{
glyphname = exclam;
lastChange = "2022-07-29 03:15:45 +0000";
layers = (
{
layerId = "ED69ACE7-BE83-49AD-8DAF-057B7A1FF3CB";
paths = (
{
closed = 1;
nodes = (
"326 550 OFFCURVE",
"564 599 OFFCURVE",
"617 687 CURVE",
"592 964 LINE",
"793 1566 LINE {name = hr00;}",
"761 1596 OFFCURVE",
"707 1615 OFFCURVE",
"649 1613 CURVE SMOOTH",
"514 1609 OFFCURVE",
"368 1553 OFFCURVE",
"291 1467 CURVE",
"288 1225 OFFCURVE",
"314 1172 OFFCURVE",
"345 913 CURVE",
"309 831 OFFCURVE",
"279 739 OFFCURVE",
"257 655 CURVE"
);
},
{
closed = 1;
nodes = (
"407 -4 OFFCURVE",
"597 119 OFFCURVE",
"647 251 CURVE",
"585 358 OFFCURVE",
"489 442 OFFCURVE",
"376 475 CURVE",
"321 441 OFFCURVE",
"132 245 OFFCURVE",
"108 195 CURVE",
"131 83 OFFCURVE",
"216 11 OFFCURVE",
"313 -34 CURVE"
);
}
);
width = 691;
}
);
leftKerningGroup = KO_exclam;
rightKerningGroup = KO_exclam;
unicode = 0021;
userData = {
KernOnSpecialSpacing = {
L = "spaced-off";
};
};
},
{
glyphname = exclamdown;
lastChange = "2022-07-29 03:16:08 +0000";
layers = (
{
layerId = "ED69ACE7-BE83-49AD-8DAF-057B7A1FF3CB";
paths = (
{
closed = 1;
nodes = (
"344 -432 OFFCURVE",
"490 -376 OFFCURVE",
"567 -290 CURVE",
"569 -46 OFFCURVE",
"537 65 OFFCURVE",
"513 264 CURVE",
"548 346 OFFCURVE",
"576 428 OFFCURVE",
"601 522 CURVE",
"532 627 OFFCURVE",
"293 578 OFFCURVE",
"241 490 CURVE",
"266 213 LINE",
"65 -389 LINE {name = hr00;}",
"97 -419 OFFCURVE",
"150 -438 OFFCURVE",
"209 -436 CURVE SMOOTH"
);
},
{
closed = 1;
nodes = (
"537 736 OFFCURVE",
"726 933 OFFCURVE",
"750 982 CURVE",
"726 1094 OFFCURVE",
"643 1165 OFFCURVE",
"545 1211 CURVE",
"449 1180 OFFCURVE",
"260 1058 OFFCURVE",
"211 926 CURVE",
"268 827 OFFCURVE",
"362 737 OFFCURVE",
"481 702 CURVE"
);
}
);
width = 691;
}
);
leftKerningGroup = KO_exclam;
rightKerningGroup = KO_exclamdown;
unicode = 00A1;
userData = {
KernOnSpecialSpacing = {
R = "spaced-off";
};
};
},
{
glyphname = question;
lastChange = "2022-07-29 03:15:45 +0000";
layers = (
{
layerId = "ED69ACE7-BE83-49AD-8DAF-057B7A1FF3CB";
paths = (
{
closed = 1;
nodes = (
"639 813 LINE",
"796 804 OFFCURVE",
"954 874 OFFCURVE",
"954 874 CURVE",
"1023 1034 OFFCURVE",
"1048 1260 OFFCURVE",
"1030 1377 CURVE",
"924 1569 OFFCURVE",
"623 1611 OFFCURVE",
"525 1611 CURVE",
"442 1577 OFFCURVE",
"329 1431 OFFCURVE",
"293 1306 CURVE",
"470 1267 OFFCURVE",
"671 1238 OFFCURVE",
"784 1170 CURVE",
"456 988 LINE SMOOTH",
"264 881 OFFCURVE",
"357 800 OFFCURVE",
"375 605 CURVE {name = hr00;}",
"560 595 LINE"
);
},
{
closed = 1;
nodes = (
"486 -4 OFFCURVE",
"676 119 OFFCURVE",
"726 251 CURVE",
"664 358 OFFCURVE",
"568 442 OFFCURVE",
"455 475 CURVE",
"400 441 OFFCURVE",
"211 245 OFFCURVE",
"187 195 CURVE",
"210 83 OFFCURVE",
"295 11 OFFCURVE",
"392 -34 CURVE"
);
}
);
userData = {
com.typemytype.robofont.guides = (
{
angle = 0;
isGlobal = 0;
x = 0;
y = 1677;
}
);
};
width = 955;
}
);
leftKerningGroup = KO_question;
rightKerningGroup = KO_question;
unicode = 003F;
userData = {
KernOnName = question;
KernOnSpecialSpacing = {
L = "spaced-off";
};
};
},
{
glyphname = questiondown;
lastChange = "2022-07-29 03:16:08 +0000";
layers = (
{
layerId = "ED69ACE7-BE83-49AD-8DAF-057B7A1FF3CB";
paths = (
{
closed = 1;
nodes = (
"679 -405 OFFCURVE",
"790 -258 OFFCURVE",
"826 -135 CURVE",
"639 -94 OFFCURVE",
"447 -66 OFFCURVE",
"335 1 CURVE",
"664 183 LINE SMOOTH",
"855 290 OFFCURVE",
"762 368 OFFCURVE",
"744 566 CURVE {name = hr00;}",
"559 576 LINE",
"480 358 LINE",
"324 367 OFFCURVE",
"165 297 OFFCURVE",
"165 297 CURVE",
"96 137 OFFCURVE",
"70 -88 OFFCURVE",
"89 -206 CURVE",
"195 -398 OFFCURVE",
"497 -440 OFFCURVE",
"594 -440 CURVE"
);
},
{
closed = 1;
nodes = (
"722 732 OFFCURVE",
"909 928 OFFCURVE",
"932 976 CURVE",
"909 1088 OFFCURVE",
"824 1160 OFFCURVE",
"727 1205 CURVE",
"633 1175 OFFCURVE",
"443 1052 OFFCURVE",
"393 920 CURVE",
"448 825 OFFCURVE",
"541 732 OFFCURVE",
"664 696 CURVE"
);
}
);
width = 955;
}
);
leftKerningGroup = KO_slash;
rightKerningGroup = KO_questiondown;
unicode = 00BF;
userData = {
KernOnSpecialSpacing = {
R = "spaced-off";
};
};
},
{
glyphname = periodcentered;
lastChange = "2022-07-29 03:15:45 +0000";
layers = (
{
layerId = "ED69ACE7-BE83-49AD-8DAF-057B7A1FF3CB";
paths = (
{
closed = 1;
nodes = (
"459 405 OFFCURVE",
"649 528 OFFCURVE",
"699 660 CURVE {name = hr00;}",
"637 767 OFFCURVE",
"541 851 OFFCURVE",
"428 884 CURVE",
"373 850 OFFCURVE",
"184 654 OFFCURVE",
"160 604 CURVE",
"183 492 OFFCURVE",
"268 420 OFFCURVE",
"365 375 CURVE"
);
}
);
width = 691;
}
);
unicode = 00B7;
userData = {
KernOnSpecialSpacing = {
L = NoKerning;
R = NoKerning;
};
};
},
{
glyphname = bullet;
lastChange = "2022-07-29 03:15:45 +0000";
layers = (
{
layerId = "ED69ACE7-BE83-49AD-8DAF-057B7A1FF3CB";
paths = (
{
closed = 1;
nodes = (
"493 367 OFFCURVE",
"714 512 OFFCURVE",
"772 664 CURVE {name = hr00;}",
"709 775 OFFCURVE",
"600 883 OFFCURVE",
"457 925 CURVE",
"395 888 OFFCURVE",
"172 657 OFFCURVE",
"145 599 CURVE",
"172 469 OFFCURVE",
"270 385 OFFCURVE",
"383 332 CURVE"
);
}
);
width = 778;
}
);
unicode = 2022;
userData = {
KernOnSpecialSpacing = {
L = NoKerning;
R = NoKerning;
};
};
},
